{"glyphs":{"0":{"ha":714,"x_min":32,"x_max":683,"o":"m 357 -14 q 181 36 253 -14 q 70 172 108 86 q 32 368 32 258 q 70 564 32 478 q 181 700 108 650 q 357 750 253 750 q 534 700 461 750 q 645 564 607 650 q 683 368 683 478 q 645 172 683 258 q 534 36 607 86 q 357 -14 461 -14 m 357 90 q 547 166 475 90 q 618 368 618 242 q 547 570 618 494 q 357 646 475 646 q 167 570 239 646 q 96 368 96 494 q 167 166 96 242 q 357 90 239 90 z "},"1":{"ha":714,"x_min":122,"x_max":593,"o":"m 122 0 l 122 22 l 289 78 l 289 658 l 122 714 l 122 736 l 593 736 l 593 714 l 426 658 l 426 78 l 593 22 l 593 0 l 122 0 z "},"2":{"ha":714,"x_min":75,"x_max":636,"o":"m 81 0 l 81 39 q 254 201 183 135 q 367 315 325 267 q 428 406 410 363 q 447 500 447 449 q 412 601 447 556 q 301 647 376 647 q 192 614 235 647 q 122 518 150 581 l 75 539 q 197 697 121 644 q 358 750 272 750 q 539 686 478 750 q 600 529 600 622 q 571 415 600 467 q 490 317 542 364 q 370 219 438 269 q 226 106 303 168 l 544 106 l 614 240 l 636 240 l 622 0 l 81 0 z "},"3":{"ha":714,"x_min":61,"x_max":667,"o":"m 333 -193 q 174 -165 240 -193 q 72 -87 107 -136 q 61 -60 61 -72 q 86 -22 61 -42 l 139 17 l 154 17 l 167 -8 q 240 -101 197 -69 q 349 -132 282 -132 q 484 -80 436 -132 q 532 46 532 -28 q 458 216 532 153 q 232 279 383 279 l 213 339 l 217 339 q 389 386 322 339 q 456 511 456 433 q 419 610 456 574 q 310 647 382 647 q 201 614 243 647 q 131 518 158 581 l 83 539 q 209 697 129 644 q 375 750 289 750 q 545 697 481 750 q 610 560 610 644 q 560 436 610 489 q 431 356 510 383 q 610 256 553 326 q 667 90 667 185 q 622 -53 667 11 q 503 -155 578 -117 q 333 -193 428 -193 z "},"4":{"ha":714,"x_min":11,"x_max":696,"o":"m 393 -181 l 393 103 l 11 103 l 11 144 l 478 736 l 531 736 l 531 200 l 696 200 l 696 103 l 531 103 l 531 -181 l 393 -181 m 138 200 l 393 200 l 393 532 l 138 200 z "},"5":{"ha":714,"x_min":78,"x_max":646,"o":"m 281 -194 q 161 -177 211 -194 q 89 -126 111 -160 q 78 -99 78 -111 q 103 -61 78 -81 l 157 -19 l 172 -19 l 186 -46 q 242 -104 207 -81 q 333 -128 278 -128 q 469 -71 414 -128 q 524 83 524 -14 q 499 188 524 139 q 416 267 475 238 q 254 297 357 297 q 121 285 197 297 l 121 736 l 575 736 l 575 621 l 189 621 l 189 418 q 276 421 233 421 q 492 381 411 421 q 610 276 574 340 q 646 142 646 213 q 599 -36 646 39 q 469 -153 551 -111 q 281 -194 386 -194 z "},"6":{"ha":714,"x_min":50,"x_max":674,"o":"m 364 -14 q 199 31 269 -14 q 89 152 128 75 q 50 328 50 229 q 117 595 50 475 q 306 801 183 715 q 597 931 428 886 l 597 889 q 330 715 429 836 q 208 431 231 594 q 301 510 246 481 q 428 540 357 540 q 558 506 503 540 q 643 410 613 471 q 674 275 674 350 q 640 136 674 203 q 536 28 606 69 q 364 -14 467 -14 m 203 338 q 250 119 203 188 q 367 51 297 51 q 455 80 419 51 q 508 152 490 108 q 525 243 525 196 q 485 394 525 342 q 364 446 444 446 q 271 422 313 446 q 203 357 229 397 q 203 338 203 347 z "},"7":{"ha":714,"x_min":74,"x_max":656,"o":"m 124 -181 q 180 -53 153 -112 q 238 68 207 6 q 310 206 269 131 q 408 380 351 281 q 540 613 464 479 l 74 613 l 74 736 l 656 736 l 656 703 q 551 497 606 607 q 444 272 496 388 q 351 42 392 157 q 289 -181 310 -72 l 124 -181 z "},"8":{"ha":714,"x_min":57,"x_max":657,"o":"m 358 -14 q 209 13 278 -14 q 99 88 140 39 q 57 203 57 136 q 72 287 57 246 q 128 369 88 328 q 243 453 168 410 q 117 561 153 508 q 82 690 82 614 q 122 810 82 756 q 226 897 163 864 q 363 931 290 931 q 498 901 436 931 q 596 819 560 871 q 632 700 632 767 q 584 594 632 643 q 454 501 536 546 q 608 383 558 440 q 657 242 657 326 q 612 102 657 160 q 499 15 567 44 q 358 -14 431 -14 m 219 739 q 233 670 219 701 q 285 606 246 639 q 397 533 324 574 q 475 601 447 563 q 503 692 503 640 q 461 824 503 781 q 351 867 419 867 q 257 833 294 867 q 219 739 219 800 m 192 232 q 239 95 192 144 q 361 46 286 46 q 481 85 439 46 q 524 194 524 125 q 497 283 524 247 q 419 351 471 319 q 293 424 367 382 q 210 335 229 378 q 192 232 192 292 z "},"9":{"ha":714,"x_min":42,"x_max":665,"o":"m 118 -194 l 118 -153 q 385 21 286 -100 q 507 306 485 142 q 414 226 469 256 q 288 196 358 196 q 158 231 213 196 q 72 326 103 265 q 42 461 42 386 q 76 600 42 533 q 180 708 111 667 q 353 750 249 750 q 517 706 447 750 q 626 584 588 661 q 665 408 665 507 q 599 141 665 261 q 409 -65 532 21 q 118 -194 286 -150 m 190 493 q 231 342 190 394 q 351 290 271 290 q 444 314 403 290 q 513 378 486 338 q 513 399 513 388 q 465 617 513 549 q 349 685 417 685 q 260 656 294 685 q 208 584 225 628 q 190 493 190 540 z "},"\u0000":{"ha":0,"x_min":0,"x_max":0,"o":""}," ":{"ha":347,"x_min":0,"x_max":0,"o":""}," ":{"ha":694,"x_min":0,"x_max":0,"o":""}," ":{"ha":347,"x_min":0,"x_max":0,"o":""}," ":{"ha":174,"x_min":0,"x_max":0,"o":""}," ":{"ha":35,"x_min":0,"x_max":0,"o":""},"​":{"ha":0,"x_min":0,"x_max":0,"o":""},"A":{"ha":1050,"x_min":42,"x_max":1008,"o":"m 42 0 l 42 22 l 129 68 l 486 924 l 563 924 l 915 72 l 1008 22 l 1008 0 l 642 0 l 642 22 l 764 71 l 661 321 l 326 321 l 225 69 l 342 22 l 342 0 l 42 0 m 358 397 l 631 397 l 494 732 l 358 397 z "},"B":{"ha":929,"x_min":83,"x_max":864,"o":"m 83 0 l 83 22 l 196 78 l 196 839 l 83 894 l 83 917 l 457 917 q 624 894 550 917 q 741 826 699 871 q 783 711 783 781 q 735 581 783 640 q 594 497 686 522 q 792 420 721 481 q 864 267 864 360 q 815 130 864 190 q 682 35 767 69 q 489 0 597 0 l 83 0 m 417 840 l 342 840 l 342 510 l 424 510 q 576 553 522 510 q 631 671 631 596 q 417 840 631 840 m 468 436 l 342 436 l 342 76 l 478 76 q 647 127 585 76 q 708 257 708 178 q 646 393 708 350 q 468 436 583 436 z "},"C":{"ha":1003,"x_min":90,"x_max":883,"o":"m 556 -14 q 308 44 413 -14 q 147 204 204 103 q 90 435 90 306 q 129 624 90 535 q 235 782 168 713 q 390 891 303 851 q 576 931 478 931 q 696 922 647 931 q 783 898 744 913 q 860 864 821 883 l 868 617 l 843 617 l 747 797 q 662 846 700 831 q 576 861 624 861 q 404 811 481 861 q 284 673 328 761 q 240 469 240 585 q 283 248 240 340 q 397 107 325 156 q 557 58 469 58 q 678 78 629 58 q 767 124 728 97 l 860 279 l 883 279 l 867 56 q 736 6 806 25 q 556 -14 667 -14 z "},"D":{"ha":1085,"x_min":83,"x_max":996,"o":"m 83 0 l 83 22 l 196 78 l 196 839 l 83 894 l 83 917 l 506 917 q 771 863 661 917 q 938 714 881 808 q 996 500 996 619 q 958 300 996 392 q 853 142 921 208 q 695 38 786 75 q 496 0 604 0 l 83 0 m 468 840 l 342 840 l 342 76 l 489 76 q 679 123 600 76 q 801 255 758 169 q 844 457 844 340 q 801 659 844 572 q 673 793 757 746 q 468 840 589 840 z "},"E":{"ha":915,"x_min":83,"x_max":819,"o":"m 83 0 l 83 22 l 196 78 l 196 839 l 83 894 l 83 917 l 781 917 l 781 678 l 758 678 l 668 840 l 342 840 l 342 511 l 572 511 l 643 628 l 665 628 l 665 321 l 643 321 l 572 435 l 342 435 l 342 76 l 706 76 l 797 260 l 819 260 l 819 0 l 83 0 z "},"F":{"ha":858,"x_min":83,"x_max":767,"o":"m 83 0 l 83 22 l 196 78 l 196 839 l 83 894 l 83 917 l 767 917 l 767 678 l 744 678 l 657 840 l 342 840 l 342 510 l 558 510 l 629 626 l 651 626 l 651 322 l 629 322 l 558 436 l 342 436 l 342 78 l 469 22 l 469 0 l 83 0 z "},"G":{"ha":1063,"x_min":90,"x_max":1000,"o":"m 557 -14 q 372 19 457 -14 q 224 113 286 53 q 126 256 161 174 q 90 435 90 338 q 130 632 90 542 q 239 790 169 722 q 399 894 308 857 q 592 931 489 931 q 717 922 665 931 q 809 899 768 914 q 889 864 850 883 l 897 631 l 875 631 l 775 797 q 682 847 721 833 q 592 861 643 861 q 408 814 489 861 q 282 683 328 767 q 236 493 236 600 q 285 263 236 358 q 415 116 333 167 q 597 65 496 65 q 677 70 638 65 q 757 89 717 75 l 757 326 l 633 383 l 633 406 l 1000 406 l 1000 383 l 903 322 l 903 103 q 803 41 861 67 q 681 1 744 15 q 557 -14 617 -14 z "},"H":{"ha":1133,"x_min":83,"x_max":1050,"o":"m 83 0 l 83 22 l 196 78 l 196 839 l 83 894 l 83 917 l 451 917 l 451 894 l 342 839 l 342 511 l 793 511 l 793 839 l 682 894 l 682 917 l 1050 917 l 1050 894 l 938 839 l 938 78 l 1050 22 l 1050 0 l 682 0 l 682 22 l 793 78 l 793 435 l 342 435 l 342 78 l 451 22 l 451 0 l 83 0 z "},"I":{"ha":549,"x_min":89,"x_max":460,"o":"m 89 0 l 89 22 l 203 78 l 203 839 l 89 894 l 89 917 l 460 917 l 460 894 l 347 839 l 347 78 l 460 22 l 460 0 l 89 0 z "},"J":{"ha":556,"x_min":22,"x_max":467,"o":"m 68 -240 q 36 -232 50 -240 q 22 -201 22 -224 q 25 -181 22 -196 q 38 -119 28 -167 l 46 -119 q 83 -128 69 -125 q 115 -132 97 -132 q 165 -119 144 -132 q 197 -62 186 -106 q 208 71 208 -19 l 208 839 l 96 894 l 96 917 l 467 917 l 467 894 l 353 839 l 353 335 q 322 54 353 178 q 231 -135 290 -69 q 167 -200 192 -178 q 119 -231 142 -222 q 68 -240 97 -240 z "},"K":{"ha":1017,"x_min":83,"x_max":999,"o":"m 83 0 l 83 22 l 196 78 l 196 839 l 83 894 l 83 917 l 454 917 l 454 894 l 342 839 l 342 78 l 454 22 l 454 0 l 83 0 m 342 468 l 725 847 l 626 894 l 626 917 l 926 917 l 926 894 l 839 860 l 483 511 l 911 60 l 999 22 l 999 0 l 772 0 l 342 468 z "},"L":{"ha":883,"x_min":83,"x_max":792,"o":"m 83 0 l 83 22 l 196 78 l 196 839 l 83 894 l 83 917 l 468 917 l 468 894 l 342 839 l 342 76 l 671 76 l 769 315 l 792 315 l 792 0 l 83 0 z "},"M":{"ha":1344,"x_min":78,"x_max":1267,"o":"m 78 0 l 78 22 l 189 78 l 218 839 l 99 894 l 99 917 l 375 917 l 686 199 l 996 917 l 1261 917 l 1261 894 l 1143 843 l 1167 78 l 1267 22 l 1267 0 l 924 0 l 924 22 l 1028 76 l 1014 756 l 686 -7 l 619 -7 l 294 747 l 276 76 l 392 22 l 392 0 l 78 0 z "},"N":{"ha":1115,"x_min":78,"x_max":1038,"o":"m 78 0 l 78 22 l 190 78 l 190 836 l 79 894 l 79 917 l 297 917 l 829 263 l 829 840 l 686 894 l 686 917 l 1038 917 l 1038 894 l 926 840 l 926 -7 l 867 -7 l 288 704 l 288 76 l 431 22 l 431 0 l 78 0 z "},"O":{"ha":1115,"x_min":90,"x_max":1025,"o":"m 557 -14 q 372 22 457 -14 q 223 120 286 57 q 125 269 160 183 q 90 458 90 356 q 125 647 90 561 q 223 797 160 733 q 372 895 286 860 q 557 931 457 931 q 742 895 657 931 q 891 797 828 860 q 990 647 954 733 q 1025 458 1025 561 q 990 269 1025 356 q 891 120 954 183 q 742 22 828 57 q 557 -14 657 -14 m 585 56 q 733 100 669 56 q 833 225 797 144 q 869 415 869 306 q 825 651 869 550 q 704 807 781 751 q 535 863 628 863 q 385 819 450 863 q 283 694 319 775 q 246 504 246 614 q 291 268 246 369 q 413 111 336 167 q 585 56 490 56 z "},"P":{"ha":901,"x_min":83,"x_max":835,"o":"m 83 0 l 83 22 l 196 78 l 196 839 l 83 894 l 83 917 l 472 917 q 735 857 636 917 q 835 668 835 797 q 783 533 835 592 q 642 440 731 474 q 439 406 553 406 l 342 406 l 342 78 l 469 22 l 469 0 l 83 0 m 342 840 l 342 479 l 447 479 q 619 529 557 479 q 682 657 682 579 q 619 797 682 754 q 438 840 556 840 l 342 840 z "},"Q":{"ha":1115,"x_min":90,"x_max":1122,"o":"m 949 -208 q 831 -194 892 -208 q 692 -137 769 -179 q 513 -12 615 -94 q 294 62 390 -1 q 144 227 199 125 q 90 458 90 329 q 125 647 90 561 q 223 797 160 733 q 372 895 286 860 q 557 931 457 931 q 742 895 657 931 q 891 797 828 860 q 990 647 954 733 q 1025 458 1025 561 q 983 255 1025 347 q 868 98 942 163 q 697 6 794 33 q 833 -93 775 -57 q 940 -144 892 -129 q 1033 -160 988 -160 q 1085 -156 1063 -160 q 1122 -147 1107 -153 l 1122 -171 q 1047 -198 1092 -187 q 949 -208 1001 -208 m 585 56 q 733 100 669 56 q 833 225 797 144 q 869 415 869 306 q 825 651 869 550 q 704 807 781 751 q 535 863 628 863 q 385 819 450 863 q 283 694 319 775 q 246 504 246 614 q 291 268 246 369 q 413 111 336 167 q 585 56 490 56 z "},"R":{"ha":940,"x_min":83,"x_max":947,"o":"m 83 0 l 83 22 l 196 78 l 196 839 l 83 894 l 83 917 l 469 917 q 699 856 615 917 q 783 690 783 796 q 731 553 783 613 q 592 461 678 493 l 854 74 l 947 22 l 947 0 l 724 0 l 457 422 l 342 422 l 342 79 l 446 22 l 446 0 l 83 0 m 424 840 l 342 840 l 342 496 l 432 496 q 574 545 518 496 q 631 671 631 594 q 576 795 631 750 q 424 840 521 840 z "},"S":{"ha":751,"x_min":79,"x_max":676,"o":"m 369 -14 q 220 3 282 -14 q 93 51 158 19 l 79 281 l 101 281 l 175 129 q 271 71 224 89 q 365 53 318 53 q 492 94 446 53 q 539 208 539 136 q 513 299 539 265 q 437 360 488 333 q 313 424 386 388 q 161 523 214 471 q 108 669 108 575 q 133 766 108 719 q 199 849 157 813 q 292 908 240 886 q 399 931 343 931 q 521 915 464 931 q 633 871 578 900 l 647 649 l 625 649 l 553 797 q 472 847 508 832 q 390 863 436 863 q 291 822 331 863 q 251 721 251 782 q 294 614 251 653 q 431 531 336 575 q 569 453 514 490 q 650 371 624 417 q 676 254 676 325 q 649 139 676 189 q 575 55 621 89 q 476 3 529 21 q 369 -14 422 -14 z "},"T":{"ha":944,"x_min":60,"x_max":885,"o":"m 260 0 l 260 22 l 400 78 l 400 840 l 181 840 l 82 631 l 60 631 l 60 917 l 885 917 l 885 631 l 863 631 l 765 840 l 544 840 l 544 78 l 686 22 l 686 0 l 260 0 z "},"U":{"ha":1133,"x_min":83,"x_max":1050,"o":"m 568 -14 q 376 25 461 -14 q 244 147 292 64 q 196 365 196 231 l 196 839 l 83 894 l 83 917 l 454 917 l 454 894 l 342 839 l 342 381 q 378 198 342 265 q 475 101 414 131 q 613 72 536 72 q 726 98 674 72 q 809 181 778 124 q 840 332 840 239 l 840 842 l 704 894 l 704 917 l 1050 917 l 1050 894 l 938 840 l 938 365 q 890 147 938 231 q 758 25 842 64 q 568 -14 675 -14 z "},"V":{"ha":1036,"x_min":43,"x_max":992,"o":"m 494 -7 l 139 844 l 43 894 l 43 917 l 411 917 l 411 894 l 290 842 l 550 217 l 557 217 l 814 846 l 699 894 l 699 917 l 992 917 l 992 894 l 913 851 l 550 -7 l 494 -7 z "},"W":{"ha":1382,"x_min":19,"x_max":1363,"o":"m 383 -7 l 125 843 l 19 894 l 19 917 l 393 917 l 393 894 l 275 843 l 444 257 l 453 257 l 693 924 l 751 924 l 996 257 l 1004 257 l 1172 842 l 1054 894 l 1054 917 l 1363 917 l 1363 894 l 1269 844 l 1008 -7 l 951 -7 l 701 658 l 692 658 l 439 -7 l 383 -7 z "},"X":{"ha":1040,"x_min":46,"x_max":996,"o":"m 46 0 l 46 22 l 147 74 l 443 451 l 154 844 l 65 894 l 65 917 l 439 917 l 439 894 l 328 842 l 328 835 l 543 549 l 768 836 l 768 842 l 661 894 l 661 917 l 961 917 l 961 894 l 872 844 l 590 486 l 897 76 l 996 22 l 996 0 l 615 0 l 615 22 l 717 72 l 717 78 l 489 389 l 251 79 l 251 74 l 363 22 l 363 0 l 46 0 z "},"Y":{"ha":1010,"x_min":43,"x_max":965,"o":"m 313 0 l 313 22 l 438 78 l 438 428 l 131 846 l 43 894 l 43 917 l 401 917 l 401 894 l 300 844 l 300 839 l 546 504 l 768 838 l 768 843 l 665 894 l 665 917 l 965 917 l 965 894 l 875 849 l 582 429 l 582 78 l 707 22 l 707 0 l 313 0 z "},"Z":{"ha":915,"x_min":124,"x_max":792,"o":"m 124 0 l 124 38 l 597 840 l 251 840 l 163 657 l 140 657 l 140 917 l 776 917 l 776 879 l 301 76 l 678 76 l 769 274 l 792 274 l 792 0 l 124 0 z "},"À":{"ha":1050,"x_min":42,"x_max":1008,"o":"m 42 0 l 42 22 l 129 68 l 486 924 l 563 924 l 915 72 l 1008 22 l 1008 0 l 642 0 l 642 22 l 764 71 l 661 321 l 326 321 l 225 69 l 342 22 l 342 0 l 42 0 m 358 397 l 631 397 l 494 732 l 358 397 m 515 986 l 340 1108 q 300 1153 308 1131 q 292 1197 292 1175 l 415 1197 l 535 986 l 515 986 z "},"Á":{"ha":1050,"x_min":42,"x_max":1008,"o":"m 42 0 l 42 22 l 129 68 l 486 924 l 563 924 l 915 72 l 1008 22 l 1008 0 l 642 0 l 642 22 l 764 71 l 661 321 l 326 321 l 225 69 l 342 22 l 342 0 l 42 0 m 358 397 l 631 397 l 494 732 l 358 397 m 517 986 l 636 1197 l 760 1197 q 751 1152 760 1175 q 711 1108 742 1129 l 536 986 l 517 986 z "},"Â":{"ha":1050,"x_min":42,"x_max":1008,"o":"m 42 0 l 42 22 l 129 68 l 486 924 l 563 924 l 915 72 l 1008 22 l 1008 0 l 642 0 l 642 22 l 764 71 l 661 321 l 326 321 l 225 69 l 342 22 l 342 0 l 42 0 m 358 397 l 631 397 l 494 732 l 358 397 m 317 986 l 501 1197 l 549 1197 l 733 986 l 714 986 l 525 1088 l 336 986 l 317 986 z "},"Ã":{"ha":1050,"x_min":42,"x_max":1008,"o":"m 42 0 l 42 22 l 129 68 l 486 924 l 563 924 l 915 72 l 1008 22 l 1008 0 l 642 0 l 642 22 l 764 71 l 661 321 l 326 321 l 225 69 l 342 22 l 342 0 l 42 0 m 358 397 l 631 397 l 494 732 l 358 397 m 310 1007 q 353 1111 333 1076 q 395 1158 374 1146 q 444 1169 417 1169 q 513 1151 482 1169 q 574 1115 544 1133 q 635 1097 603 1097 q 681 1111 661 1097 q 719 1169 701 1125 l 740 1169 q 697 1065 718 1100 q 655 1019 676 1031 q 606 1007 633 1007 q 537 1025 568 1007 q 476 1061 506 1043 q 415 1079 447 1079 q 369 1065 389 1079 q 331 1007 350 1051 l 310 1007 z "},"Ä":{"ha":1050,"x_min":42,"x_max":1008,"o":"m 42 0 l 42 22 l 129 68 l 486 924 l 563 924 l 915 72 l 1008 22 l 1008 0 l 642 0 l 642 22 l 764 71 l 661 321 l 326 321 l 225 69 l 342 22 l 342 0 l 42 0 m 358 397 l 631 397 l 494 732 l 358 397 m 394 1021 q 344 1041 364 1021 q 324 1092 324 1061 q 344 1142 324 1122 q 394 1163 364 1163 q 445 1142 425 1163 q 465 1092 465 1122 q 445 1041 465 1061 q 394 1021 425 1021 m 656 1021 q 604 1041 625 1021 q 583 1092 583 1061 q 604 1142 583 1122 q 656 1163 625 1163 q 706 1142 686 1163 q 726 1092 726 1122 q 706 1041 726 1061 q 656 1021 686 1021 z "},"Ā":{"ha":1050,"x_min":42,"x_max":1008,"o":"m 42 0 l 42 22 l 129 68 l 486 924 l 563 924 l 915 72 l 1008 22 l 1008 0 l 642 0 l 642 22 l 764 71 l 661 321 l 326 321 l 225 69 l 342 22 l 342 0 l 42 0 m 358 397 l 631 397 l 494 732 l 358 397 m 336 1058 l 336 1132 l 714 1132 l 714 1058 l 336 1058 z "},"Ă":{"ha":1050,"x_min":42,"x_max":1008,"o":"m 42 0 l 42 22 l 129 68 l 486 924 l 563 924 l 915 72 l 1008 22 l 1008 0 l 642 0 l 642 22 l 764 71 l 661 321 l 326 321 l 225 69 l 342 22 l 342 0 l 42 0 m 358 397 l 631 397 l 494 732 l 358 397 m 525 986 q 388 1043 433 986 q 318 1197 342 1100 l 336 1197 q 387 1125 361 1150 q 445 1092 413 1100 q 525 1083 478 1083 q 605 1092 572 1083 q 663 1125 638 1100 q 714 1197 689 1150 l 732 1197 q 660 1043 707 1100 q 525 986 614 986 z "},"Å":{"ha":1050,"x_min":42,"x_max":1008,"o":"m 42 0 l 42 22 l 129 68 l 486 924 l 563 924 l 915 72 l 1008 22 l 1008 0 l 642 0 l 642 22 l 764 71 l 661 321 l 326 321 l 225 69 l 342 22 l 342 0 l 42 0 m 358 397 l 631 397 l 494 732 l 358 397 m 525 986 q 438 1019 472 986 q 404 1101 404 1051 q 438 1185 404 1151 q 525 1218 472 1218 q 613 1185 579 1218 q 646 1101 646 1151 q 613 1019 646 1051 q 525 986 579 986 m 532 1019 q 576 1093 576 1019 q 519 1185 576 1185 q 487 1167 497 1185 q 476 1111 476 1150 q 532 1019 476 1019 z "},"Ǻ":{"ha":1050,"x_min":42,"x_max":1008,"o":"m 42 0 l 42 22 l 129 68 l 486 924 l 563 924 l 915 72 l 1008 22 l 1008 0 l 642 0 l 642 22 l 764 71 l 661 321 l 326 321 l 225 69 l 342 22 l 342 0 l 42 0 m 358 397 l 631 397 l 494 732 l 358 397 m 525 986 q 438 1019 472 986 q 404 1101 404 1051 q 438 1185 404 1151 q 525 1218 472 1218 q 613 1185 579 1218 q 646 1101 646 1151 q 613 1019 646 1051 q 525 986 579 986 m 532 1019 q 576 1093 576 1019 q 519 1185 576 1185 q 487 1167 497 1185 q 476 1111 476 1150 q 532 1019 476 1019 m 517 1257 l 636 1468 l 760 1468 q 751 1423 760 1446 q 711 1379 742 1400 l 536 1257 l 517 1257 z "},"Ạ":{"ha":1050,"x_min":42,"x_max":1008,"o":"m 42 0 l 42 22 l 129 68 l 486 924 l 563 924 l 915 72 l 1008 22 l 1008 0 l 642 0 l 642 22 l 764 71 l 661 321 l 326 321 l 225 69 l 342 22 l 342 0 l 42 0 m 358 397 l 631 397 l 494 732 l 358 397 z "},"Ą":{"ha":1050,"x_min":42,"x_max":1008,"o":"m 803 -179 q 826 -247 803 -226 q 890 -268 849 -268 q 923 -265 906 -268 q 958 -250 940 -261 l 964 -250 l 964 -269 q 915 -317 944 -300 q 843 -333 885 -333 q 744 -300 783 -333 q 706 -210 706 -267 q 739 -110 706 -160 q 825 0 772 -60 l 642 0 l 642 22 l 764 71 l 661 321 l 326 321 l 225 69 l 342 22 l 342 0 l 42 0 l 42 22 l 129 71 l 486 924 l 563 924 l 915 72 l 1008 22 l 1008 0 l 864 0 q 817 -95 832 -51 q 803 -179 803 -139 m 358 397 l 631 397 l 494 732 l 358 397 z "},"Ȁ":{"ha":1050,"x_min":42,"x_max":1008,"o":"m 42 0 l 42 22 l 129 68 l 486 924 l 563 924 l 915 72 l 1008 22 l 1008 0 l 642 0 l 642 22 l 764 71 l 661 321 l 326 321 l 225 69 l 342 22 l 342 0 l 42 0 m 358 397 l 631 397 l 494 732 l 358 397 m 431 986 l 285 1110 q 261 1153 261 1129 q 268 1197 261 1176 l 363 1197 l 450 986 l 431 986 m 597 986 l 468 1110 q 444 1154 444 1132 q 451 1197 444 1176 l 544 1197 l 617 986 l 597 986 z "},"Ȃ":{"ha":1050,"x_min":42,"x_max":1008,"o":"m 42 0 l 42 22 l 129 68 l 486 924 l 563 924 l 915 72 l 1008 22 l 1008 0 l 642 0 l 642 22 l 764 71 l 661 321 l 326 321 l 225 69 l 342 22 l 342 0 l 42 0 m 358 397 l 631 397 l 494 732 l 358 397 m 318 986 q 390 1140 343 1083 q 525 1197 436 1197 q 663 1140 617 1197 q 732 986 708 1083 l 714 986 q 663 1058 689 1033 q 605 1092 638 1083 q 525 1100 572 1100 q 445 1092 478 1100 q 387 1058 413 1083 q 336 986 361 1033 l 318 986 z "},"Ắ":{"ha":1050,"x_min":42,"x_max":1008,"o":"m 42 0 l 42 22 l 129 68 l 486 924 l 563 924 l 915 72 l 1008 22 l 1008 0 l 642 0 l 642 22 l 764 71 l 661 321 l 326 321 l 225 69 l 342 22 l 342 0 l 42 0 m 358 397 l 631 397 l 494 732 l 358 397 z "},"Ặ":{"ha":1050,"x_min":42,"x_max":1008,"o":"m 42 0 l 42 22 l 129 68 l 486 924 l 563 924 l 915 72 l 1008 22 l 1008 0 l 642 0 l 642 22 l 764 71 l 661 321 l 326 321 l 225 69 l 342 22 l 342 0 l 42 0 m 358 397 l 631 397 l 494 732 l 358 397 m 525 986 q 388 1043 433 986 q 318 1197 342 1100 l 336 1197 q 387 1125 361 1150 q 445 1092 413 1100 q 525 1083 478 1083 q 605 1092 572 1083 q 663 1125 638 1100 q 714 1197 689 1150 l 732 1197 q 660 1043 707 1100 q 525 986 614 986 z "},"Ằ":{"ha":1050,"x_min":42,"x_max":1008,"o":"m 42 0 l 42 22 l 129 68 l 486 924 l 563 924 l 915 72 l 1008 22 l 1008 0 l 642 0 l 642 22 l 764 71 l 661 321 l 326 321 l 225 69 l 342 22 l 342 0 l 42 0 m 358 397 l 631 397 l 494 732 l 358 397 z "},"Ẳ":{"ha":1050,"x_min":42,"x_max":1008,"o":"m 42 0 l 42 22 l 129 68 l 486 924 l 563 924 l 915 72 l 1008 22 l 1008 0 l 642 0 l 642 22 l 764 71 l 661 321 l 326 321 l 225 69 l 342 22 l 342 0 l 42 0 m 358 397 l 631 397 l 494 732 l 358 397 z "},"Ẵ":{"ha":1050,"x_min":42,"x_max":1008,"o":"m 42 0 l 42 22 l 129 68 l 486 924 l 563 924 l 915 72 l 1008 22 l 1008 0 l 642 0 l 642 22 l 764 71 l 661 321 l 326 321 l 225 69 l 342 22 l 342 0 l 42 0 m 358 397 l 631 397 l 494 732 l 358 397 z "},"Ấ":{"ha":1050,"x_min":42,"x_max":1008,"o":"m 42 0 l 42 22 l 129 68 l 486 924 l 563 924 l 915 72 l 1008 22 l 1008 0 l 642 0 l 642 22 l 764 71 l 661 321 l 326 321 l 225 69 l 342 22 l 342 0 l 42 0 m 358 397 l 631 397 l 494 732 l 358 397 m 676 1118 l 735 1317 l 849 1317 q 813 1246 849 1283 l 692 1118 l 676 1118 m 317 986 l 501 1197 l 549 1197 l 733 986 l 714 986 l 525 1088 l 336 986 l 317 986 z "},"Ậ":{"ha":1050,"x_min":42,"x_max":1008,"o":"m 42 0 l 42 22 l 129 68 l 486 924 l 563 924 l 915 72 l 1008 22 l 1008 0 l 642 0 l 642 22 l 764 71 l 661 321 l 326 321 l 225 69 l 342 22 l 342 0 l 42 0 m 358 397 l 631 397 l 494 732 l 358 397 m 317 986 l 501 1197 l 549 1197 l 733 986 l 714 986 l 525 1088 l 336 986 l 317 986 z "},"Ầ":{"ha":1050,"x_min":42,"x_max":1008,"o":"m 42 0 l 42 22 l 129 68 l 486 924 l 563 924 l 915 72 l 1008 22 l 1008 0 l 642 0 l 642 22 l 764 71 l 661 321 l 326 321 l 225 69 l 342 22 l 342 0 l 42 0 m 358 397 l 631 397 l 494 732 l 358 397 m 358 1118 l 238 1246 q 209 1283 217 1267 q 201 1317 201 1299 l 315 1317 l 374 1118 l 358 1118 m 317 986 l 501 1197 l 549 1197 l 733 986 l 714 986 l 525 1088 l 336 986 l 317 986 z "},"Ẩ":{"ha":1050,"x_min":42,"x_max":1008,"o":"m 42 0 l 42 22 l 129 68 l 486 924 l 563 924 l 915 72 l 1008 22 l 1008 0 l 642 0 l 642 22 l 764 71 l 661 321 l 326 321 l 225 69 l 342 22 l 342 0 l 42 0 m 358 397 l 631 397 l 494 732 l 358 397 z "},"Ẫ":{"ha":1050,"x_min":42,"x_max":1008,"o":"m 42 0 l 42 22 l 129 68 l 486 924 l 563 924 l 915 72 l 1008 22 l 1008 0 l 642 0 l 642 22 l 764 71 l 661 321 l 326 321 l 225 69 l 342 22 l 342 0 l 42 0 m 358 397 l 631 397 l 494 732 l 358 397 z "},"Ả":{"ha":1050,"x_min":42,"x_max":1008,"o":"m 42 0 l 42 22 l 129 68 l 486 924 l 563 924 l 915 72 l 1008 22 l 1008 0 l 642 0 l 642 22 l 764 71 l 661 321 l 326 321 l 225 69 l 342 22 l 342 0 l 42 0 m 358 397 l 631 397 l 494 732 l 358 397 m 460 986 l 460 988 q 528 1019 504 1003 q 553 1068 553 1036 q 530 1107 553 1092 q 447 1133 507 1122 l 463 1215 q 594 1173 557 1207 q 632 1103 632 1139 q 469 975 632 996 l 460 986 z "},"Æ":{"ha":1379,"x_min":35,"x_max":1283,"o":"m 644 917 l 1244 917 l 1244 678 l 1222 678 l 1133 840 l 806 840 l 806 511 l 1036 511 l 1107 628 l 1129 628 l 1129 321 l 1107 321 l 1036 435 l 806 435 l 806 76 l 1171 76 l 1261 260 l 1283 260 l 1283 0 l 547 0 l 547 22 l 660 78 l 660 325 l 376 325 l 224 69 l 335 22 l 335 0 l 35 0 l 35 22 l 124 69 l 644 917 m 422 401 l 660 401 l 660 799 l 422 401 z "},"Ǽ":{"ha":1379,"x_min":35,"x_max":1283,"o":"m 644 917 l 1244 917 l 1244 678 l 1222 678 l 1133 840 l 806 840 l 806 511 l 1036 511 l 1107 628 l 1129 628 l 1129 321 l 1107 321 l 1036 435 l 806 435 l 806 76 l 1171 76 l 1261 260 l 1283 260 l 1283 0 l 547 0 l 547 22 l 660 78 l 660 325 l 376 325 l 224 69 l 335 22 l 335 0 l 35 0 l 35 22 l 124 69 l 644 917 m 422 401 l 660 401 l 660 799 l 422 401 m 743 986 l 863 1197 l 986 1197 q 977 1152 986 1175 q 938 1108 968 1129 l 763 986 l 743 986 z "},"Ć":{"ha":1003,"x_min":90,"x_max":883,"o":"m 556 -14 q 308 44 413 -14 q 147 204 204 103 q 90 435 90 306 q 129 624 90 535 q 235 782 168 713 q 390 891 303 851 q 576 931 478 931 q 696 922 647 931 q 783 898 744 913 q 860 864 821 883 l 868 617 l 843 617 l 747 797 q 662 846 700 831 q 576 861 624 861 q 404 811 481 861 q 284 673 328 761 q 240 469 240 585 q 283 248 240 340 q 397 107 325 156 q 557 58 469 58 q 678 78 629 58 q 767 124 728 97 l 860 279 l 883 279 l 867 56 q 736 6 806 25 q 556 -14 667 -14 m 532 986 l 651 1197 l 775 1197 q 766 1152 775 1175 q 726 1108 757 1129 l 551 986 l 532 986 z "},"Ĉ":{"ha":1003,"x_min":90,"x_max":883,"o":"m 556 -14 q 308 44 413 -14 q 147 204 204 103 q 90 435 90 306 q 129 624 90 535 q 235 782 168 713 q 390 891 303 851 q 576 931 478 931 q 696 922 647 931 q 783 898 744 913 q 860 864 821 883 l 868 617 l 843 617 l 747 797 q 662 846 700 831 q 576 861 624 861 q 404 811 481 861 q 284 673 328 761 q 240 469 240 585 q 283 248 240 340 q 397 107 325 156 q 557 58 469 58 q 678 78 629 58 q 767 124 728 97 l 860 279 l 883 279 l 867 56 q 736 6 806 25 q 556 -14 667 -14 m 333 986 l 518 1197 l 565 1197 l 750 986 l 731 986 l 542 1088 l 353 986 l 333 986 z "},"Č":{"ha":1003,"x_min":90,"x_max":883,"o":"m 556 -14 q 308 44 413 -14 q 147 204 204 103 q 90 435 90 306 q 129 624 90 535 q 235 782 168 713 q 390 891 303 851 q 576 931 478 931 q 696 922 647 931 q 783 898 744 913 q 860 864 821 883 l 868 617 l 843 617 l 747 797 q 662 846 700 831 q 576 861 624 861 q 404 811 481 861 q 284 673 328 761 q 240 469 240 585 q 283 248 240 340 q 397 107 325 156 q 557 58 469 58 q 678 78 629 58 q 767 124 728 97 l 860 279 l 883 279 l 867 56 q 736 6 806 25 q 556 -14 667 -14 m 518 986 l 333 1197 l 353 1197 l 542 1096 l 731 1197 l 750 1197 l 565 986 l 518 986 z "},"Ċ":{"ha":1003,"x_min":90,"x_max":883,"o":"m 556 -14 q 308 44 413 -14 q 147 204 204 103 q 90 435 90 306 q 129 624 90 535 q 235 782 168 713 q 390 891 303 851 q 576 931 478 931 q 696 922 647 931 q 783 898 744 913 q 860 864 821 883 l 868 617 l 843 617 l 747 797 q 662 846 700 831 q 576 861 624 861 q 404 811 481 861 q 284 673 328 761 q 240 469 240 585 q 283 248 240 340 q 397 107 325 156 q 557 58 469 58 q 678 78 629 58 q 767 124 728 97 l 860 279 l 883 279 l 867 56 q 736 6 806 25 q 556 -14 667 -14 m 542 1007 q 480 1033 506 1007 q 454 1094 454 1058 q 480 1156 454 1131 q 542 1182 506 1182 q 603 1156 578 1182 q 629 1094 629 1131 q 603 1033 629 1058 q 542 1007 578 1007 z "},"Ç":{"ha":1003,"x_min":90,"x_max":883,"o":"m 529 -292 q 587 -276 569 -292 q 604 -237 604 -261 q 576 -187 604 -207 q 465 -143 547 -168 l 525 -12 q 293 53 390 -7 q 143 211 196 113 q 90 435 90 310 q 129 624 90 535 q 235 782 168 713 q 390 891 303 851 q 576 931 478 931 q 696 922 647 931 q 783 898 744 913 q 860 864 821 883 l 868 617 l 843 617 l 747 797 q 662 846 700 831 q 576 861 624 861 q 404 811 481 861 q 284 673 328 761 q 240 469 240 585 q 283 248 240 340 q 397 107 325 156 q 557 58 469 58 q 678 78 629 58 q 767 124 728 97 l 860 279 l 883 279 l 867 56 q 743 6 808 25 q 575 -14 678 -12 l 547 -72 q 660 -128 628 -97 q 692 -212 692 -158 q 656 -299 692 -264 q 554 -333 619 -333 q 439 -293 478 -333 l 439 -275 l 444 -275 q 529 -292 481 -292 z "},"Ḉ":{"ha":1003,"x_min":90,"x_max":883,"o":"m 532 986 l 651 1197 l 775 1197 q 767 1152 775 1175 q 726 1108 758 1129 l 551 986 l 532 986 m 554 -333 q 439 -293 478 -333 l 439 -275 l 444 -275 q 529 -292 481 -292 q 587 -276 569 -292 q 604 -237 604 -261 q 576 -187 604 -207 q 465 -143 547 -168 l 525 -12 q 293 53 390 -7 q 143 211 196 113 q 90 435 90 310 q 129 624 90 535 q 235 782 168 713 q 390 891 303 851 q 576 931 478 931 q 696 922 647 931 q 783 898 744 913 q 860 864 821 883 l 868 617 l 843 617 l 747 797 q 662 846 700 831 q 576 861 624 861 q 404 811 481 861 q 284 673 328 761 q 240 469 240 585 q 283 248 240 340 q 397 107 325 156 q 557 58 469 58 q 678 78 629 58 q 767 124 728 97 l 860 279 l 883 279 l 867 56 q 743 6 808 25 q 575 -14 678 -12 l 547 -72 q 660 -128 628 -97 q 692 -212 692 -158 q 656 -299 692 -264 q 554 -333 619 -333 z "},"Ď":{"ha":1085,"x_min":83,"x_max":996,"o":"m 83 0 l 83 22 l 196 78 l 196 839 l 83 894 l 83 917 l 506 917 q 771 863 661 917 q 938 714 881 808 q 996 500 996 619 q 958 300 996 392 q 853 142 921 208 q 695 38 786 75 q 496 0 604 0 l 83 0 m 468 840 l 342 840 l 342 76 l 489 76 q 679 123 600 76 q 801 255 758 169 q 844 457 844 340 q 801 659 844 572 q 673 793 757 746 q 468 840 589 840 m 517 986 l 332 1197 l 351 1197 l 540 1096 l 729 1197 l 749 1197 l 564 986 l 517 986 z "},"Đ":{"ha":1085,"x_min":83,"x_max":996,"o":"m 83 0 l 83 22 l 196 78 l 196 440 l 83 440 l 83 510 l 196 510 l 196 839 l 83 894 l 83 917 l 506 917 q 771 863 661 917 q 938 714 881 808 q 996 500 996 619 q 958 300 996 392 q 853 142 921 208 q 695 38 786 75 q 496 0 604 0 l 83 0 m 576 440 l 342 440 l 342 76 l 489 76 q 679 123 600 76 q 801 255 758 169 q 844 457 844 340 q 801 659 844 572 q 673 793 757 746 q 468 840 589 840 l 342 840 l 342 510 l 576 510 l 576 440 z "},"Ḍ":{"ha":1085,"x_min":83,"x_max":996,"o":"m 83 0 l 83 22 l 196 78 l 196 839 l 83 894 l 83 917 l 506 917 q 771 863 661 917 q 938 714 881 808 q 996 500 996 619 q 958 300 996 392 q 853 142 921 208 q 695 38 786 75 q 496 0 604 0 l 83 0 m 468 840 l 342 840 l 342 76 l 489 76 q 679 123 600 76 q 801 255 758 169 q 844 457 844 340 q 801 659 844 572 q 673 793 757 746 q 468 840 589 840 z "},"Ḏ":{"ha":1085,"x_min":83,"x_max":996,"o":"m 83 0 l 83 22 l 196 78 l 196 839 l 83 894 l 83 917 l 506 917 q 771 863 661 917 q 938 714 881 808 q 996 500 996 619 q 958 300 996 392 q 853 142 921 208 q 695 38 786 75 q 496 0 604 0 l 83 0 m 468 840 l 342 840 l 342 76 l 489 76 q 679 123 600 76 q 801 255 758 169 q 844 457 844 340 q 801 659 844 572 q 673 793 757 746 q 468 840 589 840 z "},"È":{"ha":915,"x_min":83,"x_max":819,"o":"m 83 0 l 83 22 l 196 78 l 196 839 l 83 894 l 83 917 l 781 917 l 781 678 l 758 678 l 668 840 l 342 840 l 342 511 l 572 511 l 643 628 l 665 628 l 665 321 l 643 321 l 572 435 l 342 435 l 342 76 l 706 76 l 797 260 l 819 260 l 819 0 l 83 0 m 461 986 l 286 1108 q 246 1153 254 1131 q 238 1197 238 1175 l 361 1197 l 481 986 l 461 986 z "},"É":{"ha":915,"x_min":83,"x_max":819,"o":"m 83 0 l 83 22 l 196 78 l 196 839 l 83 894 l 83 917 l 781 917 l 781 678 l 758 678 l 668 840 l 342 840 l 342 511 l 572 511 l 643 628 l 665 628 l 665 321 l 643 321 l 572 435 l 342 435 l 342 76 l 706 76 l 797 260 l 819 260 l 819 0 l 83 0 m 463 986 l 582 1197 l 706 1197 q 697 1152 706 1175 q 657 1108 688 1129 l 482 986 l 463 986 z "},"Ê":{"ha":915,"x_min":83,"x_max":819,"o":"m 83 0 l 83 22 l 196 78 l 196 839 l 83 894 l 83 917 l 781 917 l 781 678 l 758 678 l 668 840 l 342 840 l 342 511 l 572 511 l 643 628 l 665 628 l 665 321 l 643 321 l 572 435 l 342 435 l 342 76 l 706 76 l 797 260 l 819 260 l 819 0 l 83 0 m 263 986 l 447 1197 l 494 1197 l 679 986 l 660 986 l 471 1088 l 282 986 l 263 986 z "},"Ě":{"ha":915,"x_min":83,"x_max":819,"o":"m 83 0 l 83 22 l 196 78 l 196 839 l 83 894 l 83 917 l 781 917 l 781 678 l 758 678 l 668 840 l 342 840 l 342 511 l 572 511 l 643 628 l 665 628 l 665 321 l 643 321 l 572 435 l 342 435 l 342 76 l 706 76 l 797 260 l 819 260 l 819 0 l 83 0 m 447 986 l 263 1197 l 282 1197 l 471 1096 l 660 1197 l 679 1197 l 494 986 l 447 986 z "},"Ẽ":{"ha":915,"x_min":83,"x_max":819,"o":"m 83 0 l 83 22 l 196 78 l 196 839 l 83 894 l 83 917 l 781 917 l 781 678 l 758 678 l 668 840 l 342 840 l 342 511 l 572 511 l 643 628 l 665 628 l 665 321 l 643 321 l 572 435 l 342 435 l 342 76 l 706 76 l 797 260 l 819 260 l 819 0 l 83 0 m 256 1007 q 299 1111 279 1076 q 341 1158 319 1146 q 390 1169 363 1169 q 459 1151 428 1169 q 519 1115 490 1133 q 581 1097 549 1097 q 627 1111 607 1097 q 665 1169 647 1125 l 686 1169 q 643 1065 664 1100 q 601 1019 622 1031 q 551 1007 579 1007 q 483 1025 514 1007 q 422 1061 451 1043 q 361 1079 393 1079 q 315 1065 335 1079 q 276 1007 296 1051 l 256 1007 z "},"Ë":{"ha":915,"x_min":83,"x_max":819,"o":"m 83 0 l 83 22 l 196 78 l 196 839 l 83 894 l 83 917 l 781 917 l 781 678 l 758 678 l 668 840 l 342 840 l 342 511 l 572 511 l 643 628 l 665 628 l 665 321 l 643 321 l 572 435 l 342 435 l 342 76 l 706 76 l 797 260 l 819 260 l 819 0 l 83 0 m 342 1021 q 291 1041 311 1021 q 271 1092 271 1061 q 291 1142 271 1122 q 342 1163 311 1163 q 392 1142 372 1163 q 413 1092 413 1122 q 392 1041 413 1061 q 342 1021 372 1021 m 603 1021 q 551 1041 572 1021 q 531 1092 531 1061 q 551 1142 531 1122 q 603 1163 572 1163 q 653 1142 633 1163 q 674 1092 674 1122 q 653 1041 674 1061 q 603 1021 633 1021 z "},"Ē":{"ha":915,"x_min":83,"x_max":819,"o":"m 83 0 l 83 22 l 196 78 l 196 839 l 83 894 l 83 917 l 781 917 l 781 678 l 758 678 l 668 840 l 342 840 l 342 511 l 572 511 l 643 628 l 665 628 l 665 321 l 643 321 l 572 435 l 342 435 l 342 76 l 706 76 l 797 260 l 819 260 l 819 0 l 83 0 m 282 1058 l 282 1132 l 660 1132 l 660 1058 l 282 1058 z "},"Ĕ":{"ha":915,"x_min":83,"x_max":819,"o":"m 83 0 l 83 22 l 196 78 l 196 839 l 83 894 l 83 917 l 781 917 l 781 678 l 758 678 l 668 840 l 342 840 l 342 511 l 572 511 l 643 628 l 665 628 l 665 321 l 643 321 l 572 435 l 342 435 l 342 76 l 706 76 l 797 260 l 819 260 l 819 0 l 83 0 m 471 986 q 333 1043 379 986 q 264 1197 288 1100 l 282 1197 q 333 1125 307 1150 q 391 1092 358 1100 q 471 1083 424 1083 q 551 1092 518 1083 q 609 1125 583 1100 q 660 1197 635 1150 l 678 1197 q 606 1043 653 1100 q 471 986 560 986 z "},"Ė":{"ha":915,"x_min":83,"x_max":819,"o":"m 83 0 l 83 22 l 196 78 l 196 839 l 83 894 l 83 917 l 781 917 l 781 678 l 758 678 l 668 840 l 342 840 l 342 511 l 572 511 l 643 628 l 665 628 l 665 321 l 643 321 l 572 435 l 342 435 l 342 76 l 706 76 l 797 260 l 819 260 l 819 0 l 83 0 m 471 1007 q 409 1033 435 1007 q 383 1094 383 1058 q 409 1156 383 1131 q 471 1182 435 1182 q 533 1156 507 1182 q 558 1094 558 1131 q 533 1033 558 1058 q 471 1007 507 1007 z "},"Ę":{"ha":915,"x_min":83,"x_max":819,"o":"m 83 0 l 83 22 l 196 78 l 196 839 l 83 894 l 83 917 l 781 917 l 781 678 l 758 678 l 668 840 l 342 840 l 342 511 l 572 511 l 643 628 l 665 628 l 665 321 l 643 321 l 572 435 l 342 435 l 342 76 l 706 76 l 797 260 l 819 260 l 819 0 l 718 0 q 672 -95 686 -51 q 657 -179 657 -139 q 680 -247 657 -226 q 744 -268 703 -268 q 777 -265 760 -268 q 813 -250 794 -261 l 818 -250 l 818 -269 q 769 -317 800 -300 q 697 -333 739 -333 q 598 -300 636 -333 q 560 -210 560 -267 q 593 -110 560 -160 q 679 0 626 -60 l 83 0 z "},"Ẹ":{"ha":915,"x_min":83,"x_max":819,"o":"m 83 0 l 83 22 l 196 78 l 196 839 l 83 894 l 83 917 l 781 917 l 781 678 l 758 678 l 668 840 l 342 840 l 342 511 l 572 511 l 643 628 l 665 628 l 665 321 l 643 321 l 572 435 l 342 435 l 342 76 l 706 76 l 797 260 l 819 260 l 819 0 l 83 0 z "},"Ȅ":{"ha":915,"x_min":83,"x_max":819,"o":"m 83 0 l 83 22 l 196 78 l 196 839 l 83 894 l 83 917 l 781 917 l 781 678 l 758 678 l 668 840 l 342 840 l 342 511 l 572 511 l 643 628 l 665 628 l 665 321 l 643 321 l 572 435 l 342 435 l 342 76 l 706 76 l 797 260 l 819 260 l 819 0 l 83 0 m 376 986 l 231 1110 q 207 1153 207 1129 q 214 1197 207 1176 l 308 1197 l 396 986 l 376 986 m 543 986 l 414 1110 q 390 1154 390 1132 q 397 1197 390 1176 l 490 1197 l 563 986 l 543 986 z "},"Ȇ":{"ha":915,"x_min":83,"x_max":819,"o":"m 83 0 l 83 22 l 196 78 l 196 839 l 83 894 l 83 917 l 781 917 l 781 678 l 758 678 l 668 840 l 342 840 l 342 511 l 572 511 l 643 628 l 665 628 l 665 321 l 643 321 l 572 435 l 342 435 l 342 76 l 706 76 l 797 260 l 819 260 l 819 0 l 83 0 m 264 986 q 335 1140 289 1083 q 471 1197 382 1197 q 608 1140 563 1197 q 678 986 654 1083 l 660 986 q 609 1058 635 1033 q 551 1092 583 1083 q 471 1100 518 1100 q 391 1092 424 1100 q 333 1058 358 1083 q 282 986 307 1033 l 264 986 z "},"Ế":{"ha":915,"x_min":83,"x_max":819,"o":"m 83 0 l 83 22 l 196 78 l 196 839 l 83 894 l 83 917 l 781 917 l 781 678 l 758 678 l 668 840 l 342 840 l 342 511 l 572 511 l 643 628 l 665 628 l 665 321 l 643 321 l 572 435 l 342 435 l 342 76 l 706 76 l 797 260 l 819 260 l 819 0 l 83 0 m 622 1118 l 681 1317 l 794 1317 q 758 1246 794 1283 l 638 1118 l 622 1118 m 263 986 l 447 1197 l 494 1197 l 679 986 l 660 986 l 471 1088 l 282 986 l 263 986 z "},"Ệ":{"ha":915,"x_min":83,"x_max":819,"o":"m 83 0 l 83 22 l 196 78 l 196 839 l 83 894 l 83 917 l 781 917 l 781 678 l 758 678 l 668 840 l 342 840 l 342 511 l 572 511 l 643 628 l 665 628 l 665 321 l 643 321 l 572 435 l 342 435 l 342 76 l 706 76 l 797 260 l 819 260 l 819 0 l 83 0 m 263 986 l 447 1197 l 494 1197 l 679 986 l 660 986 l 471 1088 l 282 986 l 263 986 z "},"Ề":{"ha":915,"x_min":83,"x_max":819,"o":"m 83 0 l 83 22 l 196 78 l 196 839 l 83 894 l 83 917 l 781 917 l 781 678 l 758 678 l 668 840 l 342 840 l 342 511 l 572 511 l 643 628 l 665 628 l 665 321 l 643 321 l 572 435 l 342 435 l 342 76 l 706 76 l 797 260 l 819 260 l 819 0 l 83 0 m 304 1118 l 183 1246 q 155 1283 163 1267 q 147 1317 147 1299 l 261 1317 l 319 1118 l 304 1118 m 263 986 l 447 1197 l 494 1197 l 679 986 l 660 986 l 471 1088 l 282 986 l 263 986 z "},"Ể":{"ha":915,"x_min":83,"x_max":819,"o":"m 83 0 l 83 22 l 196 78 l 196 839 l 83 894 l 83 917 l 781 917 l 781 678 l 758 678 l 668 840 l 342 840 l 342 511 l 572 511 l 643 628 l 665 628 l 665 321 l 643 321 l 572 435 l 342 435 l 342 76 l 706 76 l 797 260 l 819 260 l 819 0 l 83 0 z "},"Ễ":{"ha":915,"x_min":83,"x_max":819,"o":"m 83 0 l 83 22 l 196 78 l 196 839 l 83 894 l 83 917 l 781 917 l 781 678 l 758 678 l 668 840 l 342 840 l 342 511 l 572 511 l 643 628 l 665 628 l 665 321 l 643 321 l 572 435 l 342 435 l 342 76 l 706 76 l 797 260 l 819 260 l 819 0 l 83 0 z "},"Ẻ":{"ha":915,"x_min":83,"x_max":819,"o":"m 83 0 l 83 22 l 196 78 l 196 839 l 83 894 l 83 917 l 781 917 l 781 678 l 758 678 l 668 840 l 342 840 l 342 511 l 572 511 l 643 628 l 665 628 l 665 321 l 643 321 l 572 435 l 342 435 l 342 76 l 706 76 l 797 260 l 819 260 l 819 0 l 83 0 m 406 986 l 406 988 q 474 1019 450 1003 q 499 1068 499 1036 q 476 1107 499 1092 q 393 1133 453 1122 l 408 1215 q 540 1173 503 1207 q 578 1103 578 1139 q 415 975 578 996 l 406 986 z "},"Ḕ":{"ha":915,"x_min":83,"x_max":819,"o":"m 83 0 l 83 22 l 196 78 l 196 839 l 83 894 l 83 917 l 781 917 l 781 678 l 758 678 l 668 840 l 342 840 l 342 511 l 572 511 l 643 628 l 665 628 l 665 321 l 643 321 l 572 435 l 342 435 l 342 76 l 706 76 l 797 260 l 819 260 l 819 0 l 83 0 z "},"Ḗ":{"ha":915,"x_min":83,"x_max":819,"o":"m 83 0 l 83 22 l 196 78 l 196 839 l 83 894 l 83 917 l 781 917 l 781 678 l 758 678 l 668 840 l 342 840 l 342 511 l 572 511 l 643 628 l 665 628 l 665 321 l 643 321 l 572 435 l 342 435 l 342 76 l 706 76 l 797 260 l 819 260 l 819 0 l 83 0 z "},"Ḝ":{"ha":915,"x_min":83,"x_max":819,"o":"m 471 986 q 333 1043 379 986 q 264 1197 288 1100 l 283 1197 q 333 1125 308 1150 q 392 1092 358 1100 q 471 1083 425 1083 q 551 1092 518 1083 q 609 1125 583 1100 q 660 1197 635 1150 l 679 1197 q 608 1043 654 1100 q 471 986 561 986 m 83 0 l 83 22 l 196 78 l 196 839 l 83 894 l 83 917 l 781 917 l 781 678 l 758 678 l 668 840 l 342 840 l 342 511 l 572 511 l 643 628 l 665 628 l 665 321 l 643 321 l 572 435 l 342 435 l 342 76 l 706 76 l 797 260 l 819 260 l 819 0 l 515 0 l 482 -72 q 594 -128 563 -97 q 626 -212 626 -158 q 590 -299 626 -264 q 489 -333 554 -333 q 374 -293 413 -333 l 374 -275 l 378 -275 q 464 -292 415 -292 q 522 -276 504 -292 q 539 -237 539 -261 q 510 -187 539 -207 q 400 -143 482 -168 l 465 0 l 83 0 z "},"Ĝ":{"ha":1063,"x_min":90,"x_max":1000,"o":"m 557 -14 q 372 19 457 -14 q 224 113 286 53 q 126 256 161 174 q 90 435 90 338 q 130 632 90 542 q 239 790 169 722 q 399 894 308 857 q 592 931 489 931 q 717 922 665 931 q 809 899 768 914 q 889 864 850 883 l 897 631 l 875 631 l 775 797 q 682 847 721 833 q 592 861 643 861 q 408 814 489 861 q 282 683 328 767 q 236 493 236 600 q 285 263 236 358 q 415 116 333 167 q 597 65 496 65 q 677 70 638 65 q 757 89 717 75 l 757 326 l 633 383 l 633 406 l 1000 406 l 1000 383 l 903 322 l 903 103 q 803 41 861 67 q 681 1 744 15 q 557 -14 617 -14 m 349 986 l 533 1197 l 581 1197 l 765 986 l 746 986 l 557 1088 l 368 986 l 349 986 z "},"Ğ":{"ha":1063,"x_min":90,"x_max":1000,"o":"m 557 -14 q 372 19 457 -14 q 224 113 286 53 q 126 256 161 174 q 90 435 90 338 q 130 632 90 542 q 239 790 169 722 q 399 894 308 857 q 592 931 489 931 q 717 922 665 931 q 809 899 768 914 q 889 864 850 883 l 897 631 l 875 631 l 775 797 q 682 847 721 833 q 592 861 643 861 q 408 814 489 861 q 282 683 328 767 q 236 493 236 600 q 285 263 236 358 q 415 116 333 167 q 597 65 496 65 q 677 70 638 65 q 757 89 717 75 l 757 326 l 633 383 l 633 406 l 1000 406 l 1000 383 l 903 322 l 903 103 q 803 41 861 67 q 681 1 744 15 q 557 -14 617 -14 m 557 986 q 419 1043 465 986 q 350 1197 374 1100 l 368 1197 q 419 1125 393 1150 q 477 1092 444 1100 q 557 1083 510 1083 q 637 1092 604 1083 q 695 1125 669 1100 q 746 1197 721 1150 l 764 1197 q 692 1043 739 1100 q 557 986 646 986 z "},"Ġ":{"ha":1063,"x_min":90,"x_max":1000,"o":"m 557 -14 q 372 19 457 -14 q 224 113 286 53 q 126 256 161 174 q 90 435 90 338 q 130 632 90 542 q 239 790 169 722 q 399 894 308 857 q 592 931 489 931 q 717 922 665 931 q 809 899 768 914 q 889 864 850 883 l 897 631 l 875 631 l 775 797 q 682 847 721 833 q 592 861 643 861 q 408 814 489 861 q 282 683 328 767 q 236 493 236 600 q 285 263 236 358 q 415 116 333 167 q 597 65 496 65 q 677 70 638 65 q 757 89 717 75 l 757 326 l 633 383 l 633 406 l 1000 406 l 1000 383 l 903 322 l 903 103 q 803 41 861 67 q 681 1 744 15 q 557 -14 617 -14 m 557 1007 q 495 1033 521 1007 q 469 1094 469 1058 q 495 1156 469 1131 q 557 1182 521 1182 q 619 1156 593 1182 q 644 1094 644 1131 q 619 1033 644 1058 q 557 1007 593 1007 z "},"Ģ":{"ha":1063,"x_min":90,"x_max":1000,"o":"m 557 -14 q 372 19 457 -14 q 224 113 286 53 q 126 256 161 174 q 90 435 90 338 q 130 632 90 542 q 239 790 169 722 q 399 894 308 857 q 592 931 489 931 q 717 922 665 931 q 809 899 768 914 q 889 864 850 883 l 897 631 l 875 631 l 775 797 q 682 847 721 833 q 592 861 643 861 q 408 814 489 861 q 282 683 328 767 q 236 493 236 600 q 285 263 236 358 q 415 116 333 167 q 597 65 496 65 q 677 70 638 65 q 757 89 717 75 l 757 326 l 633 383 l 633 406 l 1000 406 l 1000 383 l 903 322 l 903 103 q 803 41 861 67 q 681 1 744 15 q 557 -14 617 -14 m 588 986 q 444 1096 444 986 q 488 1181 444 1151 q 597 1211 531 1211 q 621 1210 608 1211 q 642 1206 633 1208 l 642 1185 q 624 1188 633 1186 q 607 1189 614 1189 q 550 1176 571 1189 q 529 1136 529 1164 q 557 1090 529 1101 q 643 1079 585 1079 l 643 1015 q 631 994 643 1003 q 588 986 619 986 z "},"Ǧ":{"ha":1063,"x_min":90,"x_max":1000,"o":"m 557 -14 q 372 19 457 -14 q 224 113 286 53 q 126 256 161 174 q 90 435 90 338 q 130 632 90 542 q 239 790 169 722 q 399 894 308 857 q 592 931 489 931 q 717 922 665 931 q 809 899 768 914 q 889 864 850 883 l 897 631 l 875 631 l 775 797 q 682 847 721 833 q 592 861 643 861 q 408 814 489 861 q 282 683 328 767 q 236 493 236 600 q 285 263 236 358 q 415 116 333 167 q 597 65 496 65 q 677 70 638 65 q 757 89 717 75 l 757 326 l 633 383 l 633 406 l 1000 406 l 1000 383 l 903 322 l 903 103 q 803 41 861 67 q 681 1 744 15 q 557 -14 617 -14 m 533 986 l 349 1197 l 368 1197 l 557 1096 l 746 1197 l 765 1197 l 581 986 l 533 986 z "},"Ḡ":{"ha":1063,"x_min":90,"x_max":1000,"o":"m 557 -14 q 372 19 457 -14 q 224 113 286 53 q 126 256 161 174 q 90 435 90 338 q 130 632 90 542 q 239 790 169 722 q 399 894 308 857 q 592 931 489 931 q 717 922 665 931 q 809 899 768 914 q 889 864 850 883 l 897 631 l 875 631 l 775 797 q 682 847 721 833 q 592 861 643 861 q 408 814 489 861 q 282 683 328 767 q 236 493 236 600 q 285 263 236 358 q 415 116 333 167 q 597 65 496 65 q 677 70 638 65 q 757 89 717 75 l 757 326 l 633 383 l 633 406 l 1000 406 l 1000 383 l 903 322 l 903 103 q 803 41 861 67 q 681 1 744 15 q 557 -14 617 -14 m 368 1058 l 368 1132 l 746 1132 l 746 1058 l 368 1058 z "},"Ĥ":{"ha":1133,"x_min":83,"x_max":1050,"o":"m 83 0 l 83 22 l 196 78 l 196 839 l 83 894 l 83 917 l 451 917 l 451 894 l 342 839 l 342 511 l 793 511 l 793 839 l 682 894 l 682 917 l 1050 917 l 1050 894 l 938 839 l 938 78 l 1050 22 l 1050 0 l 682 0 l 682 22 l 793 78 l 793 435 l 342 435 l 342 78 l 451 22 l 451 0 l 83 0 m 358 986 l 543 1197 l 590 1197 l 775 986 l 756 986 l 567 1088 l 378 986 l 358 986 z "},"Ħ":{"ha":1133,"x_min":83,"x_max":1050,"o":"m 83 0 l 83 22 l 196 78 l 196 653 l 83 653 l 83 724 l 196 724 l 196 839 l 83 894 l 83 917 l 451 917 l 451 894 l 342 839 l 342 724 l 793 724 l 793 839 l 682 894 l 682 917 l 1050 917 l 1050 894 l 938 839 l 938 724 l 1050 724 l 1050 653 l 938 653 l 938 78 l 1050 22 l 1050 0 l 682 0 l 682 22 l 793 78 l 793 435 l 342 435 l 342 78 l 451 22 l 451 0 l 83 0 m 342 511 l 793 511 l 793 653 l 342 653 l 342 511 z "},"Ḥ":{"ha":1133,"x_min":83,"x_max":1050,"o":"m 83 0 l 83 22 l 196 78 l 196 839 l 83 894 l 83 917 l 451 917 l 451 894 l 342 839 l 342 511 l 793 511 l 793 839 l 682 894 l 682 917 l 1050 917 l 1050 894 l 938 839 l 938 78 l 1050 22 l 1050 0 l 682 0 l 682 22 l 793 78 l 793 435 l 342 435 l 342 78 l 451 22 l 451 0 l 83 0 z "},"Ḫ":{"ha":1133,"x_min":83,"x_max":1050,"o":"m 83 0 l 83 22 l 196 78 l 196 839 l 83 894 l 83 917 l 451 917 l 451 894 l 342 839 l 342 511 l 793 511 l 793 839 l 682 894 l 682 917 l 1050 917 l 1050 894 l 938 839 l 938 78 l 1050 22 l 1050 0 l 682 0 l 682 22 l 793 78 l 793 435 l 342 435 l 342 78 l 451 22 l 451 0 l 83 0 z "},"Ì":{"ha":549,"x_min":40,"x_max":460,"o":"m 89 0 l 89 22 l 203 78 l 203 839 l 89 894 l 89 917 l 460 917 l 460 894 l 347 839 l 347 78 l 460 22 l 460 0 l 89 0 m 264 986 l 89 1108 q 49 1153 57 1131 q 40 1197 40 1175 l 164 1197 l 283 986 l 264 986 z "},"Í":{"ha":549,"x_min":89,"x_max":508,"o":"m 89 0 l 89 22 l 203 78 l 203 839 l 89 894 l 89 917 l 460 917 l 460 894 l 347 839 l 347 78 l 460 22 l 460 0 l 89 0 m 265 986 l 385 1197 l 508 1197 q 499 1152 508 1175 q 460 1108 490 1129 l 285 986 l 265 986 z "},"Î":{"ha":549,"x_min":67,"x_max":483,"o":"m 89 0 l 89 22 l 203 78 l 203 839 l 89 894 l 89 917 l 460 917 l 460 894 l 347 839 l 347 78 l 460 22 l 460 0 l 89 0 m 67 986 l 251 1197 l 299 1197 l 483 986 l 464 986 l 275 1088 l 86 986 l 67 986 z "},"Ĩ":{"ha":549,"x_min":60,"x_max":490,"o":"m 89 0 l 89 22 l 203 78 l 203 839 l 89 894 l 89 917 l 460 917 l 460 894 l 347 839 l 347 78 l 460 22 l 460 0 l 89 0 m 60 1007 q 103 1111 83 1076 q 145 1158 124 1146 q 194 1169 167 1169 q 263 1151 232 1169 q 324 1115 294 1133 q 385 1097 353 1097 q 431 1111 411 1097 q 469 1169 451 1125 l 490 1169 q 447 1065 468 1100 q 405 1019 426 1031 q 356 1007 383 1007 q 287 1025 318 1007 q 226 1061 256 1043 q 165 1079 197 1079 q 119 1065 139 1079 q 81 1007 100 1051 l 60 1007 z "},"Ï":{"ha":549,"x_min":74,"x_max":476,"o":"m 89 0 l 89 22 l 203 78 l 203 839 l 89 894 l 89 917 l 460 917 l 460 894 l 347 839 l 347 78 l 460 22 l 460 0 l 89 0 m 144 1021 q 94 1041 114 1021 q 74 1092 74 1061 q 94 1142 74 1122 q 144 1163 114 1163 q 195 1142 175 1163 q 215 1092 215 1122 q 195 1041 215 1061 q 144 1021 175 1021 m 406 1021 q 354 1041 375 1021 q 333 1092 333 1061 q 354 1142 333 1122 q 406 1163 375 1163 q 456 1142 436 1163 q 476 1092 476 1122 q 456 1041 476 1061 q 406 1021 436 1021 z "},"Ī":{"ha":549,"x_min":86,"x_max":464,"o":"m 89 0 l 89 22 l 203 78 l 203 839 l 89 894 l 89 917 l 460 917 l 460 894 l 347 839 l 347 78 l 460 22 l 460 0 l 89 0 m 86 1058 l 86 1132 l 464 1132 l 464 1058 l 86 1058 z "},"Ĭ":{"ha":549,"x_min":68,"x_max":482,"o":"m 89 0 l 89 22 l 203 78 l 203 839 l 89 894 l 89 917 l 460 917 l 460 894 l 347 839 l 347 78 l 460 22 l 460 0 l 89 0 m 275 986 q 138 1043 183 986 q 68 1197 92 1100 l 86 1197 q 137 1125 111 1150 q 195 1092 163 1100 q 275 1083 228 1083 q 355 1092 322 1083 q 413 1125 388 1100 q 464 1197 439 1150 l 482 1197 q 410 1043 457 1100 q 275 986 364 986 z "},"İ":{"ha":549,"x_min":89,"x_max":460,"o":"m 89 0 l 89 22 l 203 78 l 203 839 l 89 894 l 89 917 l 460 917 l 460 894 l 347 839 l 347 78 l 460 22 l 460 0 l 89 0 m 275 1007 q 213 1033 239 1007 q 188 1094 188 1058 q 213 1156 188 1131 q 275 1182 239 1182 q 337 1156 311 1182 q 363 1094 363 1131 q 337 1033 363 1058 q 275 1007 311 1007 z "},"Į":{"ha":549,"x_min":89,"x_max":460,"o":"m 89 0 l 89 22 l 203 78 l 203 839 l 89 894 l 89 917 l 460 917 l 460 894 l 347 839 l 347 78 l 460 22 l 460 0 l 304 0 q 258 -95 272 -51 q 243 -179 243 -139 q 266 -247 243 -226 q 331 -268 289 -268 q 363 -265 346 -268 q 399 -250 381 -261 l 404 -250 l 404 -269 q 356 -317 386 -300 q 283 -333 325 -333 q 184 -300 222 -333 q 146 -210 146 -267 q 179 -110 146 -160 q 265 0 213 -60 l 89 0 z "},"Ị":{"ha":549,"x_min":89,"x_max":460,"o":"m 89 0 l 89 22 l 203 78 l 203 839 l 89 894 l 89 917 l 460 917 l 460 894 l 347 839 l 347 78 l 460 22 l 460 0 l 89 0 z "},"Ȉ":{"ha":549,"x_min":11,"x_max":460,"o":"m 89 0 l 89 22 l 203 78 l 203 839 l 89 894 l 89 917 l 460 917 l 460 894 l 347 839 l 347 78 l 460 22 l 460 0 l 89 0 m 181 986 l 35 1110 q 11 1153 11 1129 q 18 1197 11 1176 l 113 1197 l 200 986 l 181 986 m 347 986 l 218 1110 q 194 1154 194 1132 q 201 1197 194 1176 l 294 1197 l 367 986 l 347 986 z "},"Ȋ":{"ha":549,"x_min":68,"x_max":482,"o":"m 89 0 l 89 22 l 203 78 l 203 839 l 89 894 l 89 917 l 460 917 l 460 894 l 347 839 l 347 78 l 460 22 l 460 0 l 89 0 m 68 986 q 140 1140 93 1083 q 275 1197 186 1197 q 413 1140 367 1197 q 482 986 458 1083 l 464 986 q 413 1058 439 1033 q 355 1092 388 1083 q 275 1100 322 1100 q 195 1092 228 1100 q 137 1058 163 1083 q 86 986 111 1033 l 68 986 z "},"Ỉ":{"ha":549,"x_min":89,"x_max":460,"o":"m 89 0 l 89 22 l 203 78 l 203 839 l 89 894 l 89 917 l 460 917 l 460 894 l 347 839 l 347 78 l 460 22 l 460 0 l 89 0 m 208 986 l 208 988 q 277 1019 253 1003 q 301 1068 301 1036 q 278 1107 301 1092 q 196 1133 256 1122 l 211 1215 q 343 1173 306 1207 q 381 1103 381 1139 q 218 975 381 996 l 208 986 z "},"Ḯ":{"ha":549,"x_min":74,"x_max":507,"o":"m 89 0 l 89 22 l 203 78 l 203 839 l 89 894 l 89 917 l 460 917 l 460 894 l 347 839 l 347 78 l 460 22 l 460 0 l 89 0 z "},"Ĳ":{"ha":1104,"x_min":89,"x_max":1015,"o":"m 89 0 l 89 22 l 203 78 l 203 839 l 89 894 l 89 917 l 460 917 l 460 894 l 347 839 l 347 78 l 460 22 l 460 0 l 89 0 m 617 -240 q 585 -232 599 -240 q 571 -201 571 -224 q 574 -181 571 -196 q 586 -119 576 -167 l 594 -119 q 632 -128 618 -125 q 664 -132 646 -132 q 714 -119 693 -132 q 746 -62 735 -106 q 757 71 757 -19 l 757 839 l 644 894 l 644 917 l 1015 917 l 1015 894 l 901 839 l 901 335 q 870 54 901 178 q 779 -135 839 -69 q 715 -200 740 -178 q 668 -231 690 -222 q 617 -240 646 -240 z "},"Ĵ":{"ha":556,"x_min":22,"x_max":489,"o":"m 68 -240 q 36 -232 50 -240 q 22 -201 22 -224 q 25 -181 22 -196 q 38 -119 28 -167 l 46 -119 q 83 -128 69 -125 q 115 -132 97 -132 q 165 -119 144 -132 q 197 -62 186 -106 q 208 71 208 -19 l 208 839 l 96 894 l 96 917 l 467 917 l 467 894 l 353 839 l 353 335 q 322 54 353 178 q 231 -135 290 -69 q 167 -200 192 -178 q 119 -231 142 -222 q 68 -240 97 -240 m 72 986 l 257 1197 l 304 1197 l 489 986 l 469 986 l 281 1088 l 92 986 l 72 986 z "},"Ķ":{"ha":1017,"x_min":83,"x_max":999,"o":"m 83 0 l 83 22 l 196 78 l 196 839 l 83 894 l 83 917 l 454 917 l 454 894 l 342 839 l 342 78 l 454 22 l 454 0 l 83 0 m 342 468 l 725 847 l 626 894 l 626 917 l 926 917 l 926 894 l 839 860 l 483 511 l 911 60 l 999 22 l 999 0 l 772 0 l 342 468 m 497 -332 q 474 -331 486 -332 q 451 -328 461 -331 l 451 -306 q 470 -309 460 -308 q 488 -310 481 -310 q 544 -297 524 -310 q 565 -257 565 -283 q 538 -212 565 -224 q 450 -200 510 -200 l 450 -136 q 463 -115 450 -124 q 507 -107 475 -107 q 615 -135 581 -107 q 650 -217 650 -164 q 607 -302 650 -272 q 497 -332 564 -332 z "},"Ĺ":{"ha":883,"x_min":83,"x_max":792,"o":"m 83 0 l 83 22 l 196 78 l 196 839 l 83 894 l 83 917 l 468 917 l 468 894 l 342 839 l 342 76 l 671 76 l 769 315 l 792 315 l 792 0 l 83 0 m 260 986 l 379 1197 l 503 1197 q 494 1152 503 1175 q 454 1108 485 1129 l 279 986 l 260 986 z "},"Ľ":{"ha":883,"x_min":83,"x_max":792,"o":"m 83 0 l 83 22 l 196 78 l 196 839 l 83 894 l 83 917 l 468 917 l 468 894 l 342 839 l 342 76 l 671 76 l 769 315 l 792 315 l 792 0 l 83 0 m 586 657 l 614 917 l 725 917 q 728 876 729 897 q 710 826 728 856 l 604 657 l 586 657 z "},"Ļ":{"ha":883,"x_min":83,"x_max":792,"o":"m 83 0 l 83 22 l 196 78 l 196 839 l 83 894 l 83 917 l 468 917 l 468 894 l 342 839 l 342 76 l 671 76 l 769 315 l 792 315 l 792 0 l 83 0 m 443 -332 q 419 -331 432 -332 q 397 -328 407 -331 l 397 -306 q 416 -309 406 -308 q 433 -310 426 -310 q 490 -297 469 -310 q 511 -257 511 -283 q 483 -212 511 -224 q 396 -200 456 -200 l 396 -136 q 408 -115 396 -124 q 453 -107 421 -107 q 561 -135 526 -107 q 596 -217 596 -164 q 553 -302 596 -272 q 443 -332 510 -332 z "},"Ł":{"ha":883,"x_min":83,"x_max":792,"o":"m 83 0 l 83 22 l 196 78 l 196 338 l 85 260 l 85 344 l 196 421 l 196 839 l 83 894 l 83 917 l 468 917 l 468 894 l 342 839 l 342 503 l 544 640 l 544 557 l 342 418 l 342 76 l 671 76 l 769 315 l 792 315 l 792 0 l 83 0 z "},"Ŀ":{"ha":883,"x_min":83,"x_max":792,"o":"m 83 0 l 83 22 l 196 78 l 196 839 l 83 894 l 83 917 l 468 917 l 468 894 l 342 839 l 342 76 l 671 76 l 769 315 l 792 315 l 792 0 l 83 0 m 690 396 q 628 422 654 396 q 603 483 603 447 q 628 545 603 519 q 690 571 654 571 q 752 545 726 571 q 778 483 778 519 q 752 422 778 447 q 690 396 726 396 z "},"Ḷ":{"ha":883,"x_min":83,"x_max":792,"o":"m 83 0 l 83 22 l 196 78 l 196 839 l 83 894 l 83 917 l 468 917 l 468 894 l 342 839 l 342 76 l 671 76 l 769 315 l 792 315 l 792 0 l 83 0 z "},"Ḻ":{"ha":883,"x_min":83,"x_max":792,"o":"m 83 0 l 83 22 l 196 78 l 196 839 l 83 894 l 83 917 l 468 917 l 468 894 l 342 839 l 342 76 l 671 76 l 769 315 l 792 315 l 792 0 l 83 0 z "},"Ṃ":{"ha":1344,"x_min":78,"x_max":1267,"o":"m 78 0 l 78 22 l 189 78 l 218 839 l 99 894 l 99 917 l 375 917 l 686 199 l 996 917 l 1261 917 l 1261 894 l 1143 843 l 1167 78 l 1267 22 l 1267 0 l 924 0 l 924 22 l 1028 76 l 1014 756 l 686 -7 l 619 -7 l 294 747 l 276 76 l 392 22 l 392 0 l 78 0 z "},"Ń":{"ha":1115,"x_min":78,"x_max":1038,"o":"m 78 0 l 78 22 l 190 78 l 190 836 l 79 894 l 79 917 l 297 917 l 829 263 l 829 840 l 686 894 l 686 917 l 1038 917 l 1038 894 l 926 840 l 926 -7 l 867 -7 l 288 704 l 288 76 l 431 22 l 431 0 l 78 0 m 561 986 l 681 1197 l 804 1197 q 795 1152 804 1175 q 756 1108 786 1129 l 581 986 l 561 986 z "},"Ň":{"ha":1115,"x_min":78,"x_max":1038,"o":"m 78 0 l 78 22 l 190 78 l 190 836 l 79 894 l 79 917 l 297 917 l 829 263 l 829 840 l 686 894 l 686 917 l 1038 917 l 1038 894 l 926 840 l 926 -7 l 867 -7 l 288 704 l 288 76 l 431 22 l 431 0 l 78 0 m 547 986 l 363 1197 l 382 1197 l 571 1096 l 760 1197 l 779 1197 l 594 986 l 547 986 z "},"Ñ":{"ha":1115,"x_min":78,"x_max":1038,"o":"m 78 0 l 78 22 l 190 78 l 190 836 l 79 894 l 79 917 l 297 917 l 829 263 l 829 840 l 686 894 l 686 917 l 1038 917 l 1038 894 l 926 840 l 926 -7 l 867 -7 l 288 704 l 288 76 l 431 22 l 431 0 l 78 0 m 356 1007 q 399 1111 379 1076 q 441 1158 419 1146 q 490 1169 463 1169 q 559 1151 528 1169 q 619 1115 590 1133 q 681 1097 649 1097 q 727 1111 707 1097 q 765 1169 747 1125 l 786 1169 q 743 1065 764 1100 q 701 1019 722 1031 q 651 1007 679 1007 q 583 1025 614 1007 q 522 1061 551 1043 q 461 1079 493 1079 q 415 1065 435 1079 q 376 1007 396 1051 l 356 1007 z "},"Ņ":{"ha":1115,"x_min":78,"x_max":1038,"o":"m 78 0 l 78 22 l 190 78 l 190 836 l 79 894 l 79 917 l 297 917 l 829 263 l 829 840 l 686 894 l 686 917 l 1038 917 l 1038 894 l 926 840 l 926 -7 l 867 -7 l 288 704 l 288 76 l 431 22 l 431 0 l 78 0 m 532 -332 q 508 -331 521 -332 q 486 -328 496 -331 l 486 -306 q 505 -309 494 -308 q 522 -310 515 -310 q 579 -297 558 -310 q 600 -257 600 -283 q 572 -212 600 -224 q 485 -200 544 -200 l 485 -136 q 497 -115 485 -124 q 542 -107 510 -107 q 650 -135 615 -107 q 685 -217 685 -164 q 642 -302 685 -272 q 532 -332 599 -332 z "},"Ṅ":{"ha":1115,"x_min":78,"x_max":1038,"o":"m 78 0 l 78 22 l 190 78 l 190 836 l 79 894 l 79 917 l 297 917 l 829 263 l 829 840 l 686 894 l 686 917 l 1038 917 l 1038 894 l 926 840 l 926 -7 l 867 -7 l 288 704 l 288 76 l 431 22 l 431 0 l 78 0 m 571 1007 q 509 1033 535 1007 q 483 1094 483 1058 q 509 1156 483 1131 q 571 1182 535 1182 q 633 1156 607 1182 q 658 1094 658 1131 q 633 1033 658 1058 q 571 1007 607 1007 z "},"Ṇ":{"ha":1115,"x_min":78,"x_max":1038,"o":"m 78 0 l 78 22 l 190 78 l 190 836 l 79 894 l 79 917 l 297 917 l 829 263 l 829 840 l 686 894 l 686 917 l 1038 917 l 1038 894 l 926 840 l 926 -7 l 867 -7 l 288 704 l 288 76 l 431 22 l 431 0 l 78 0 z "},"Ṉ":{"ha":1115,"x_min":78,"x_max":1038,"o":"m 78 0 l 78 22 l 190 78 l 190 836 l 79 894 l 79 917 l 297 917 l 829 263 l 829 840 l 686 894 l 686 917 l 1038 917 l 1038 894 l 926 840 l 926 -7 l 867 -7 l 288 704 l 288 76 l 431 22 l 431 0 l 78 0 z "},"Ò":{"ha":1115,"x_min":90,"x_max":1025,"o":"m 557 -14 q 372 22 457 -14 q 223 120 286 57 q 125 269 160 183 q 90 458 90 356 q 125 647 90 561 q 223 797 160 733 q 372 895 286 860 q 557 931 457 931 q 742 895 657 931 q 891 797 828 860 q 990 647 954 733 q 1025 458 1025 561 q 990 269 1025 356 q 891 120 954 183 q 742 22 828 57 q 557 -14 657 -14 m 585 56 q 733 100 669 56 q 833 225 797 144 q 869 415 869 306 q 825 651 869 550 q 704 807 781 751 q 535 863 628 863 q 385 819 450 863 q 283 694 319 775 q 246 504 246 614 q 291 268 246 369 q 413 111 336 167 q 585 56 490 56 m 532 986 l 357 1108 q 317 1153 325 1131 q 308 1197 308 1175 l 432 1197 l 551 986 l 532 986 z "},"Ó":{"ha":1115,"x_min":90,"x_max":1025,"o":"m 557 -14 q 372 22 457 -14 q 223 120 286 57 q 125 269 160 183 q 90 458 90 356 q 125 647 90 561 q 223 797 160 733 q 372 895 286 860 q 557 931 457 931 q 742 895 657 931 q 891 797 828 860 q 990 647 954 733 q 1025 458 1025 561 q 990 269 1025 356 q 891 120 954 183 q 742 22 828 57 q 557 -14 657 -14 m 585 56 q 733 100 669 56 q 833 225 797 144 q 869 415 869 306 q 825 651 869 550 q 704 807 781 751 q 535 863 628 863 q 385 819 450 863 q 283 694 319 775 q 246 504 246 614 q 291 268 246 369 q 413 111 336 167 q 585 56 490 56 m 533 986 l 653 1197 l 776 1197 q 767 1152 776 1175 q 728 1108 758 1129 l 553 986 l 533 986 z "},"Ô":{"ha":1115,"x_min":90,"x_max":1025,"o":"m 557 -14 q 372 22 457 -14 q 223 120 286 57 q 125 269 160 183 q 90 458 90 356 q 125 647 90 561 q 223 797 160 733 q 372 895 286 860 q 557 931 457 931 q 742 895 657 931 q 891 797 828 860 q 990 647 954 733 q 1025 458 1025 561 q 990 269 1025 356 q 891 120 954 183 q 742 22 828 57 q 557 -14 657 -14 m 585 56 q 733 100 669 56 q 833 225 797 144 q 869 415 869 306 q 825 651 869 550 q 704 807 781 751 q 535 863 628 863 q 385 819 450 863 q 283 694 319 775 q 246 504 246 614 q 291 268 246 369 q 413 111 336 167 q 585 56 490 56 m 335 986 l 519 1197 l 567 1197 l 751 986 l 732 986 l 543 1088 l 354 986 l 335 986 z "},"Õ":{"ha":1115,"x_min":90,"x_max":1025,"o":"m 557 -14 q 372 22 457 -14 q 223 120 286 57 q 125 269 160 183 q 90 458 90 356 q 125 647 90 561 q 223 797 160 733 q 372 895 286 860 q 557 931 457 931 q 742 895 657 931 q 891 797 828 860 q 990 647 954 733 q 1025 458 1025 561 q 990 269 1025 356 q 891 120 954 183 q 742 22 828 57 q 557 -14 657 -14 m 585 56 q 733 100 669 56 q 833 225 797 144 q 869 415 869 306 q 825 651 869 550 q 704 807 781 751 q 535 863 628 863 q 385 819 450 863 q 283 694 319 775 q 246 504 246 614 q 291 268 246 369 q 413 111 336 167 q 585 56 490 56 m 328 1007 q 372 1111 351 1076 q 413 1158 392 1146 q 463 1169 435 1169 q 531 1151 500 1169 q 592 1115 563 1133 q 653 1097 621 1097 q 699 1111 679 1097 q 738 1169 719 1125 l 758 1169 q 715 1065 736 1100 q 673 1019 694 1031 q 624 1007 651 1007 q 555 1025 586 1007 q 494 1061 524 1043 q 433 1079 465 1079 q 388 1065 407 1079 q 349 1007 368 1051 l 328 1007 z "},"Ö":{"ha":1115,"x_min":90,"x_max":1025,"o":"m 557 -14 q 372 22 457 -14 q 223 120 286 57 q 125 269 160 183 q 90 458 90 356 q 125 647 90 561 q 223 797 160 733 q 372 895 286 860 q 557 931 457 931 q 742 895 657 931 q 891 797 828 860 q 990 647 954 733 q 1025 458 1025 561 q 990 269 1025 356 q 891 120 954 183 q 742 22 828 57 q 557 -14 657 -14 m 585 56 q 733 100 669 56 q 833 225 797 144 q 869 415 869 306 q 825 651 869 550 q 704 807 781 751 q 535 863 628 863 q 385 819 450 863 q 283 694 319 775 q 246 504 246 614 q 291 268 246 369 q 413 111 336 167 q 585 56 490 56 m 413 1021 q 362 1041 382 1021 q 342 1092 342 1061 q 362 1142 342 1122 q 413 1163 382 1163 q 463 1142 443 1163 q 483 1092 483 1122 q 463 1041 483 1061 q 413 1021 443 1021 m 674 1021 q 622 1041 643 1021 q 601 1092 601 1061 q 622 1142 601 1122 q 674 1163 643 1163 q 724 1142 704 1163 q 744 1092 744 1122 q 724 1041 744 1061 q 674 1021 704 1021 z "},"Ō":{"ha":1115,"x_min":90,"x_max":1025,"o":"m 557 -14 q 372 22 457 -14 q 223 120 286 57 q 125 269 160 183 q 90 458 90 356 q 125 647 90 561 q 223 797 160 733 q 372 895 286 860 q 557 931 457 931 q 742 895 657 931 q 891 797 828 860 q 990 647 954 733 q 1025 458 1025 561 q 990 269 1025 356 q 891 120 954 183 q 742 22 828 57 q 557 -14 657 -14 m 585 56 q 733 100 669 56 q 833 225 797 144 q 869 415 869 306 q 825 651 869 550 q 704 807 781 751 q 535 863 628 863 q 385 819 450 863 q 283 694 319 775 q 246 504 246 614 q 291 268 246 369 q 413 111 336 167 q 585 56 490 56 m 354 1058 l 354 1132 l 732 1132 l 732 1058 l 354 1058 z "},"Ŏ":{"ha":1115,"x_min":90,"x_max":1025,"o":"m 557 -14 q 372 22 457 -14 q 223 120 286 57 q 125 269 160 183 q 90 458 90 356 q 125 647 90 561 q 223 797 160 733 q 372 895 286 860 q 557 931 457 931 q 742 895 657 931 q 891 797 828 860 q 990 647 954 733 q 1025 458 1025 561 q 990 269 1025 356 q 891 120 954 183 q 742 22 828 57 q 557 -14 657 -14 m 585 56 q 733 100 669 56 q 833 225 797 144 q 869 415 869 306 q 825 651 869 550 q 704 807 781 751 q 535 863 628 863 q 385 819 450 863 q 283 694 319 775 q 246 504 246 614 q 291 268 246 369 q 413 111 336 167 q 585 56 490 56 m 543 986 q 406 1043 451 986 q 336 1197 360 1100 l 354 1197 q 405 1125 379 1150 q 463 1092 431 1100 q 543 1083 496 1083 q 623 1092 590 1083 q 681 1125 656 1100 q 732 1197 707 1150 l 750 1197 q 678 1043 725 1100 q 543 986 632 986 z "},"Ő":{"ha":1115,"x_min":90,"x_max":1025,"o":"m 557 -14 q 372 22 457 -14 q 223 120 286 57 q 125 269 160 183 q 90 458 90 356 q 125 647 90 561 q 223 797 160 733 q 372 895 286 860 q 557 931 457 931 q 742 895 657 931 q 891 797 828 860 q 990 647 954 733 q 1025 458 1025 561 q 990 269 1025 356 q 891 120 954 183 q 742 22 828 57 q 557 -14 657 -14 m 585 56 q 733 100 669 56 q 833 225 797 144 q 869 415 869 306 q 825 651 869 550 q 704 807 781 751 q 535 863 628 863 q 385 819 450 863 q 283 694 319 775 q 246 504 246 614 q 291 268 246 369 q 413 111 336 167 q 585 56 490 56 m 450 986 l 515 1197 l 608 1197 q 615 1154 615 1176 q 592 1110 614 1132 l 468 986 l 450 986 m 615 986 l 697 1197 l 790 1197 q 797 1153 797 1176 q 774 1110 797 1131 l 635 986 l 615 986 z "},"Ọ":{"ha":1115,"x_min":90,"x_max":1025,"o":"m 557 -14 q 372 22 457 -14 q 223 120 286 57 q 125 269 160 183 q 90 458 90 356 q 125 647 90 561 q 223 797 160 733 q 372 895 286 860 q 557 931 457 931 q 742 895 657 931 q 891 797 828 860 q 990 647 954 733 q 1025 458 1025 561 q 990 269 1025 356 q 891 120 954 183 q 742 22 828 57 q 557 -14 657 -14 m 585 56 q 733 100 669 56 q 833 225 797 144 q 869 415 869 306 q 825 651 869 550 q 704 807 781 751 q 535 863 628 863 q 385 819 450 863 q 283 694 319 775 q 246 504 246 614 q 291 268 246 369 q 413 111 336 167 q 585 56 490 56 z "},"Ǫ":{"ha":1115,"x_min":90,"x_max":1025,"o":"m 581 -333 q 481 -300 519 -333 q 443 -210 443 -267 q 473 -116 443 -162 q 550 -14 503 -69 q 314 49 418 -12 q 150 217 210 111 q 90 458 90 324 q 125 647 90 561 q 223 797 160 733 q 372 895 286 860 q 557 931 457 931 q 742 895 657 931 q 891 797 828 860 q 990 647 954 733 q 1025 458 1025 561 q 969 226 1025 329 q 816 59 914 122 q 594 -12 718 -4 q 539 -179 539 -104 q 562 -247 539 -226 q 628 -268 585 -268 q 660 -265 643 -268 q 696 -250 678 -261 l 700 -250 l 700 -269 q 581 -333 663 -333 m 585 56 q 733 100 669 56 q 833 225 797 144 q 869 415 869 306 q 825 651 869 550 q 704 807 781 751 q 535 863 628 863 q 385 819 450 863 q 283 694 319 775 q 246 504 246 614 q 291 268 246 369 q 413 111 336 167 q 585 56 490 56 z "},"Ȍ":{"ha":1115,"x_min":90,"x_max":1025,"o":"m 557 -14 q 372 22 457 -14 q 223 120 286 57 q 125 269 160 183 q 90 458 90 356 q 125 647 90 561 q 223 797 160 733 q 372 895 286 860 q 557 931 457 931 q 742 895 657 931 q 891 797 828 860 q 990 647 954 733 q 1025 458 1025 561 q 990 269 1025 356 q 891 120 954 183 q 742 22 828 57 q 557 -14 657 -14 m 585 56 q 733 100 669 56 q 833 225 797 144 q 869 415 869 306 q 825 651 869 550 q 704 807 781 751 q 535 863 628 863 q 385 819 450 863 q 283 694 319 775 q 246 504 246 614 q 291 268 246 369 q 413 111 336 167 q 585 56 490 56 m 449 986 l 303 1110 q 279 1153 279 1129 q 286 1197 279 1176 l 381 1197 l 468 986 l 449 986 m 615 986 l 486 1110 q 463 1154 463 1132 q 469 1197 463 1176 l 563 1197 l 635 986 l 615 986 z "},"Ȏ":{"ha":1115,"x_min":90,"x_max":1025,"o":"m 557 -14 q 372 22 457 -14 q 223 120 286 57 q 125 269 160 183 q 90 458 90 356 q 125 647 90 561 q 223 797 160 733 q 372 895 286 860 q 557 931 457 931 q 742 895 657 931 q 891 797 828 860 q 990 647 954 733 q 1025 458 1025 561 q 990 269 1025 356 q 891 120 954 183 q 742 22 828 57 q 557 -14 657 -14 m 585 56 q 733 100 669 56 q 833 225 797 144 q 869 415 869 306 q 825 651 869 550 q 704 807 781 751 q 535 863 628 863 q 385 819 450 863 q 283 694 319 775 q 246 504 246 614 q 291 268 246 369 q 413 111 336 167 q 585 56 490 56 m 336 986 q 408 1140 361 1083 q 543 1197 454 1197 q 681 1140 635 1197 q 750 986 726 1083 l 732 986 q 681 1058 707 1033 q 623 1092 656 1083 q 543 1100 590 1100 q 463 1092 496 1100 q 405 1058 431 1083 q 354 986 379 1033 l 336 986 z "},"Ȫ":{"ha":1115,"x_min":90,"x_max":1025,"o":"m 557 -14 q 372 22 457 -14 q 223 120 286 57 q 125 269 160 183 q 90 458 90 356 q 125 647 90 561 q 223 797 160 733 q 372 895 286 860 q 557 931 457 931 q 742 895 657 931 q 891 797 828 860 q 990 647 954 733 q 1025 458 1025 561 q 990 269 1025 356 q 891 120 954 183 q 742 22 828 57 q 557 -14 657 -14 m 585 56 q 733 100 669 56 q 833 225 797 144 q 869 415 869 306 q 825 651 869 550 q 704 807 781 751 q 535 863 628 863 q 385 819 450 863 q 283 694 319 775 q 246 504 246 614 q 291 268 246 369 q 413 111 336 167 q 585 56 490 56 z "},"Ȭ":{"ha":1115,"x_min":90,"x_max":1025,"o":"m 557 -14 q 372 22 457 -14 q 223 120 286 57 q 125 269 160 183 q 90 458 90 356 q 125 647 90 561 q 223 797 160 733 q 372 895 286 860 q 557 931 457 931 q 742 895 657 931 q 891 797 828 860 q 990 647 954 733 q 1025 458 1025 561 q 990 269 1025 356 q 891 120 954 183 q 742 22 828 57 q 557 -14 657 -14 m 585 56 q 733 100 669 56 q 833 225 797 144 q 869 415 869 306 q 825 651 869 550 q 704 807 781 751 q 535 863 628 863 q 385 819 450 863 q 283 694 319 775 q 246 504 246 614 q 291 268 246 369 q 413 111 336 167 q 585 56 490 56 z "},"Ȱ":{"ha":1115,"x_min":90,"x_max":1025,"o":"m 557 -14 q 372 22 457 -14 q 223 120 286 57 q 125 269 160 183 q 90 458 90 356 q 125 647 90 561 q 223 797 160 733 q 372 895 286 860 q 557 931 457 931 q 742 895 657 931 q 891 797 828 860 q 990 647 954 733 q 1025 458 1025 561 q 990 269 1025 356 q 891 120 954 183 q 742 22 828 57 q 557 -14 657 -14 m 585 56 q 733 100 669 56 q 833 225 797 144 q 869 415 869 306 q 825 651 869 550 q 704 807 781 751 q 535 863 628 863 q 385 819 450 863 q 283 694 319 775 q 246 504 246 614 q 291 268 246 369 q 413 111 336 167 q 585 56 490 56 z "},"Ố":{"ha":1115,"x_min":90,"x_max":1025,"o":"m 557 -14 q 372 22 457 -14 q 223 120 286 57 q 125 269 160 183 q 90 458 90 356 q 125 647 90 561 q 223 797 160 733 q 372 895 286 860 q 557 931 457 931 q 742 895 657 931 q 891 797 828 860 q 990 647 954 733 q 1025 458 1025 561 q 990 269 1025 356 q 891 120 954 183 q 742 22 828 57 q 557 -14 657 -14 m 585 56 q 733 100 669 56 q 833 225 797 144 q 869 415 869 306 q 825 651 869 550 q 704 807 781 751 q 535 863 628 863 q 385 819 450 863 q 283 694 319 775 q 246 504 246 614 q 291 268 246 369 q 413 111 336 167 q 585 56 490 56 m 694 1118 l 753 1317 l 867 1317 q 831 1246 867 1283 l 710 1118 l 694 1118 m 335 986 l 519 1197 l 567 1197 l 751 986 l 732 986 l 543 1088 l 354 986 l 335 986 z "},"Ộ":{"ha":1115,"x_min":90,"x_max":1025,"o":"m 557 -14 q 372 22 457 -14 q 223 120 286 57 q 125 269 160 183 q 90 458 90 356 q 125 647 90 561 q 223 797 160 733 q 372 895 286 860 q 557 931 457 931 q 742 895 657 931 q 891 797 828 860 q 990 647 954 733 q 1025 458 1025 561 q 990 269 1025 356 q 891 120 954 183 q 742 22 828 57 q 557 -14 657 -14 m 585 56 q 733 100 669 56 q 833 225 797 144 q 869 415 869 306 q 825 651 869 550 q 704 807 781 751 q 535 863 628 863 q 385 819 450 863 q 283 694 319 775 q 246 504 246 614 q 291 268 246 369 q 413 111 336 167 q 585 56 490 56 m 335 986 l 519 1197 l 567 1197 l 751 986 l 732 986 l 543 1088 l 354 986 l 335 986 z "},"Ồ":{"ha":1115,"x_min":90,"x_max":1025,"o":"m 557 -14 q 372 22 457 -14 q 223 120 286 57 q 125 269 160 183 q 90 458 90 356 q 125 647 90 561 q 223 797 160 733 q 372 895 286 860 q 557 931 457 931 q 742 895 657 931 q 891 797 828 860 q 990 647 954 733 q 1025 458 1025 561 q 990 269 1025 356 q 891 120 954 183 q 742 22 828 57 q 557 -14 657 -14 m 585 56 q 733 100 669 56 q 833 225 797 144 q 869 415 869 306 q 825 651 869 550 q 704 807 781 751 q 535 863 628 863 q 385 819 450 863 q 283 694 319 775 q 246 504 246 614 q 291 268 246 369 q 413 111 336 167 q 585 56 490 56 m 376 1118 l 256 1246 q 227 1283 235 1267 q 219 1317 219 1299 l 333 1317 l 392 1118 l 376 1118 m 335 986 l 519 1197 l 567 1197 l 751 986 l 732 986 l 543 1088 l 354 986 l 335 986 z "},"Ổ":{"ha":1115,"x_min":90,"x_max":1025,"o":"m 557 -14 q 372 22 457 -14 q 223 120 286 57 q 125 269 160 183 q 90 458 90 356 q 125 647 90 561 q 223 797 160 733 q 372 895 286 860 q 557 931 457 931 q 742 895 657 931 q 891 797 828 860 q 990 647 954 733 q 1025 458 1025 561 q 990 269 1025 356 q 891 120 954 183 q 742 22 828 57 q 557 -14 657 -14 m 585 56 q 733 100 669 56 q 833 225 797 144 q 869 415 869 306 q 825 651 869 550 q 704 807 781 751 q 535 863 628 863 q 385 819 450 863 q 283 694 319 775 q 246 504 246 614 q 291 268 246 369 q 413 111 336 167 q 585 56 490 56 z "},"Ỗ":{"ha":1115,"x_min":90,"x_max":1025,"o":"m 557 -14 q 372 22 457 -14 q 223 120 286 57 q 125 269 160 183 q 90 458 90 356 q 125 647 90 561 q 223 797 160 733 q 372 895 286 860 q 557 931 457 931 q 742 895 657 931 q 891 797 828 860 q 990 647 954 733 q 1025 458 1025 561 q 990 269 1025 356 q 891 120 954 183 q 742 22 828 57 q 557 -14 657 -14 m 585 56 q 733 100 669 56 q 833 225 797 144 q 869 415 869 306 q 825 651 869 550 q 704 807 781 751 q 535 863 628 863 q 385 819 450 863 q 283 694 319 775 q 246 504 246 614 q 291 268 246 369 q 413 111 336 167 q 585 56 490 56 z "},"Ỏ":{"ha":1115,"x_min":90,"x_max":1025,"o":"m 557 -14 q 372 22 457 -14 q 223 120 286 57 q 125 269 160 183 q 90 458 90 356 q 125 647 90 561 q 223 797 160 733 q 372 895 286 860 q 557 931 457 931 q 742 895 657 931 q 891 797 828 860 q 990 647 954 733 q 1025 458 1025 561 q 990 269 1025 356 q 891 120 954 183 q 742 22 828 57 q 557 -14 657 -14 m 585 56 q 733 100 669 56 q 833 225 797 144 q 869 415 869 306 q 825 651 869 550 q 704 807 781 751 q 535 863 628 863 q 385 819 450 863 q 283 694 319 775 q 246 504 246 614 q 291 268 246 369 q 413 111 336 167 q 585 56 490 56 m 476 986 l 476 988 q 545 1019 521 1003 q 569 1068 569 1036 q 547 1107 569 1092 q 464 1133 524 1122 l 479 1215 q 611 1173 574 1207 q 649 1103 649 1139 q 486 975 649 996 l 476 986 z "},"Ṍ":{"ha":1115,"x_min":90,"x_max":1025,"o":"m 557 -14 q 372 22 457 -14 q 223 120 286 57 q 125 269 160 183 q 90 458 90 356 q 125 647 90 561 q 223 797 160 733 q 372 895 286 860 q 557 931 457 931 q 742 895 657 931 q 891 797 828 860 q 990 647 954 733 q 1025 458 1025 561 q 990 269 1025 356 q 891 120 954 183 q 742 22 828 57 q 557 -14 657 -14 m 585 56 q 733 100 669 56 q 833 225 797 144 q 869 415 869 306 q 825 651 869 550 q 704 807 781 751 q 535 863 628 863 q 385 819 450 863 q 283 694 319 775 q 246 504 246 614 q 291 268 246 369 q 413 111 336 167 q 585 56 490 56 z "},"Ṏ":{"ha":1115,"x_min":90,"x_max":1025,"o":"m 557 -14 q 372 22 457 -14 q 223 120 286 57 q 125 269 160 183 q 90 458 90 356 q 125 647 90 561 q 223 797 160 733 q 372 895 286 860 q 557 931 457 931 q 742 895 657 931 q 891 797 828 860 q 990 647 954 733 q 1025 458 1025 561 q 990 269 1025 356 q 891 120 954 183 q 742 22 828 57 q 557 -14 657 -14 m 585 56 q 733 100 669 56 q 833 225 797 144 q 869 415 869 306 q 825 651 869 550 q 704 807 781 751 q 535 863 628 863 q 385 819 450 863 q 283 694 319 775 q 246 504 246 614 q 291 268 246 369 q 413 111 336 167 q 585 56 490 56 z "},"Ṑ":{"ha":1115,"x_min":90,"x_max":1025,"o":"m 557 -14 q 372 22 457 -14 q 223 120 286 57 q 125 269 160 183 q 90 458 90 356 q 125 647 90 561 q 223 797 160 733 q 372 895 286 860 q 557 931 457 931 q 742 895 657 931 q 891 797 828 860 q 990 647 954 733 q 1025 458 1025 561 q 990 269 1025 356 q 891 120 954 183 q 742 22 828 57 q 557 -14 657 -14 m 585 56 q 733 100 669 56 q 833 225 797 144 q 869 415 869 306 q 825 651 869 550 q 704 807 781 751 q 535 863 628 863 q 385 819 450 863 q 283 694 319 775 q 246 504 246 614 q 291 268 246 369 q 413 111 336 167 q 585 56 490 56 z "},"Ṓ":{"ha":1115,"x_min":90,"x_max":1025,"o":"m 557 -14 q 372 22 457 -14 q 223 120 286 57 q 125 269 160 183 q 90 458 90 356 q 125 647 90 561 q 223 797 160 733 q 372 895 286 860 q 557 931 457 931 q 742 895 657 931 q 891 797 828 860 q 990 647 954 733 q 1025 458 1025 561 q 990 269 1025 356 q 891 120 954 183 q 742 22 828 57 q 557 -14 657 -14 m 585 56 q 733 100 669 56 q 833 225 797 144 q 869 415 869 306 q 825 651 869 550 q 704 807 781 751 q 535 863 628 863 q 385 819 450 863 q 283 694 319 775 q 246 504 246 614 q 291 268 246 369 q 413 111 336 167 q 585 56 490 56 z "},"Ø":{"ha":1115,"x_min":90,"x_max":1025,"o":"m 90 -14 l 215 128 q 124 275 157 190 q 90 458 90 360 q 125 647 90 561 q 223 797 160 733 q 372 895 286 860 q 557 931 457 931 q 713 906 640 931 q 844 838 786 882 l 926 931 l 1025 931 l 899 789 q 992 642 958 726 q 1025 458 1025 557 q 990 269 1025 356 q 891 120 954 183 q 742 22 828 57 q 557 -14 657 -14 q 402 10 475 -14 q 271 79 329 35 l 189 -14 l 90 -14 m 246 504 q 263 356 246 424 q 308 233 279 288 l 765 749 q 662 833 721 803 q 535 863 603 863 q 385 819 450 863 q 283 694 319 775 q 246 504 246 614 m 585 56 q 733 100 669 56 q 833 225 797 144 q 869 415 869 306 q 853 563 869 494 q 808 685 838 631 l 351 169 q 457 85 397 115 q 585 56 517 56 z "},"Ǿ":{"ha":1115,"x_min":90,"x_max":1025,"o":"m 90 -14 l 215 128 q 124 275 157 190 q 90 458 90 360 q 125 647 90 561 q 223 797 160 733 q 372 895 286 860 q 557 931 457 931 q 713 906 640 931 q 844 838 786 882 l 926 931 l 1025 931 l 899 789 q 992 642 958 726 q 1025 458 1025 557 q 990 269 1025 356 q 891 120 954 183 q 742 22 828 57 q 557 -14 657 -14 q 402 10 475 -14 q 271 79 329 35 l 189 -14 l 90 -14 m 246 504 q 263 356 246 424 q 308 233 279 288 l 765 749 q 662 833 721 803 q 535 863 603 863 q 385 819 450 863 q 283 694 319 775 q 246 504 246 614 m 585 56 q 733 100 669 56 q 833 225 797 144 q 869 415 869 306 q 853 563 869 494 q 808 685 838 631 l 351 169 q 457 85 397 115 q 585 56 517 56 m 533 986 l 653 1197 l 776 1197 q 767 1152 776 1175 q 728 1108 758 1129 l 553 986 l 533 986 z "},"Ơ":{"ha":1115,"x_min":90,"x_max":1025,"o":"m 557 -14 q 372 22 457 -14 q 223 120 286 57 q 125 269 160 183 q 90 458 90 356 q 125 647 90 561 q 223 797 160 733 q 372 895 286 860 q 557 931 457 931 q 676 917 618 931 l 676 917 l 676 917 q 739 897 708 908 q 760 894 750 894 q 781 893 771 893 q 840 913 824 893 q 857 968 857 933 l 857 1038 l 865 1046 l 922 1046 q 952 1038 944 1046 q 960 1003 960 1031 q 917 903 960 940 q 808 865 875 865 l 803 865 q 965 699 904 806 q 1025 458 1025 593 q 990 269 1025 356 q 891 120 954 183 q 742 22 828 57 q 557 -14 657 -14 m 585 56 q 733 100 669 56 q 833 225 797 144 q 869 415 869 306 q 825 651 869 550 q 704 807 781 751 q 535 863 628 863 q 385 819 450 863 q 283 694 319 775 q 246 504 246 614 q 291 268 246 369 q 413 111 336 167 q 585 56 490 56 z "},"Ớ":{"ha":1115,"x_min":90,"x_max":1025,"o":"m 557 -14 q 372 22 457 -14 q 223 120 286 57 q 125 269 160 183 q 90 458 90 356 q 125 647 90 561 q 223 797 160 733 q 372 895 286 860 q 557 931 457 931 q 676 917 618 931 l 676 917 l 676 917 q 739 897 708 908 q 760 894 750 894 q 781 893 771 893 q 840 913 824 893 q 857 968 857 933 l 857 1038 l 865 1046 l 922 1046 q 952 1038 944 1046 q 960 1003 960 1031 q 917 903 960 940 q 808 865 875 865 l 803 865 q 965 699 904 806 q 1025 458 1025 593 q 990 269 1025 356 q 891 120 954 183 q 742 22 828 57 q 557 -14 657 -14 m 585 56 q 733 100 669 56 q 833 225 797 144 q 869 415 869 306 q 825 651 869 550 q 704 807 781 751 q 535 863 628 863 q 385 819 450 863 q 283 694 319 775 q 246 504 246 614 q 291 268 246 369 q 413 111 336 167 q 585 56 490 56 m 533 986 l 653 1197 l 776 1197 q 767 1152 776 1175 q 728 1108 758 1129 l 553 986 l 533 986 z "},"Ợ":{"ha":1115,"x_min":90,"x_max":1025,"o":"m 557 -14 q 372 22 457 -14 q 223 120 286 57 q 125 269 160 183 q 90 458 90 356 q 125 647 90 561 q 223 797 160 733 q 372 895 286 860 q 557 931 457 931 q 676 917 618 931 l 676 917 l 676 917 q 739 897 708 908 q 760 894 750 894 q 781 893 771 893 q 840 913 824 893 q 857 968 857 933 l 857 1038 l 865 1046 l 922 1046 q 952 1038 944 1046 q 960 1003 960 1031 q 917 903 960 940 q 808 865 875 865 l 803 865 q 965 699 904 806 q 1025 458 1025 593 q 990 269 1025 356 q 891 120 954 183 q 742 22 828 57 q 557 -14 657 -14 m 585 56 q 733 100 669 56 q 833 225 797 144 q 869 415 869 306 q 825 651 869 550 q 704 807 781 751 q 535 863 628 863 q 385 819 450 863 q 283 694 319 775 q 246 504 246 614 q 291 268 246 369 q 413 111 336 167 q 585 56 490 56 z "},"Ờ":{"ha":1115,"x_min":90,"x_max":1025,"o":"m 557 -14 q 372 22 457 -14 q 223 120 286 57 q 125 269 160 183 q 90 458 90 356 q 125 647 90 561 q 223 797 160 733 q 372 895 286 860 q 557 931 457 931 q 676 917 618 931 l 676 917 l 676 917 q 739 897 708 908 q 760 894 750 894 q 781 893 771 893 q 840 913 824 893 q 857 968 857 933 l 857 1038 l 865 1046 l 922 1046 q 952 1038 944 1046 q 960 1003 960 1031 q 917 903 960 940 q 808 865 875 865 l 803 865 q 965 699 904 806 q 1025 458 1025 593 q 990 269 1025 356 q 891 120 954 183 q 742 22 828 57 q 557 -14 657 -14 m 585 56 q 733 100 669 56 q 833 225 797 144 q 869 415 869 306 q 825 651 869 550 q 704 807 781 751 q 535 863 628 863 q 385 819 450 863 q 283 694 319 775 q 246 504 246 614 q 291 268 246 369 q 413 111 336 167 q 585 56 490 56 m 532 986 l 357 1108 q 317 1153 325 1131 q 308 1197 308 1175 l 432 1197 l 551 986 l 532 986 z "},"Ở":{"ha":1115,"x_min":90,"x_max":1025,"o":"m 557 -14 q 372 22 457 -14 q 223 120 286 57 q 125 269 160 183 q 90 458 90 356 q 125 647 90 561 q 223 797 160 733 q 372 895 286 860 q 557 931 457 931 q 676 917 618 931 l 676 917 l 676 917 q 739 897 708 908 q 760 894 750 894 q 781 893 771 893 q 840 913 824 893 q 857 968 857 933 l 857 1038 l 865 1046 l 922 1046 q 952 1038 944 1046 q 960 1003 960 1031 q 917 903 960 940 q 808 865 875 865 l 803 865 q 965 699 904 806 q 1025 458 1025 593 q 990 269 1025 356 q 891 120 954 183 q 742 22 828 57 q 557 -14 657 -14 m 585 56 q 733 100 669 56 q 833 225 797 144 q 869 415 869 306 q 825 651 869 550 q 704 807 781 751 q 535 863 628 863 q 385 819 450 863 q 283 694 319 775 q 246 504 246 614 q 291 268 246 369 q 413 111 336 167 q 585 56 490 56 m 476 986 l 476 988 q 545 1019 521 1003 q 569 1068 569 1036 q 547 1107 569 1092 q 464 1133 524 1122 l 479 1215 q 611 1173 574 1207 q 649 1103 649 1139 q 486 975 649 996 l 476 986 z "},"Ỡ":{"ha":1115,"x_min":90,"x_max":1025,"o":"m 557 -14 q 372 22 457 -14 q 223 120 286 57 q 125 269 160 183 q 90 458 90 356 q 125 647 90 561 q 223 797 160 733 q 372 895 286 860 q 557 931 457 931 q 676 917 618 931 l 676 917 l 676 917 q 739 897 708 908 q 760 894 750 894 q 781 893 771 893 q 840 913 824 893 q 857 968 857 933 l 857 1038 l 865 1046 l 922 1046 q 952 1038 944 1046 q 960 1003 960 1031 q 917 903 960 940 q 808 865 875 865 l 803 865 q 965 699 904 806 q 1025 458 1025 593 q 990 269 1025 356 q 891 120 954 183 q 742 22 828 57 q 557 -14 657 -14 m 585 56 q 733 100 669 56 q 833 225 797 144 q 869 415 869 306 q 825 651 869 550 q 704 807 781 751 q 535 863 628 863 q 385 819 450 863 q 283 694 319 775 q 246 504 246 614 q 291 268 246 369 q 413 111 336 167 q 585 56 490 56 m 328 1007 q 372 1111 351 1076 q 413 1158 392 1146 q 463 1169 435 1169 q 531 1151 500 1169 q 592 1115 563 1133 q 653 1097 621 1097 q 699 1111 679 1097 q 738 1169 719 1125 l 758 1169 q 715 1065 736 1100 q 673 1019 694 1031 q 624 1007 651 1007 q 555 1025 586 1007 q 494 1061 524 1043 q 433 1079 465 1079 q 388 1065 407 1079 q 349 1007 368 1051 l 328 1007 z "},"Œ":{"ha":1417,"x_min":90,"x_max":1325,"o":"m 581 0 q 317 57 428 1 q 149 213 207 113 q 90 450 90 314 q 156 694 90 589 q 334 858 221 799 q 590 917 447 917 l 1286 917 l 1286 678 l 1264 678 l 1174 840 l 846 840 l 846 511 l 1076 511 l 1149 628 l 1171 628 l 1171 321 l 1149 321 l 1076 435 l 846 435 l 846 76 l 1211 76 l 1303 260 l 1325 260 l 1325 0 l 581 0 m 615 76 l 701 76 l 701 840 l 596 840 q 406 794 486 840 q 284 663 326 747 q 242 461 242 578 q 338 181 242 286 q 615 76 435 76 z "},"Ŕ":{"ha":940,"x_min":83,"x_max":947,"o":"m 83 0 l 83 22 l 196 78 l 196 839 l 83 894 l 83 917 l 469 917 q 699 856 615 917 q 783 690 783 796 q 731 553 783 613 q 592 461 678 493 l 854 74 l 947 22 l 947 0 l 724 0 l 457 422 l 342 422 l 342 79 l 446 22 l 446 0 l 83 0 m 424 840 l 342 840 l 342 496 l 432 496 q 574 545 518 496 q 631 671 631 594 q 576 795 631 750 q 424 840 521 840 m 439 986 l 558 1197 l 682 1197 q 673 1152 682 1175 q 633 1108 664 1129 l 458 986 l 439 986 z "},"Ř":{"ha":940,"x_min":83,"x_max":947,"o":"m 83 0 l 83 22 l 196 78 l 196 839 l 83 894 l 83 917 l 469 917 q 699 856 615 917 q 783 690 783 796 q 731 553 783 613 q 592 461 678 493 l 854 74 l 947 22 l 947 0 l 724 0 l 457 422 l 342 422 l 342 79 l 446 22 l 446 0 l 83 0 m 424 840 l 342 840 l 342 496 l 432 496 q 574 545 518 496 q 631 671 631 594 q 576 795 631 750 q 424 840 521 840 m 425 986 l 240 1197 l 260 1197 l 449 1096 l 638 1197 l 657 1197 l 472 986 l 425 986 z "},"Ŗ":{"ha":940,"x_min":83,"x_max":947,"o":"m 83 0 l 83 22 l 196 78 l 196 839 l 83 894 l 83 917 l 469 917 q 699 856 615 917 q 783 690 783 796 q 731 553 783 613 q 592 461 678 493 l 854 74 l 947 22 l 947 0 l 724 0 l 457 422 l 342 422 l 342 79 l 446 22 l 446 0 l 83 0 m 424 840 l 342 840 l 342 496 l 432 496 q 574 545 518 496 q 631 671 631 594 q 576 795 631 750 q 424 840 521 840 m 471 -332 q 447 -331 460 -332 q 425 -328 435 -331 l 425 -306 q 444 -309 433 -308 q 461 -310 454 -310 q 518 -297 497 -310 q 539 -257 539 -283 q 511 -212 539 -224 q 424 -200 483 -200 l 424 -136 q 436 -115 424 -124 q 481 -107 449 -107 q 589 -135 554 -107 q 624 -217 624 -164 q 581 -302 624 -272 q 471 -332 538 -332 z "},"Ȑ":{"ha":940,"x_min":83,"x_max":947,"o":"m 83 0 l 83 22 l 196 78 l 196 839 l 83 894 l 83 917 l 469 917 q 699 856 615 917 q 783 690 783 796 q 731 553 783 613 q 592 461 678 493 l 854 74 l 947 22 l 947 0 l 724 0 l 457 422 l 342 422 l 342 79 l 446 22 l 446 0 l 83 0 m 424 840 l 342 840 l 342 496 l 432 496 q 574 545 518 496 q 631 671 631 594 q 576 795 631 750 q 424 840 521 840 m 354 986 l 208 1110 q 185 1153 185 1129 q 192 1197 185 1176 l 286 1197 l 374 986 l 354 986 m 521 986 l 392 1110 q 368 1154 368 1132 q 375 1197 368 1176 l 468 1197 l 540 986 l 521 986 z "},"Ȓ":{"ha":940,"x_min":83,"x_max":947,"o":"m 83 0 l 83 22 l 196 78 l 196 839 l 83 894 l 83 917 l 469 917 q 699 856 615 917 q 783 690 783 796 q 731 553 783 613 q 592 461 678 493 l 854 74 l 947 22 l 947 0 l 724 0 l 457 422 l 342 422 l 342 79 l 446 22 l 446 0 l 83 0 m 424 840 l 342 840 l 342 496 l 432 496 q 574 545 518 496 q 631 671 631 594 q 576 795 631 750 q 424 840 521 840 m 242 986 q 313 1140 267 1083 q 449 1197 360 1197 q 586 1140 540 1197 q 656 986 632 1083 l 638 986 q 587 1058 613 1033 q 528 1092 561 1083 q 449 1100 496 1100 q 369 1092 401 1100 q 310 1058 336 1083 q 260 986 285 1033 l 242 986 z "},"Ṛ":{"ha":940,"x_min":83,"x_max":947,"o":"m 83 0 l 83 22 l 196 78 l 196 839 l 83 894 l 83 917 l 469 917 q 699 856 615 917 q 783 690 783 796 q 731 553 783 613 q 592 461 678 493 l 854 74 l 947 22 l 947 0 l 724 0 l 457 422 l 342 422 l 342 79 l 446 22 l 446 0 l 83 0 m 424 840 l 342 840 l 342 496 l 432 496 q 574 545 518 496 q 631 671 631 594 q 576 795 631 750 q 424 840 521 840 z "},"Ṟ":{"ha":940,"x_min":83,"x_max":947,"o":"m 83 0 l 83 22 l 196 78 l 196 839 l 83 894 l 83 917 l 469 917 q 699 856 615 917 q 783 690 783 796 q 731 553 783 613 q 592 461 678 493 l 854 74 l 947 22 l 947 0 l 724 0 l 457 422 l 342 422 l 342 79 l 446 22 l 446 0 l 83 0 m 424 840 l 342 840 l 342 496 l 432 496 q 574 545 518 496 q 631 671 631 594 q 576 795 631 750 q 424 840 521 840 z "},"ẞ":{"ha":1501,"x_min":79,"x_max":1428,"o":"m 369 -14 q 220 3 282 -14 q 93 51 158 19 l 79 281 l 101 281 l 175 129 q 271 71 224 89 q 365 53 318 53 q 492 94 446 53 q 539 208 539 136 q 513 299 539 265 q 437 360 488 333 q 313 424 386 388 q 161 523 214 471 q 108 669 108 575 q 133 766 108 719 q 199 849 157 813 q 292 908 240 886 q 399 931 343 931 q 521 915 464 931 q 633 871 578 900 l 647 649 l 625 649 l 553 797 q 472 847 508 832 q 390 863 436 863 q 291 822 331 863 q 251 721 251 782 q 294 614 251 653 q 431 531 336 575 q 569 453 514 490 q 650 371 624 417 q 676 254 676 325 q 649 139 676 189 q 575 55 621 89 q 476 3 529 21 q 369 -14 422 -14 m 1121 -14 q 972 3 1033 -14 q 844 51 910 19 l 831 281 l 853 281 l 926 129 q 1022 71 975 89 q 1117 53 1069 53 q 1244 94 1197 53 q 1290 208 1290 136 q 1265 299 1290 265 q 1188 360 1239 333 q 1064 424 1138 388 q 913 523 965 471 q 860 669 860 575 q 884 766 860 719 q 950 849 908 813 q 1043 908 992 886 q 1150 931 1094 931 q 1272 915 1215 931 q 1385 871 1329 900 l 1399 649 l 1376 649 l 1304 797 q 1224 847 1260 832 q 1142 863 1188 863 q 1042 822 1082 863 q 1003 721 1003 782 q 1045 614 1003 653 q 1182 531 1088 575 q 1320 453 1265 490 q 1401 371 1375 417 q 1428 254 1428 325 q 1400 139 1428 189 q 1326 55 1372 89 q 1227 3 1281 21 q 1121 -14 1174 -14 z "},"Ś":{"ha":751,"x_min":79,"x_max":676,"o":"m 369 -14 q 220 3 282 -14 q 93 51 158 19 l 79 281 l 101 281 l 175 129 q 271 71 224 89 q 365 53 318 53 q 492 94 446 53 q 539 208 539 136 q 513 299 539 265 q 437 360 488 333 q 313 424 386 388 q 161 523 214 471 q 108 669 108 575 q 133 766 108 719 q 199 849 157 813 q 292 908 240 886 q 399 931 343 931 q 521 915 464 931 q 633 871 578 900 l 647 649 l 625 649 l 553 797 q 472 847 508 832 q 390 863 436 863 q 291 822 331 863 q 251 721 251 782 q 294 614 251 653 q 431 531 336 575 q 569 453 514 490 q 650 371 624 417 q 676 254 676 325 q 649 139 676 189 q 575 55 621 89 q 476 3 529 21 q 369 -14 422 -14 m 378 986 l 497 1197 l 621 1197 q 612 1152 621 1175 q 572 1108 603 1129 l 397 986 l 378 986 z "},"Ŝ":{"ha":751,"x_min":79,"x_max":676,"o":"m 369 -14 q 220 3 282 -14 q 93 51 158 19 l 79 281 l 101 281 l 175 129 q 271 71 224 89 q 365 53 318 53 q 492 94 446 53 q 539 208 539 136 q 513 299 539 265 q 437 360 488 333 q 313 424 386 388 q 161 523 214 471 q 108 669 108 575 q 133 766 108 719 q 199 849 157 813 q 292 908 240 886 q 399 931 343 931 q 521 915 464 931 q 633 871 578 900 l 647 649 l 625 649 l 553 797 q 472 847 508 832 q 390 863 436 863 q 291 822 331 863 q 251 721 251 782 q 294 614 251 653 q 431 531 336 575 q 569 453 514 490 q 650 371 624 417 q 676 254 676 325 q 649 139 676 189 q 575 55 621 89 q 476 3 529 21 q 369 -14 422 -14 m 179 986 l 364 1197 l 411 1197 l 596 986 l 576 986 l 388 1088 l 199 986 l 179 986 z "},"Š":{"ha":751,"x_min":79,"x_max":676,"o":"m 369 -14 q 220 3 282 -14 q 93 51 158 19 l 79 281 l 101 281 l 175 129 q 271 71 224 89 q 365 53 318 53 q 492 94 446 53 q 539 208 539 136 q 513 299 539 265 q 437 360 488 333 q 313 424 386 388 q 161 523 214 471 q 108 669 108 575 q 133 766 108 719 q 199 849 157 813 q 292 908 240 886 q 399 931 343 931 q 521 915 464 931 q 633 871 578 900 l 647 649 l 625 649 l 553 797 q 472 847 508 832 q 390 863 436 863 q 291 822 331 863 q 251 721 251 782 q 294 614 251 653 q 431 531 336 575 q 569 453 514 490 q 650 371 624 417 q 676 254 676 325 q 649 139 676 189 q 575 55 621 89 q 476 3 529 21 q 369 -14 422 -14 m 364 986 l 179 1197 l 199 1197 l 388 1096 l 576 1197 l 596 1197 l 411 986 l 364 986 z "},"Ş":{"ha":751,"x_min":79,"x_max":676,"o":"m 382 -333 q 268 -293 304 -333 l 268 -275 l 272 -275 q 357 -292 308 -292 q 415 -276 397 -292 q 433 -237 433 -261 q 404 -187 433 -207 q 293 -143 375 -168 l 353 -14 q 213 4 272 -12 q 93 51 154 21 l 79 281 l 101 281 l 175 129 q 271 71 224 89 q 365 53 318 53 q 492 94 446 53 q 539 208 539 136 q 513 299 539 265 q 437 360 488 333 q 313 424 386 388 q 161 523 214 471 q 108 669 108 575 q 133 766 108 719 q 199 849 157 813 q 292 908 240 886 q 399 931 343 931 q 521 915 464 931 q 633 871 578 900 l 647 649 l 625 649 l 554 797 q 474 847 510 832 q 390 863 438 863 q 291 822 331 863 q 251 721 251 782 q 294 614 251 653 q 431 531 336 575 q 569 453 514 490 q 650 371 624 417 q 676 254 676 325 q 635 117 676 174 q 531 27 594 60 q 403 -12 468 -6 l 375 -72 q 488 -128 456 -97 q 519 -212 519 -158 q 483 -299 519 -264 q 382 -333 447 -333 z "},"Ș":{"ha":751,"x_min":79,"x_max":676,"o":"m 369 -14 q 220 3 282 -14 q 93 51 158 19 l 79 281 l 101 281 l 175 129 q 271 71 224 89 q 365 53 318 53 q 492 94 446 53 q 539 208 539 136 q 513 299 539 265 q 437 360 488 333 q 313 424 386 388 q 161 523 214 471 q 108 669 108 575 q 133 766 108 719 q 199 849 157 813 q 292 908 240 886 q 399 931 343 931 q 521 915 464 931 q 633 871 578 900 l 647 649 l 625 649 l 553 797 q 472 847 508 832 q 390 863 436 863 q 291 822 331 863 q 251 721 251 782 q 294 614 251 653 q 431 531 336 575 q 569 453 514 490 q 650 371 624 417 q 676 254 676 325 q 649 139 676 189 q 575 55 621 89 q 476 3 529 21 q 369 -14 422 -14 z "},"Ṡ":{"ha":751,"x_min":79,"x_max":676,"o":"m 369 -14 q 220 3 282 -14 q 93 51 158 19 l 79 281 l 101 281 l 175 129 q 271 71 224 89 q 365 53 318 53 q 492 94 446 53 q 539 208 539 136 q 513 299 539 265 q 437 360 488 333 q 313 424 386 388 q 161 523 214 471 q 108 669 108 575 q 133 766 108 719 q 199 849 157 813 q 292 908 240 886 q 399 931 343 931 q 521 915 464 931 q 633 871 578 900 l 647 649 l 625 649 l 553 797 q 472 847 508 832 q 390 863 436 863 q 291 822 331 863 q 251 721 251 782 q 294 614 251 653 q 431 531 336 575 q 569 453 514 490 q 650 371 624 417 q 676 254 676 325 q 649 139 676 189 q 575 55 621 89 q 476 3 529 21 q 369 -14 422 -14 m 388 1007 q 326 1033 351 1007 q 300 1094 300 1058 q 326 1156 300 1131 q 388 1182 351 1182 q 449 1156 424 1182 q 475 1094 475 1131 q 449 1033 475 1058 q 388 1007 424 1007 z "},"Ṣ":{"ha":751,"x_min":79,"x_max":676,"o":"m 369 -14 q 220 3 282 -14 q 93 51 158 19 l 79 281 l 101 281 l 175 129 q 271 71 224 89 q 365 53 318 53 q 492 94 446 53 q 539 208 539 136 q 513 299 539 265 q 437 360 488 333 q 313 424 386 388 q 161 523 214 471 q 108 669 108 575 q 133 766 108 719 q 199 849 157 813 q 292 908 240 886 q 399 931 343 931 q 521 915 464 931 q 633 871 578 900 l 647 649 l 625 649 l 553 797 q 472 847 508 832 q 390 863 436 863 q 291 822 331 863 q 251 721 251 782 q 294 614 251 653 q 431 531 336 575 q 569 453 514 490 q 650 371 624 417 q 676 254 676 325 q 649 139 676 189 q 575 55 621 89 q 476 3 529 21 q 369 -14 422 -14 z "},"Ṥ":{"ha":751,"x_min":79,"x_max":676,"o":"m 369 -14 q 220 3 282 -14 q 93 51 158 19 l 79 281 l 101 281 l 175 129 q 271 71 224 89 q 365 53 318 53 q 492 94 446 53 q 539 208 539 136 q 513 299 539 265 q 437 360 488 333 q 313 424 386 388 q 161 523 214 471 q 108 669 108 575 q 133 766 108 719 q 199 849 157 813 q 292 908 240 886 q 399 931 343 931 q 521 915 464 931 q 633 871 578 900 l 647 649 l 625 649 l 553 797 q 472 847 508 832 q 390 863 436 863 q 291 822 331 863 q 251 721 251 782 q 294 614 251 653 q 431 531 336 575 q 569 453 514 490 q 650 371 624 417 q 676 254 676 325 q 649 139 676 189 q 575 55 621 89 q 476 3 529 21 q 369 -14 422 -14 z "},"Ṧ":{"ha":751,"x_min":79,"x_max":676,"o":"m 369 -14 q 220 3 282 -14 q 93 51 158 19 l 79 281 l 101 281 l 175 129 q 271 71 224 89 q 365 53 318 53 q 492 94 446 53 q 539 208 539 136 q 513 299 539 265 q 437 360 488 333 q 313 424 386 388 q 161 523 214 471 q 108 669 108 575 q 133 766 108 719 q 199 849 157 813 q 292 908 240 886 q 399 931 343 931 q 521 915 464 931 q 633 871 578 900 l 647 649 l 625 649 l 553 797 q 472 847 508 832 q 390 863 436 863 q 291 822 331 863 q 251 721 251 782 q 294 614 251 653 q 431 531 336 575 q 569 453 514 490 q 650 371 624 417 q 676 254 676 325 q 649 139 676 189 q 575 55 621 89 q 476 3 529 21 q 369 -14 422 -14 z "},"Ṩ":{"ha":751,"x_min":79,"x_max":676,"o":"m 369 -14 q 220 3 282 -14 q 93 51 158 19 l 79 281 l 101 281 l 175 129 q 271 71 224 89 q 365 53 318 53 q 492 94 446 53 q 539 208 539 136 q 513 299 539 265 q 437 360 488 333 q 313 424 386 388 q 161 523 214 471 q 108 669 108 575 q 133 766 108 719 q 199 849 157 813 q 292 908 240 886 q 399 931 343 931 q 521 915 464 931 q 633 871 578 900 l 647 649 l 625 649 l 553 797 q 472 847 508 832 q 390 863 436 863 q 291 822 331 863 q 251 721 251 782 q 294 614 251 653 q 431 531 336 575 q 569 453 514 490 q 650 371 624 417 q 676 254 676 325 q 649 139 676 189 q 575 55 621 89 q 476 3 529 21 q 369 -14 422 -14 m 388 1007 q 326 1033 351 1007 q 300 1094 300 1058 q 326 1156 300 1131 q 388 1182 351 1182 q 449 1156 424 1182 q 475 1094 475 1131 q 449 1033 475 1058 q 388 1007 424 1007 z "},"Ť":{"ha":944,"x_min":60,"x_max":885,"o":"m 260 0 l 260 22 l 400 78 l 400 840 l 181 840 l 82 631 l 60 631 l 60 917 l 885 917 l 885 631 l 863 631 l 765 840 l 544 840 l 544 78 l 686 22 l 686 0 l 260 0 m 449 986 l 264 1197 l 283 1197 l 472 1096 l 661 1197 l 681 1197 l 496 986 l 449 986 z "},"Ț":{"ha":944,"x_min":60,"x_max":885,"o":"m 260 0 l 260 22 l 400 78 l 400 840 l 181 840 l 82 631 l 60 631 l 60 917 l 885 917 l 885 631 l 863 631 l 765 840 l 544 840 l 544 78 l 686 22 l 686 0 l 260 0 z "},"Ŧ":{"ha":944,"x_min":60,"x_max":885,"o":"m 260 0 l 260 22 l 400 78 l 400 440 l 228 440 l 228 510 l 400 510 l 400 840 l 181 840 l 82 631 l 60 631 l 60 917 l 885 917 l 885 631 l 863 631 l 765 840 l 544 840 l 544 510 l 718 510 l 718 440 l 544 440 l 544 78 l 686 22 l 686 0 l 260 0 z "},"Ţ":{"ha":944,"x_min":60,"x_max":885,"o":"m 260 0 l 260 22 l 400 78 l 400 840 l 181 840 l 82 631 l 60 631 l 60 917 l 885 917 l 885 631 l 863 631 l 765 840 l 544 840 l 544 78 l 686 22 l 686 0 l 499 0 l 465 -72 q 578 -128 546 -97 q 610 -212 610 -158 q 574 -299 610 -264 q 472 -333 538 -333 q 357 -293 396 -333 l 357 -275 l 361 -275 q 400 -287 381 -283 q 447 -292 419 -292 q 505 -276 488 -292 q 522 -237 522 -261 q 494 -187 522 -207 q 383 -143 465 -168 l 449 0 l 260 0 z "},"Ṭ":{"ha":944,"x_min":60,"x_max":885,"o":"m 260 0 l 260 22 l 400 78 l 400 840 l 181 840 l 82 631 l 60 631 l 60 917 l 885 917 l 885 631 l 863 631 l 765 840 l 544 840 l 544 78 l 686 22 l 686 0 l 260 0 z "},"Ṯ":{"ha":944,"x_min":60,"x_max":885,"o":"m 260 0 l 260 22 l 400 78 l 400 840 l 181 840 l 82 631 l 60 631 l 60 917 l 885 917 l 885 631 l 863 631 l 765 840 l 544 840 l 544 78 l 686 22 l 686 0 l 260 0 z "},"Ù":{"ha":1133,"x_min":83,"x_max":1050,"o":"m 568 -14 q 376 25 461 -14 q 244 147 292 64 q 196 365 196 231 l 196 839 l 83 894 l 83 917 l 454 917 l 454 894 l 342 839 l 342 381 q 378 198 342 265 q 475 101 414 131 q 613 72 536 72 q 726 98 674 72 q 809 181 778 124 q 840 332 840 239 l 840 842 l 704 894 l 704 917 l 1050 917 l 1050 894 l 938 840 l 938 365 q 890 147 938 231 q 758 25 842 64 q 568 -14 675 -14 m 579 986 l 404 1108 q 364 1153 372 1131 q 356 1197 356 1175 l 479 1197 l 599 986 l 579 986 z "},"Ú":{"ha":1133,"x_min":83,"x_max":1050,"o":"m 568 -14 q 376 25 461 -14 q 244 147 292 64 q 196 365 196 231 l 196 839 l 83 894 l 83 917 l 454 917 l 454 894 l 342 839 l 342 381 q 378 198 342 265 q 475 101 414 131 q 613 72 536 72 q 726 98 674 72 q 809 181 778 124 q 840 332 840 239 l 840 842 l 704 894 l 704 917 l 1050 917 l 1050 894 l 938 840 l 938 365 q 890 147 938 231 q 758 25 842 64 q 568 -14 675 -14 m 581 986 l 700 1197 l 824 1197 q 815 1152 824 1175 q 775 1108 806 1129 l 600 986 l 581 986 z "},"Û":{"ha":1133,"x_min":83,"x_max":1050,"o":"m 568 -14 q 376 25 461 -14 q 244 147 292 64 q 196 365 196 231 l 196 839 l 83 894 l 83 917 l 454 917 l 454 894 l 342 839 l 342 381 q 378 198 342 265 q 475 101 414 131 q 613 72 536 72 q 726 98 674 72 q 809 181 778 124 q 840 332 840 239 l 840 842 l 704 894 l 704 917 l 1050 917 l 1050 894 l 938 840 l 938 365 q 890 147 938 231 q 758 25 842 64 q 568 -14 675 -14 m 382 986 l 567 1197 l 614 1197 l 799 986 l 779 986 l 590 1088 l 401 986 l 382 986 z "},"Ũ":{"ha":1133,"x_min":83,"x_max":1050,"o":"m 568 -14 q 376 25 461 -14 q 244 147 292 64 q 196 365 196 231 l 196 839 l 83 894 l 83 917 l 454 917 l 454 894 l 342 839 l 342 381 q 378 198 342 265 q 475 101 414 131 q 613 72 536 72 q 726 98 674 72 q 809 181 778 124 q 840 332 840 239 l 840 842 l 704 894 l 704 917 l 1050 917 l 1050 894 l 938 840 l 938 365 q 890 147 938 231 q 758 25 842 64 q 568 -14 675 -14 m 375 1007 q 419 1111 399 1076 q 460 1158 439 1146 q 510 1169 482 1169 q 578 1151 547 1169 q 639 1115 610 1133 q 700 1097 668 1097 q 747 1111 726 1097 q 785 1169 767 1125 l 806 1169 q 763 1065 783 1100 q 720 1019 742 1031 q 671 1007 699 1007 q 602 1025 633 1007 q 542 1061 571 1043 q 481 1079 513 1079 q 435 1065 454 1079 q 396 1007 415 1051 l 375 1007 z "},"Ü":{"ha":1133,"x_min":83,"x_max":1050,"o":"m 568 -14 q 376 25 461 -14 q 244 147 292 64 q 196 365 196 231 l 196 839 l 83 894 l 83 917 l 454 917 l 454 894 l 342 839 l 342 381 q 378 198 342 265 q 475 101 414 131 q 613 72 536 72 q 726 98 674 72 q 809 181 778 124 q 840 332 840 239 l 840 842 l 704 894 l 704 917 l 1050 917 l 1050 894 l 938 840 l 938 365 q 890 147 938 231 q 758 25 842 64 q 568 -14 675 -14 m 460 1021 q 409 1041 429 1021 q 389 1092 389 1061 q 409 1142 389 1122 q 460 1163 429 1163 q 510 1142 490 1163 q 531 1092 531 1122 q 510 1041 531 1061 q 460 1021 490 1021 m 721 1021 q 669 1041 690 1021 q 649 1092 649 1061 q 669 1142 649 1122 q 721 1163 690 1163 q 772 1142 751 1163 q 792 1092 792 1122 q 772 1041 792 1061 q 721 1021 751 1021 z "},"Ū":{"ha":1133,"x_min":83,"x_max":1050,"o":"m 568 -14 q 376 25 461 -14 q 244 147 292 64 q 196 365 196 231 l 196 839 l 83 894 l 83 917 l 454 917 l 454 894 l 342 839 l 342 381 q 378 198 342 265 q 475 101 414 131 q 613 72 536 72 q 726 98 674 72 q 809 181 778 124 q 840 332 840 239 l 840 842 l 704 894 l 704 917 l 1050 917 l 1050 894 l 938 840 l 938 365 q 890 147 938 231 q 758 25 842 64 q 568 -14 675 -14 m 401 1058 l 401 1132 l 779 1132 l 779 1058 l 401 1058 z "},"Ŭ":{"ha":1133,"x_min":83,"x_max":1050,"o":"m 568 -14 q 376 25 461 -14 q 244 147 292 64 q 196 365 196 231 l 196 839 l 83 894 l 83 917 l 454 917 l 454 894 l 342 839 l 342 381 q 378 198 342 265 q 475 101 414 131 q 613 72 536 72 q 726 98 674 72 q 809 181 778 124 q 840 332 840 239 l 840 842 l 704 894 l 704 917 l 1050 917 l 1050 894 l 938 840 l 938 365 q 890 147 938 231 q 758 25 842 64 q 568 -14 675 -14 m 590 986 q 453 1043 499 986 q 383 1197 407 1100 l 401 1197 q 452 1125 426 1150 q 510 1092 478 1100 q 590 1083 543 1083 q 670 1092 638 1083 q 728 1125 703 1100 q 779 1197 754 1150 l 797 1197 q 726 1043 772 1100 q 590 986 679 986 z "},"Ů":{"ha":1133,"x_min":83,"x_max":1050,"o":"m 568 -14 q 376 25 461 -14 q 244 147 292 64 q 196 365 196 231 l 196 839 l 83 894 l 83 917 l 454 917 l 454 894 l 342 839 l 342 381 q 378 198 342 265 q 475 101 414 131 q 613 72 536 72 q 726 98 674 72 q 809 181 778 124 q 840 332 840 239 l 840 842 l 704 894 l 704 917 l 1050 917 l 1050 894 l 938 840 l 938 365 q 890 147 938 231 q 758 25 842 64 q 568 -14 675 -14 m 590 986 q 503 1019 538 986 q 469 1101 469 1051 q 503 1185 469 1151 q 590 1218 538 1218 q 678 1185 644 1218 q 711 1101 711 1151 q 678 1019 711 1051 q 590 986 644 986 m 597 1019 q 642 1093 642 1019 q 585 1185 642 1185 q 552 1167 563 1185 q 542 1111 542 1150 q 597 1019 542 1019 z "},"Ű":{"ha":1133,"x_min":83,"x_max":1050,"o":"m 568 -14 q 376 25 461 -14 q 244 147 292 64 q 196 365 196 231 l 196 839 l 83 894 l 83 917 l 454 917 l 454 894 l 342 839 l 342 381 q 378 198 342 265 q 475 101 414 131 q 613 72 536 72 q 726 98 674 72 q 809 181 778 124 q 840 332 840 239 l 840 842 l 704 894 l 704 917 l 1050 917 l 1050 894 l 938 840 l 938 365 q 890 147 938 231 q 758 25 842 64 q 568 -14 675 -14 m 497 986 l 563 1197 l 656 1197 q 662 1154 663 1176 q 639 1110 661 1132 l 515 986 l 497 986 m 663 986 l 744 1197 l 838 1197 q 844 1153 844 1176 q 821 1110 844 1131 l 682 986 l 663 986 z "},"Ų":{"ha":1133,"x_min":83,"x_max":1050,"o":"m 592 -333 q 492 -300 531 -333 q 454 -210 454 -267 q 484 -116 454 -162 q 561 -14 514 -69 q 373 26 456 -12 q 243 149 290 65 q 196 365 196 232 l 196 839 l 83 894 l 83 917 l 454 917 l 454 894 l 342 839 l 342 381 q 378 198 342 265 q 475 101 414 131 q 613 72 536 72 q 726 98 674 72 q 809 181 778 124 q 840 332 840 239 l 840 842 l 704 894 l 704 917 l 1050 917 l 1050 894 l 938 840 l 938 365 q 895 157 938 239 q 778 34 853 75 q 606 -12 703 -7 q 550 -179 550 -106 q 573 -247 550 -226 q 639 -268 596 -268 q 672 -265 654 -268 q 707 -250 689 -261 l 711 -250 l 711 -269 q 592 -333 674 -333 z "},"Ụ":{"ha":1133,"x_min":83,"x_max":1050,"o":"m 568 -14 q 376 25 461 -14 q 244 147 292 64 q 196 365 196 231 l 196 839 l 83 894 l 83 917 l 454 917 l 454 894 l 342 839 l 342 381 q 378 198 342 265 q 475 101 414 131 q 613 72 536 72 q 726 98 674 72 q 809 181 778 124 q 840 332 840 239 l 840 842 l 704 894 l 704 917 l 1050 917 l 1050 894 l 938 840 l 938 365 q 890 147 938 231 q 758 25 842 64 q 568 -14 675 -14 z "},"Ȕ":{"ha":1133,"x_min":83,"x_max":1050,"o":"m 568 -14 q 376 25 461 -14 q 244 147 292 64 q 196 365 196 231 l 196 839 l 83 894 l 83 917 l 454 917 l 454 894 l 342 839 l 342 381 q 378 198 342 265 q 475 101 414 131 q 613 72 536 72 q 726 98 674 72 q 809 181 778 124 q 840 332 840 239 l 840 842 l 704 894 l 704 917 l 1050 917 l 1050 894 l 938 840 l 938 365 q 890 147 938 231 q 758 25 842 64 q 568 -14 675 -14 m 496 986 l 350 1110 q 326 1153 326 1129 q 333 1197 326 1176 l 428 1197 l 515 986 l 496 986 m 663 986 l 533 1110 q 510 1154 510 1132 q 517 1197 510 1176 l 610 1197 l 682 986 l 663 986 z "},"Ȗ":{"ha":1133,"x_min":83,"x_max":1050,"o":"m 568 -14 q 376 25 461 -14 q 244 147 292 64 q 196 365 196 231 l 196 839 l 83 894 l 83 917 l 454 917 l 454 894 l 342 839 l 342 381 q 378 198 342 265 q 475 101 414 131 q 613 72 536 72 q 726 98 674 72 q 809 181 778 124 q 840 332 840 239 l 840 842 l 704 894 l 704 917 l 1050 917 l 1050 894 l 938 840 l 938 365 q 890 147 938 231 q 758 25 842 64 q 568 -14 675 -14 m 383 986 q 455 1140 408 1083 q 590 1197 501 1197 q 728 1140 682 1197 q 797 986 774 1083 l 779 986 q 728 1058 754 1033 q 670 1092 703 1083 q 590 1100 638 1100 q 510 1092 543 1100 q 452 1058 478 1083 q 401 986 426 1033 l 383 986 z "},"Ủ":{"ha":1133,"x_min":83,"x_max":1050,"o":"m 568 -14 q 376 25 461 -14 q 244 147 292 64 q 196 365 196 231 l 196 839 l 83 894 l 83 917 l 454 917 l 454 894 l 342 839 l 342 381 q 378 198 342 265 q 475 101 414 131 q 613 72 536 72 q 726 98 674 72 q 809 181 778 124 q 840 332 840 239 l 840 842 l 704 894 l 704 917 l 1050 917 l 1050 894 l 938 840 l 938 365 q 890 147 938 231 q 758 25 842 64 q 568 -14 675 -14 m 524 986 l 524 988 q 592 1019 568 1003 q 617 1068 617 1036 q 594 1107 617 1092 q 511 1133 571 1122 l 526 1215 q 658 1173 621 1207 q 696 1103 696 1139 q 533 975 696 996 l 524 986 z "},"Ṹ":{"ha":1133,"x_min":83,"x_max":1050,"o":"m 568 -14 q 376 25 461 -14 q 244 147 292 64 q 196 365 196 231 l 196 839 l 83 894 l 83 917 l 454 917 l 454 894 l 342 839 l 342 381 q 378 198 342 265 q 475 101 414 131 q 613 72 536 72 q 726 98 674 72 q 809 181 778 124 q 840 332 840 239 l 840 842 l 704 894 l 704 917 l 1050 917 l 1050 894 l 938 840 l 938 365 q 890 147 938 231 q 758 25 842 64 q 568 -14 675 -14 z "},"Ṻ":{"ha":1133,"x_min":83,"x_max":1050,"o":"m 568 -14 q 376 25 461 -14 q 244 147 292 64 q 196 365 196 231 l 196 839 l 83 894 l 83 917 l 454 917 l 454 894 l 342 839 l 342 381 q 378 198 342 265 q 475 101 414 131 q 613 72 536 72 q 726 98 674 72 q 809 181 778 124 q 840 332 840 239 l 840 842 l 704 894 l 704 917 l 1050 917 l 1050 894 l 938 840 l 938 365 q 890 147 938 231 q 758 25 842 64 q 568 -14 675 -14 z "},"Ư":{"ha":1133,"x_min":83,"x_max":1233,"o":"m 568 -14 q 376 25 461 -14 q 244 147 292 64 q 196 365 196 231 l 196 839 l 83 894 l 83 917 l 454 917 l 454 894 l 342 839 l 342 381 q 378 198 342 265 q 475 101 414 131 q 613 72 536 72 q 726 98 674 72 q 809 181 778 124 q 840 332 840 239 l 840 842 l 704 894 l 704 917 l 1054 917 q 1114 935 1097 917 q 1131 988 1131 953 l 1131 1038 l 1139 1046 l 1196 1046 q 1226 1038 1218 1046 q 1233 1003 1233 1031 q 1191 915 1233 942 q 1082 889 1149 889 l 1039 889 l 938 840 l 938 365 q 890 147 938 231 q 758 25 842 64 q 568 -14 675 -14 z "},"Ứ":{"ha":1133,"x_min":83,"x_max":1233,"o":"m 568 -14 q 376 25 461 -14 q 244 147 292 64 q 196 365 196 231 l 196 839 l 83 894 l 83 917 l 454 917 l 454 894 l 342 839 l 342 381 q 378 198 342 265 q 475 101 414 131 q 613 72 536 72 q 726 98 674 72 q 809 181 778 124 q 840 332 840 239 l 840 842 l 704 894 l 704 917 l 1054 917 q 1114 935 1097 917 q 1131 988 1131 953 l 1131 1038 l 1139 1046 l 1196 1046 q 1226 1038 1218 1046 q 1233 1003 1233 1031 q 1191 915 1233 942 q 1082 889 1149 889 l 1039 889 l 938 840 l 938 365 q 890 147 938 231 q 758 25 842 64 q 568 -14 675 -14 m 581 986 l 700 1197 l 824 1197 q 815 1152 824 1175 q 775 1108 806 1129 l 600 986 l 581 986 z "},"Ự":{"ha":1133,"x_min":83,"x_max":1233,"o":"m 568 -14 q 376 25 461 -14 q 244 147 292 64 q 196 365 196 231 l 196 839 l 83 894 l 83 917 l 454 917 l 454 894 l 342 839 l 342 381 q 378 198 342 265 q 475 101 414 131 q 613 72 536 72 q 726 98 674 72 q 809 181 778 124 q 840 332 840 239 l 840 842 l 704 894 l 704 917 l 1054 917 q 1114 935 1097 917 q 1131 988 1131 953 l 1131 1038 l 1139 1046 l 1196 1046 q 1226 1038 1218 1046 q 1233 1003 1233 1031 q 1191 915 1233 942 q 1082 889 1149 889 l 1039 889 l 938 840 l 938 365 q 890 147 938 231 q 758 25 842 64 q 568 -14 675 -14 z "},"Ừ":{"ha":1133,"x_min":83,"x_max":1233,"o":"m 568 -14 q 376 25 461 -14 q 244 147 292 64 q 196 365 196 231 l 196 839 l 83 894 l 83 917 l 454 917 l 454 894 l 342 839 l 342 381 q 378 198 342 265 q 475 101 414 131 q 613 72 536 72 q 726 98 674 72 q 809 181 778 124 q 840 332 840 239 l 840 842 l 704 894 l 704 917 l 1054 917 q 1114 935 1097 917 q 1131 988 1131 953 l 1131 1038 l 1139 1046 l 1196 1046 q 1226 1038 1218 1046 q 1233 1003 1233 1031 q 1191 915 1233 942 q 1082 889 1149 889 l 1039 889 l 938 840 l 938 365 q 890 147 938 231 q 758 25 842 64 q 568 -14 675 -14 m 579 986 l 404 1108 q 364 1153 372 1131 q 356 1197 356 1175 l 479 1197 l 599 986 l 579 986 z "},"Ử":{"ha":1133,"x_min":83,"x_max":1233,"o":"m 568 -14 q 376 25 461 -14 q 244 147 292 64 q 196 365 196 231 l 196 839 l 83 894 l 83 917 l 454 917 l 454 894 l 342 839 l 342 381 q 378 198 342 265 q 475 101 414 131 q 613 72 536 72 q 726 98 674 72 q 809 181 778 124 q 840 332 840 239 l 840 842 l 704 894 l 704 917 l 1054 917 q 1114 935 1097 917 q 1131 988 1131 953 l 1131 1038 l 1139 1046 l 1196 1046 q 1226 1038 1218 1046 q 1233 1003 1233 1031 q 1191 915 1233 942 q 1082 889 1149 889 l 1039 889 l 938 840 l 938 365 q 890 147 938 231 q 758 25 842 64 q 568 -14 675 -14 m 524 986 l 524 988 q 592 1019 568 1003 q 617 1068 617 1036 q 594 1107 617 1092 q 511 1133 571 1122 l 526 1215 q 658 1173 621 1207 q 696 1103 696 1139 q 533 975 696 996 l 524 986 z "},"Ữ":{"ha":1133,"x_min":83,"x_max":1233,"o":"m 568 -14 q 376 25 461 -14 q 244 147 292 64 q 196 365 196 231 l 196 839 l 83 894 l 83 917 l 454 917 l 454 894 l 342 839 l 342 381 q 378 198 342 265 q 475 101 414 131 q 613 72 536 72 q 726 98 674 72 q 809 181 778 124 q 840 332 840 239 l 840 842 l 704 894 l 704 917 l 1054 917 q 1114 935 1097 917 q 1131 988 1131 953 l 1131 1038 l 1139 1046 l 1196 1046 q 1226 1038 1218 1046 q 1233 1003 1233 1031 q 1191 915 1233 942 q 1082 889 1149 889 l 1039 889 l 938 840 l 938 365 q 890 147 938 231 q 758 25 842 64 q 568 -14 675 -14 m 375 1007 q 419 1111 399 1076 q 460 1158 439 1146 q 510 1169 482 1169 q 578 1151 547 1169 q 639 1115 610 1133 q 700 1097 668 1097 q 747 1111 726 1097 q 785 1169 767 1125 l 806 1169 q 763 1065 783 1100 q 720 1019 742 1031 q 671 1007 699 1007 q 602 1025 633 1007 q 542 1061 571 1043 q 481 1079 513 1079 q 435 1065 454 1079 q 396 1007 415 1051 l 375 1007 z "},"Ẁ":{"ha":1382,"x_min":19,"x_max":1363,"o":"m 383 -7 l 125 843 l 19 894 l 19 917 l 393 917 l 393 894 l 275 843 l 444 257 l 453 257 l 693 924 l 751 924 l 996 257 l 1004 257 l 1172 842 l 1054 894 l 1054 917 l 1363 917 l 1363 894 l 1269 844 l 1008 -7 l 951 -7 l 701 658 l 692 658 l 439 -7 l 383 -7 m 713 986 l 538 1108 q 497 1153 506 1131 q 489 1197 489 1175 l 613 1197 l 732 986 l 713 986 z "},"Ẃ":{"ha":1382,"x_min":19,"x_max":1363,"o":"m 383 -7 l 125 843 l 19 894 l 19 917 l 393 917 l 393 894 l 275 843 l 444 257 l 453 257 l 693 924 l 751 924 l 996 257 l 1004 257 l 1172 842 l 1054 894 l 1054 917 l 1363 917 l 1363 894 l 1269 844 l 1008 -7 l 951 -7 l 701 658 l 692 658 l 439 -7 l 383 -7 m 714 986 l 833 1197 l 957 1197 q 948 1152 957 1175 q 908 1108 939 1129 l 733 986 l 714 986 z "},"Ŵ":{"ha":1382,"x_min":19,"x_max":1363,"o":"m 383 -7 l 125 843 l 19 894 l 19 917 l 393 917 l 393 894 l 275 843 l 444 257 l 453 257 l 693 924 l 751 924 l 996 257 l 1004 257 l 1172 842 l 1054 894 l 1054 917 l 1363 917 l 1363 894 l 1269 844 l 1008 -7 l 951 -7 l 701 658 l 692 658 l 439 -7 l 383 -7 m 514 986 l 699 1197 l 746 1197 l 931 986 l 911 986 l 722 1088 l 533 986 l 514 986 z "},"Ẅ":{"ha":1382,"x_min":19,"x_max":1363,"o":"m 383 -7 l 125 843 l 19 894 l 19 917 l 393 917 l 393 894 l 275 843 l 444 257 l 453 257 l 693 924 l 751 924 l 996 257 l 1004 257 l 1172 842 l 1054 894 l 1054 917 l 1363 917 l 1363 894 l 1269 844 l 1008 -7 l 951 -7 l 701 658 l 692 658 l 439 -7 l 383 -7 m 592 1021 q 541 1041 561 1021 q 521 1092 521 1061 q 541 1142 521 1122 q 592 1163 561 1163 q 642 1142 622 1163 q 663 1092 663 1122 q 642 1041 663 1061 q 592 1021 622 1021 m 853 1021 q 801 1041 822 1021 q 781 1092 781 1061 q 801 1142 781 1122 q 853 1163 822 1163 q 903 1142 883 1163 q 924 1092 924 1122 q 903 1041 924 1061 q 853 1021 883 1021 z "},"Ỳ":{"ha":1010,"x_min":43,"x_max":965,"o":"m 313 0 l 313 22 l 438 78 l 438 428 l 131 846 l 43 894 l 43 917 l 401 917 l 401 894 l 300 844 l 300 839 l 546 504 l 768 838 l 768 843 l 665 894 l 665 917 l 965 917 l 965 894 l 875 849 l 582 429 l 582 78 l 707 22 l 707 0 l 313 0 m 522 986 l 347 1108 q 307 1153 315 1131 q 299 1197 299 1175 l 422 1197 l 542 986 l 522 986 z "},"Ý":{"ha":1010,"x_min":43,"x_max":965,"o":"m 313 0 l 313 22 l 438 78 l 438 428 l 131 846 l 43 894 l 43 917 l 401 917 l 401 894 l 300 844 l 300 839 l 546 504 l 768 838 l 768 843 l 665 894 l 665 917 l 965 917 l 965 894 l 875 849 l 582 429 l 582 78 l 707 22 l 707 0 l 313 0 m 524 986 l 643 1197 l 767 1197 q 758 1152 767 1175 q 718 1108 749 1129 l 543 986 l 524 986 z "},"Ŷ":{"ha":1010,"x_min":43,"x_max":965,"o":"m 313 0 l 313 22 l 438 78 l 438 428 l 131 846 l 43 894 l 43 917 l 401 917 l 401 894 l 300 844 l 300 839 l 546 504 l 768 838 l 768 843 l 665 894 l 665 917 l 965 917 l 965 894 l 875 849 l 582 429 l 582 78 l 707 22 l 707 0 l 313 0 m 325 986 l 510 1197 l 557 1197 l 742 986 l 722 986 l 533 1088 l 344 986 l 325 986 z "},"Ÿ":{"ha":1010,"x_min":43,"x_max":965,"o":"m 313 0 l 313 22 l 438 78 l 438 428 l 131 846 l 43 894 l 43 917 l 401 917 l 401 894 l 300 844 l 300 839 l 546 504 l 768 838 l 768 843 l 665 894 l 665 917 l 965 917 l 965 894 l 875 849 l 582 429 l 582 78 l 707 22 l 707 0 l 313 0 m 403 1021 q 352 1041 372 1021 q 332 1092 332 1061 q 352 1142 332 1122 q 403 1163 372 1163 q 453 1142 433 1163 q 474 1092 474 1122 q 453 1041 474 1061 q 403 1021 433 1021 m 664 1021 q 613 1041 633 1021 q 592 1092 592 1061 q 613 1142 592 1122 q 664 1163 633 1163 q 715 1142 694 1163 q 735 1092 735 1122 q 715 1041 735 1061 q 664 1021 694 1021 z "},"Ỹ":{"ha":1010,"x_min":43,"x_max":965,"o":"m 313 0 l 313 22 l 438 78 l 438 428 l 131 846 l 43 894 l 43 917 l 401 917 l 401 894 l 300 844 l 300 839 l 546 504 l 768 838 l 768 843 l 665 894 l 665 917 l 965 917 l 965 894 l 875 849 l 582 429 l 582 78 l 707 22 l 707 0 l 313 0 m 318 1007 q 362 1111 342 1076 q 403 1158 382 1146 q 453 1169 425 1169 q 522 1151 490 1169 q 582 1115 553 1133 q 643 1097 611 1097 q 690 1111 669 1097 q 728 1169 710 1125 l 749 1169 q 706 1065 726 1100 q 663 1019 685 1031 q 614 1007 642 1007 q 545 1025 576 1007 q 485 1061 514 1043 q 424 1079 456 1079 q 378 1065 397 1079 q 339 1007 358 1051 l 318 1007 z "},"Ȳ":{"ha":1010,"x_min":43,"x_max":965,"o":"m 313 0 l 313 22 l 438 78 l 438 428 l 131 846 l 43 894 l 43 917 l 401 917 l 401 894 l 300 844 l 300 839 l 546 504 l 768 838 l 768 843 l 665 894 l 665 917 l 965 917 l 965 894 l 875 849 l 582 429 l 582 78 l 707 22 l 707 0 l 313 0 m 344 1058 l 344 1132 l 722 1132 l 722 1058 l 344 1058 z "},"Ỵ":{"ha":1010,"x_min":43,"x_max":965,"o":"m 313 0 l 313 22 l 438 78 l 438 428 l 131 846 l 43 894 l 43 917 l 401 917 l 401 894 l 300 844 l 300 839 l 546 504 l 768 838 l 768 843 l 665 894 l 665 917 l 965 917 l 965 894 l 875 849 l 582 429 l 582 78 l 707 22 l 707 0 l 313 0 z "},"Ỷ":{"ha":1010,"x_min":43,"x_max":965,"o":"m 313 0 l 313 22 l 438 78 l 438 428 l 131 846 l 43 894 l 43 917 l 401 917 l 401 894 l 300 844 l 300 839 l 546 504 l 768 838 l 768 843 l 665 894 l 665 917 l 965 917 l 965 894 l 875 849 l 582 429 l 582 78 l 707 22 l 707 0 l 313 0 m 467 986 l 467 988 q 535 1019 511 1003 q 560 1068 560 1036 q 537 1107 560 1092 q 454 1133 514 1122 l 469 1215 q 601 1173 564 1207 q 639 1103 639 1139 q 476 975 639 996 l 467 986 z "},"Ẏ":{"ha":1010,"x_min":43,"x_max":965,"o":"m 313 0 l 313 22 l 438 78 l 438 428 l 131 846 l 43 894 l 43 917 l 401 917 l 401 894 l 300 844 l 300 839 l 546 504 l 768 838 l 768 843 l 665 894 l 665 917 l 965 917 l 965 894 l 875 849 l 582 429 l 582 78 l 707 22 l 707 0 l 313 0 m 533 1007 q 472 1033 497 1007 q 446 1094 446 1058 q 472 1156 446 1131 q 533 1182 497 1182 q 595 1156 569 1182 q 621 1094 621 1131 q 595 1033 621 1058 q 533 1007 569 1007 z "},"Ź":{"ha":915,"x_min":124,"x_max":792,"o":"m 124 0 l 124 38 l 597 840 l 251 840 l 163 657 l 140 657 l 140 917 l 776 917 l 776 879 l 301 76 l 678 76 l 769 274 l 792 274 l 792 0 l 124 0 m 460 986 l 579 1197 l 703 1197 q 694 1152 703 1175 q 654 1108 685 1129 l 479 986 l 460 986 z "},"Ž":{"ha":915,"x_min":124,"x_max":792,"o":"m 124 0 l 124 38 l 597 840 l 251 840 l 163 657 l 140 657 l 140 917 l 776 917 l 776 879 l 301 76 l 678 76 l 769 274 l 792 274 l 792 0 l 124 0 m 446 986 l 261 1197 l 281 1197 l 469 1096 l 658 1197 l 678 1197 l 493 986 l 446 986 z "},"Ż":{"ha":915,"x_min":124,"x_max":792,"o":"m 124 0 l 124 38 l 597 840 l 251 840 l 163 657 l 140 657 l 140 917 l 776 917 l 776 879 l 301 76 l 678 76 l 769 274 l 792 274 l 792 0 l 124 0 m 469 1007 q 408 1033 433 1007 q 382 1094 382 1058 q 408 1156 382 1131 q 469 1182 433 1182 q 531 1156 506 1182 q 557 1094 557 1131 q 531 1033 557 1058 q 469 1007 506 1007 z "},"Ẓ":{"ha":915,"x_min":124,"x_max":792,"o":"m 124 0 l 124 38 l 597 840 l 251 840 l 163 657 l 140 657 l 140 917 l 776 917 l 776 879 l 301 76 l 678 76 l 769 274 l 792 274 l 792 0 l 124 0 z "},"Ə":{"ha":963,"x_min":90,"x_max":872,"o":"m 440 -14 q 186 96 281 -14 q 92 406 92 206 l 103 415 l 722 415 q 722 429 722 421 q 646 701 722 603 q 397 800 569 800 q 240 773 311 800 q 96 699 168 746 l 90 699 l 90 724 q 233 872 139 813 q 451 931 326 931 q 675 877 581 931 q 821 726 769 824 q 872 499 872 629 q 817 233 872 349 q 664 51 761 117 q 440 -14 567 -14 m 461 64 q 640 136 575 64 q 718 346 704 208 l 231 346 q 304 142 244 219 q 461 64 364 64 z "},"Ŋ":{"ha":1115,"x_min":78,"x_max":1038,"o":"m 78 0 l 78 22 l 190 78 l 190 836 l 79 894 l 79 917 l 297 917 l 829 264 l 829 840 l 686 894 l 686 917 l 1038 917 l 1038 894 l 926 840 l 926 -28 q 901 -187 926 -129 q 836 -278 875 -244 q 756 -319 803 -306 q 660 -333 710 -333 q 613 -325 625 -333 q 600 -293 600 -317 l 600 -218 l 606 -211 l 674 -211 q 797 -176 764 -211 q 829 -56 829 -142 l 829 40 l 288 696 l 288 76 l 431 22 l 431 0 l 78 0 z "},"Ð":{"ha":1085,"x_min":83,"x_max":996,"o":"m 83 0 l 83 22 l 196 78 l 196 440 l 83 440 l 83 510 l 196 510 l 196 839 l 83 894 l 83 917 l 506 917 q 771 863 661 917 q 938 714 881 808 q 996 500 996 619 q 958 300 996 392 q 853 142 921 208 q 695 38 786 75 q 496 0 604 0 l 83 0 m 576 440 l 342 440 l 342 76 l 489 76 q 679 123 600 76 q 801 255 758 169 q 844 457 844 340 q 801 659 844 572 q 673 793 757 746 q 468 840 589 840 l 342 840 l 342 510 l 576 510 l 576 440 z "},"Þ":{"ha":901,"x_min":83,"x_max":835,"o":"m 83 0 l 83 22 l 196 78 l 196 839 l 83 894 l 83 917 l 454 917 l 454 894 l 342 839 l 342 747 l 472 747 q 735 688 636 747 q 835 499 835 628 q 783 363 835 422 q 642 270 731 304 q 439 236 553 236 l 342 236 l 342 78 l 454 22 l 454 0 l 83 0 m 438 671 l 342 671 l 342 310 l 447 310 q 619 360 557 310 q 682 488 682 410 q 619 628 682 585 q 438 671 556 671 z "},"Ǆ":{"ha":1976,"x_min":83,"x_max":1853,"o":"m 83 0 l 83 22 l 196 78 l 196 839 l 83 894 l 83 917 l 506 917 q 771 863 661 917 q 938 714 881 808 q 996 500 996 619 q 958 300 996 392 q 853 142 921 208 q 695 38 786 75 q 496 0 604 0 l 83 0 m 468 840 l 342 840 l 342 76 l 489 76 q 679 123 600 76 q 801 255 758 169 q 844 457 844 340 q 801 659 844 572 q 673 793 757 746 q 468 840 589 840 m 1185 0 l 1185 38 l 1658 840 l 1313 840 l 1224 657 l 1201 657 l 1201 917 l 1838 917 l 1838 879 l 1363 76 l 1739 76 l 1831 274 l 1853 274 l 1853 0 l 1185 0 m 1507 986 l 1322 1197 l 1342 1197 l 1531 1096 l 1719 1197 l 1739 1197 l 1554 986 l 1507 986 z "},"Ǉ":{"ha":1436,"x_min":83,"x_max":1349,"o":"m 83 0 l 83 22 l 196 78 l 196 839 l 83 894 l 83 917 l 468 917 l 468 894 l 342 839 l 342 76 l 671 76 l 769 315 l 792 315 l 792 0 l 83 0 m 950 -240 q 918 -232 932 -240 q 904 -201 904 -224 q 907 -181 904 -196 q 919 -119 910 -167 l 928 -119 q 965 -128 951 -125 q 997 -132 979 -132 q 1047 -119 1026 -132 q 1079 -62 1068 -106 q 1090 71 1090 -19 l 1090 839 l 978 894 l 978 917 l 1349 917 l 1349 894 l 1235 839 l 1235 335 q 1203 54 1235 178 q 1113 -135 1172 -69 q 1049 -200 1074 -178 q 1001 -231 1024 -222 q 950 -240 979 -240 z "},"Ǌ":{"ha":1667,"x_min":78,"x_max":1578,"o":"m 78 0 l 78 22 l 190 78 l 190 836 l 79 894 l 79 917 l 297 917 l 829 263 l 829 840 l 686 894 l 686 917 l 1038 917 l 1038 894 l 926 840 l 926 -7 l 867 -7 l 288 704 l 288 76 l 431 22 l 431 0 l 78 0 m 1179 -240 q 1147 -232 1161 -240 q 1133 -201 1133 -224 q 1136 -181 1133 -196 q 1149 -119 1139 -167 l 1157 -119 q 1194 -128 1181 -125 q 1226 -132 1208 -132 q 1276 -119 1256 -132 q 1308 -62 1297 -106 q 1319 71 1319 -19 l 1319 839 l 1207 894 l 1207 917 l 1578 917 l 1578 894 l 1464 839 l 1464 335 q 1433 54 1464 178 q 1342 -135 1401 -69 q 1278 -200 1303 -178 q 1231 -231 1253 -222 q 1179 -240 1208 -240 z "},"Ђ":{"ha":1103,"x_min":57,"x_max":1011,"o":"m 232 0 l 232 22 l 372 78 l 372 840 l 178 840 l 79 636 l 57 636 l 57 917 l 871 917 l 871 653 l 849 653 l 751 840 l 517 840 l 517 449 q 630 519 563 492 q 775 546 697 546 q 897 522 843 546 q 981 438 950 497 q 1011 274 1011 379 q 997 114 1011 193 q 955 -30 982 35 q 892 -135 928 -94 q 827 -201 853 -178 q 778 -232 801 -224 q 726 -240 756 -240 q 694 -232 708 -240 q 681 -201 681 -224 q 683 -181 681 -196 q 696 -119 686 -167 l 704 -119 q 742 -128 728 -125 q 774 -132 756 -132 q 824 -119 803 -132 q 856 -62 844 -106 q 867 71 867 -19 l 867 235 q 825 391 867 344 q 685 438 783 438 q 517 383 586 438 l 517 78 l 653 22 l 653 0 l 232 0 z "},"Є":{"ha":1003,"x_min":90,"x_max":883,"o":"m 556 -14 q 308 44 413 -14 q 147 204 204 103 q 90 435 90 306 q 129 624 90 535 q 235 782 168 713 q 390 891 303 851 q 576 931 478 931 q 696 922 647 931 q 783 898 744 913 q 860 864 821 883 l 868 617 l 843 617 l 747 797 q 662 846 700 831 q 576 861 624 861 q 413 817 486 861 q 295 694 340 772 q 242 511 250 615 l 544 511 l 615 628 l 638 628 l 638 321 l 615 321 l 544 435 l 242 435 q 290 232 247 317 q 403 103 333 147 q 557 58 472 58 q 678 78 629 58 q 767 124 728 97 l 860 279 l 883 279 l 867 56 q 736 6 806 25 q 556 -14 667 -14 z "},"Ѕ":{"ha":751,"x_min":79,"x_max":676,"o":"m 369 -14 q 220 3 282 -14 q 93 51 158 19 l 79 281 l 101 281 l 175 129 q 271 71 224 89 q 365 53 318 53 q 492 94 446 53 q 539 208 539 136 q 513 299 539 265 q 437 360 488 333 q 313 424 386 388 q 161 523 214 471 q 108 669 108 575 q 133 766 108 719 q 199 849 157 813 q 292 908 240 886 q 399 931 343 931 q 521 915 464 931 q 633 871 578 900 l 647 649 l 625 649 l 553 797 q 472 847 508 832 q 390 863 436 863 q 291 822 331 863 q 251 721 251 782 q 294 614 251 653 q 431 531 336 575 q 569 453 514 490 q 650 371 624 417 q 676 254 676 325 q 649 139 676 189 q 575 55 621 89 q 476 3 529 21 q 369 -14 422 -14 z "},"І":{"ha":549,"x_min":89,"x_max":460,"o":"m 89 0 l 89 22 l 203 78 l 203 839 l 89 894 l 89 917 l 460 917 l 460 894 l 347 839 l 347 78 l 460 22 l 460 0 l 89 0 z "},"Ї":{"ha":549,"x_min":74,"x_max":476,"o":"m 89 0 l 89 22 l 203 78 l 203 839 l 89 894 l 89 917 l 460 917 l 460 894 l 347 839 l 347 78 l 460 22 l 460 0 l 89 0 m 144 1021 q 94 1041 114 1021 q 74 1092 74 1061 q 94 1142 74 1122 q 144 1163 114 1163 q 195 1142 175 1163 q 215 1092 215 1122 q 195 1041 215 1061 q 144 1021 175 1021 m 406 1021 q 354 1041 375 1021 q 333 1092 333 1061 q 354 1142 333 1122 q 406 1163 375 1163 q 456 1142 436 1163 q 476 1092 476 1122 q 456 1041 476 1061 q 406 1021 436 1021 z "},"Ј":{"ha":556,"x_min":22,"x_max":467,"o":"m 68 -240 q 36 -232 50 -240 q 22 -201 22 -224 q 25 -181 22 -196 q 38 -119 28 -167 l 46 -119 q 83 -128 69 -125 q 115 -132 97 -132 q 165 -119 144 -132 q 197 -62 186 -106 q 208 71 208 -19 l 208 839 l 96 894 l 96 917 l 467 917 l 467 894 l 353 839 l 353 335 q 322 54 353 178 q 231 -135 290 -69 q 167 -200 192 -178 q 119 -231 142 -222 q 68 -240 97 -240 z "},"Љ":{"ha":1340,"x_min":44,"x_max":1299,"o":"m 340 765 q 323 375 340 525 q 265 128 306 225 q 179 13 226 40 q 92 -14 132 -14 q 53 -6 61 -14 q 44 26 44 3 l 44 110 l 51 115 l 65 115 q 180 192 139 115 q 238 413 221 268 q 256 765 256 558 l 256 839 l 142 894 l 142 917 l 908 917 l 908 894 l 768 839 l 768 540 l 914 540 q 1117 508 1031 540 q 1251 418 1203 476 q 1299 281 1299 360 q 1251 136 1299 200 q 1116 36 1203 72 q 913 0 1029 0 l 511 0 l 511 22 l 624 78 l 624 840 l 340 840 l 340 765 m 893 464 l 768 464 l 768 76 l 903 76 q 1085 131 1025 76 q 1146 271 1146 186 q 1085 418 1146 372 q 893 464 1024 464 z "},"Њ":{"ha":1463,"x_min":83,"x_max":1421,"o":"m 83 0 l 83 22 l 196 78 l 196 839 l 83 894 l 83 917 l 451 917 l 451 894 l 342 839 l 342 525 l 744 525 l 744 839 l 632 894 l 632 917 l 1031 917 l 1031 894 l 890 839 l 890 525 l 1035 525 q 1239 494 1153 525 q 1373 406 1325 463 q 1421 272 1421 350 q 1373 131 1421 192 q 1238 35 1325 69 q 1033 0 1150 0 l 632 0 l 632 22 l 744 78 l 744 449 l 342 449 l 342 78 l 451 22 l 451 0 l 83 0 m 1015 449 l 890 449 l 890 76 l 1025 76 q 1206 128 1146 76 q 1267 263 1267 179 q 1206 405 1267 361 q 1015 449 1144 449 z "},"Ћ":{"ha":1156,"x_min":57,"x_max":1124,"o":"m 232 0 l 232 22 l 372 78 l 372 840 l 178 840 l 79 636 l 57 636 l 57 917 l 871 917 l 871 650 l 849 650 l 751 840 l 517 840 l 517 449 q 628 519 563 492 q 767 546 694 546 q 946 483 881 546 q 1011 276 1011 419 l 1011 78 l 1124 22 l 1124 0 l 867 0 l 867 235 q 825 390 867 343 q 685 438 783 438 q 517 383 586 438 l 517 78 l 653 22 l 653 0 l 232 0 z "},"Џ":{"ha":1093,"x_min":83,"x_max":1010,"o":"m 467 0 l 83 0 l 83 22 l 196 78 l 196 839 l 83 894 l 83 917 l 450 917 l 450 894 l 340 839 l 340 76 l 753 76 l 753 839 l 643 894 l 643 917 l 1010 917 l 1010 894 l 897 839 l 897 78 l 1010 22 l 1010 0 l 626 0 l 558 -233 l 536 -233 l 467 0 z "},"А":{"ha":1050,"x_min":42,"x_max":1008,"o":"m 42 0 l 42 22 l 129 68 l 486 924 l 563 924 l 915 72 l 1008 22 l 1008 0 l 642 0 l 642 22 l 764 71 l 661 321 l 326 321 l 225 69 l 342 22 l 342 0 l 42 0 m 358 397 l 631 397 l 494 732 l 358 397 z "},"Б":{"ha":938,"x_min":83,"x_max":872,"o":"m 485 0 l 83 0 l 83 22 l 196 78 l 196 839 l 83 894 l 83 917 l 789 917 l 789 642 l 767 642 l 669 840 l 342 840 l 342 536 l 486 536 q 690 505 603 536 q 824 416 776 474 q 872 281 872 358 q 824 135 872 199 q 690 36 776 72 q 485 0 603 0 m 465 463 l 342 463 l 342 76 l 475 76 q 658 130 597 76 q 718 269 718 183 q 657 417 718 371 q 465 463 596 463 z "},"В":{"ha":929,"x_min":83,"x_max":864,"o":"m 83 0 l 83 22 l 196 78 l 196 839 l 83 894 l 83 917 l 457 917 q 624 894 550 917 q 741 826 699 871 q 783 711 783 781 q 735 581 783 640 q 594 497 686 522 q 792 420 721 481 q 864 267 864 360 q 815 130 864 190 q 682 35 767 69 q 489 0 597 0 l 83 0 m 417 840 l 342 840 l 342 510 l 424 510 q 576 553 522 510 q 631 671 631 596 q 417 840 631 840 m 468 436 l 342 436 l 342 76 l 478 76 q 647 127 585 76 q 708 257 708 178 q 646 393 708 350 q 468 436 583 436 z "},"Г":{"ha":832,"x_min":83,"x_max":767,"o":"m 83 0 l 83 22 l 196 78 l 196 839 l 83 894 l 83 917 l 767 917 l 767 678 l 744 678 l 654 840 l 342 840 l 342 78 l 469 22 l 469 0 l 83 0 z "},"Ѓ":{"ha":832,"x_min":83,"x_max":767,"o":"m 83 0 l 83 22 l 196 78 l 196 839 l 83 894 l 83 917 l 767 917 l 767 678 l 744 678 l 654 840 l 342 840 l 342 78 l 469 22 l 469 0 l 83 0 z "},"Ғ":{"ha":832,"x_min":83,"x_max":767,"o":"m 83 0 l 83 22 l 196 78 l 196 440 l 83 440 l 83 510 l 196 510 l 196 839 l 83 894 l 83 917 l 767 917 l 767 678 l 744 678 l 654 840 l 342 840 l 342 510 l 582 510 l 582 440 l 342 440 l 342 78 l 469 22 l 469 0 l 83 0 z "},"Д":{"ha":1010,"x_min":32,"x_max":938,"o":"m 131 894 l 131 917 l 918 917 l 918 894 l 806 839 l 806 76 l 938 76 l 938 -233 l 915 -233 l 801 0 l 168 0 l 54 -233 l 32 -233 l 32 76 l 138 76 q 201 282 178 176 q 233 509 224 388 q 243 779 243 631 l 243 839 l 131 894 m 661 76 l 661 840 l 328 840 l 328 779 q 319 508 328 629 q 288 281 310 386 q 231 76 267 176 l 661 76 z "},"Е":{"ha":915,"x_min":83,"x_max":819,"o":"m 83 0 l 83 22 l 196 78 l 196 839 l 83 894 l 83 917 l 781 917 l 781 678 l 758 678 l 668 840 l 342 840 l 342 511 l 572 511 l 643 628 l 665 628 l 665 321 l 643 321 l 572 435 l 342 435 l 342 76 l 706 76 l 797 260 l 819 260 l 819 0 l 83 0 z "},"Ё":{"ha":915,"x_min":83,"x_max":819,"o":"m 83 0 l 83 22 l 196 78 l 196 839 l 83 894 l 83 917 l 781 917 l 781 678 l 758 678 l 668 840 l 342 840 l 342 511 l 572 511 l 643 628 l 665 628 l 665 321 l 643 321 l 572 435 l 342 435 l 342 76 l 706 76 l 797 260 l 819 260 l 819 0 l 83 0 m 342 1021 q 291 1041 311 1021 q 271 1092 271 1061 q 291 1142 271 1122 q 342 1163 311 1163 q 392 1142 372 1163 q 413 1092 413 1122 q 392 1041 413 1061 q 342 1021 372 1021 m 603 1021 q 551 1041 572 1021 q 531 1092 531 1061 q 551 1142 531 1122 q 603 1163 572 1163 q 653 1142 633 1163 q 674 1092 674 1122 q 653 1041 674 1061 q 603 1021 633 1021 z "},"Ж":{"ha":1429,"x_min":18,"x_max":1410,"o":"m 525 0 l 525 22 l 636 78 l 636 839 l 525 894 l 525 917 l 892 917 l 892 894 l 781 839 l 781 78 l 892 22 l 892 0 l 525 0 m 782 468 l 1150 846 l 1050 894 l 1050 917 l 1363 917 l 1363 894 l 1258 856 l 921 513 l 1324 58 l 1410 22 l 1410 0 l 1185 0 l 782 468 m 635 468 l 232 0 l 18 0 l 18 22 l 108 60 l 496 503 l 150 856 l 46 894 l 46 917 l 367 917 l 367 894 l 267 846 l 635 468 z "},"З":{"ha":901,"x_min":118,"x_max":815,"o":"m 446 931 q 605 906 533 931 q 719 835 676 882 q 761 718 761 788 q 710 581 761 644 q 564 492 660 517 q 749 413 682 474 q 815 264 815 353 q 769 123 815 186 q 638 23 722 60 q 443 -14 554 -14 q 265 6 336 -14 q 135 56 193 25 l 118 279 l 142 279 l 238 121 q 317 79 272 96 q 438 63 363 63 q 603 117 547 63 q 660 253 660 171 q 421 435 660 435 l 301 435 l 301 511 l 397 511 q 553 557 497 511 q 608 681 608 603 q 567 813 608 764 q 435 861 525 861 q 347 851 385 861 q 271 810 308 840 l 171 621 l 146 621 l 156 868 q 276 913 213 896 q 446 931 340 931 z "},"И":{"ha":1147,"x_min":83,"x_max":1064,"o":"m 83 0 l 83 22 l 196 78 l 196 839 l 83 894 l 83 917 l 451 917 l 451 894 l 342 839 l 342 228 l 807 779 l 807 839 l 696 894 l 696 917 l 1064 917 l 1064 894 l 951 839 l 951 78 l 1064 22 l 1064 0 l 696 0 l 696 22 l 807 78 l 807 678 l 342 126 l 342 78 l 451 22 l 451 0 l 83 0 z "},"Й":{"ha":1147,"x_min":83,"x_max":1064,"o":"m 83 0 l 83 22 l 196 78 l 196 839 l 83 894 l 83 917 l 451 917 l 451 894 l 342 839 l 342 228 l 807 779 l 807 839 l 696 894 l 696 917 l 1064 917 l 1064 894 l 951 839 l 951 78 l 1064 22 l 1064 0 l 696 0 l 696 22 l 807 78 l 807 678 l 342 126 l 342 78 l 451 22 l 451 0 l 83 0 m 579 986 q 401 1048 461 986 q 340 1197 340 1110 l 464 1197 q 490 1087 464 1131 q 579 1043 517 1043 q 668 1087 642 1043 q 694 1197 694 1131 l 818 1197 q 758 1048 818 1110 q 579 986 697 986 z "},"Ӣ":{"ha":1147,"x_min":83,"x_max":1064,"o":"m 83 0 l 83 22 l 196 78 l 196 839 l 83 894 l 83 917 l 451 917 l 451 894 l 342 839 l 342 228 l 807 779 l 807 839 l 696 894 l 696 917 l 1064 917 l 1064 894 l 951 839 l 951 78 l 1064 22 l 1064 0 l 696 0 l 696 22 l 807 78 l 807 678 l 342 126 l 342 78 l 451 22 l 451 0 l 83 0 z "},"К":{"ha":1017,"x_min":83,"x_max":999,"o":"m 83 0 l 83 22 l 196 78 l 196 839 l 83 894 l 83 917 l 454 917 l 454 894 l 342 839 l 342 78 l 454 22 l 454 0 l 83 0 m 342 468 l 725 847 l 626 894 l 626 917 l 926 917 l 926 894 l 839 860 l 483 511 l 911 60 l 999 22 l 999 0 l 772 0 l 342 468 z "},"Ќ":{"ha":1017,"x_min":83,"x_max":999,"o":"m 83 0 l 83 22 l 196 78 l 196 839 l 83 894 l 83 917 l 454 917 l 454 894 l 342 839 l 342 78 l 454 22 l 454 0 l 83 0 m 342 468 l 725 847 l 626 894 l 626 917 l 926 917 l 926 894 l 839 860 l 483 511 l 911 60 l 999 22 l 999 0 l 772 0 l 342 468 z "},"Л":{"ha":1001,"x_min":44,"x_max":918,"o":"m 549 0 l 549 22 l 661 78 l 661 840 l 340 840 l 340 765 q 323 375 340 525 q 265 128 306 225 q 179 13 226 40 q 92 -14 132 -14 q 53 -6 61 -14 q 44 26 44 3 l 44 110 l 51 115 l 65 115 q 180 192 139 115 q 238 413 221 268 q 256 765 256 558 l 256 839 l 142 894 l 142 917 l 918 917 l 918 894 l 806 839 l 806 78 l 918 22 l 918 0 l 549 0 z "},"М":{"ha":1344,"x_min":78,"x_max":1267,"o":"m 78 0 l 78 22 l 189 78 l 218 839 l 99 894 l 99 917 l 375 917 l 686 199 l 996 917 l 1261 917 l 1261 894 l 1143 843 l 1167 78 l 1267 22 l 1267 0 l 924 0 l 924 22 l 1028 76 l 1014 756 l 686 -7 l 619 -7 l 294 747 l 276 76 l 392 22 l 392 0 l 78 0 z "},"Н":{"ha":1133,"x_min":83,"x_max":1050,"o":"m 83 0 l 83 22 l 196 78 l 196 839 l 83 894 l 83 917 l 451 917 l 451 894 l 342 839 l 342 511 l 793 511 l 793 839 l 682 894 l 682 917 l 1050 917 l 1050 894 l 938 839 l 938 78 l 1050 22 l 1050 0 l 682 0 l 682 22 l 793 78 l 793 435 l 342 435 l 342 78 l 451 22 l 451 0 l 83 0 z "},"О":{"ha":1115,"x_min":90,"x_max":1025,"o":"m 557 -14 q 372 22 457 -14 q 223 120 286 57 q 125 269 160 183 q 90 458 90 356 q 125 647 90 561 q 223 797 160 733 q 372 895 286 860 q 557 931 457 931 q 742 895 657 931 q 891 797 828 860 q 990 647 954 733 q 1025 458 1025 561 q 990 269 1025 356 q 891 120 954 183 q 742 22 828 57 q 557 -14 657 -14 m 585 56 q 733 100 669 56 q 833 225 797 144 q 869 415 869 306 q 825 651 869 550 q 704 807 781 751 q 535 863 628 863 q 385 819 450 863 q 283 694 319 775 q 246 504 246 614 q 291 268 246 369 q 413 111 336 167 q 585 56 490 56 z "},"П":{"ha":1093,"x_min":83,"x_max":1010,"o":"m 83 0 l 83 22 l 196 78 l 196 839 l 83 894 l 83 917 l 1010 917 l 1010 894 l 897 839 l 897 78 l 1010 22 l 1010 0 l 643 0 l 643 22 l 753 78 l 753 840 l 342 840 l 342 78 l 450 22 l 450 0 l 83 0 z "},"Р":{"ha":901,"x_min":83,"x_max":835,"o":"m 83 0 l 83 22 l 196 78 l 196 839 l 83 894 l 83 917 l 472 917 q 735 857 636 917 q 835 668 835 797 q 783 533 835 592 q 642 440 731 474 q 439 406 553 406 l 342 406 l 342 78 l 469 22 l 469 0 l 83 0 m 342 840 l 342 479 l 447 479 q 619 529 557 479 q 682 657 682 579 q 619 797 682 754 q 438 840 556 840 l 342 840 z "},"С":{"ha":1003,"x_min":90,"x_max":883,"o":"m 556 -14 q 308 44 413 -14 q 147 204 204 103 q 90 435 90 306 q 129 624 90 535 q 235 782 168 713 q 390 891 303 851 q 576 931 478 931 q 696 922 647 931 q 783 898 744 913 q 860 864 821 883 l 868 617 l 843 617 l 747 797 q 662 846 700 831 q 576 861 624 861 q 404 811 481 861 q 284 673 328 761 q 240 469 240 585 q 283 248 240 340 q 397 107 325 156 q 557 58 469 58 q 678 78 629 58 q 767 124 728 97 l 860 279 l 883 279 l 867 56 q 736 6 806 25 q 556 -14 667 -14 z "},"Т":{"ha":944,"x_min":60,"x_max":885,"o":"m 260 0 l 260 22 l 400 78 l 400 840 l 181 840 l 82 631 l 60 631 l 60 917 l 885 917 l 885 631 l 863 631 l 765 840 l 544 840 l 544 78 l 686 22 l 686 0 l 260 0 z "},"У":{"ha":994,"x_min":43,"x_max":968,"o":"m 461 67 q 375 -1 415 13 q 300 -14 335 -14 q 261 -6 269 -14 q 253 26 253 3 l 253 110 l 258 115 l 275 115 q 391 140 349 115 q 467 217 433 164 l 143 842 l 43 894 l 43 917 l 411 917 l 411 894 l 290 842 l 532 372 l 554 372 l 790 846 l 675 894 l 675 917 l 968 917 l 968 894 l 883 849 l 597 285 q 461 67 525 143 z "},"Ў":{"ha":994,"x_min":43,"x_max":968,"o":"m 461 67 q 375 -1 415 13 q 300 -14 335 -14 q 261 -6 269 -14 q 253 26 253 3 l 253 110 l 258 115 l 275 115 q 391 140 349 115 q 467 217 433 164 l 143 842 l 43 894 l 43 917 l 411 917 l 411 894 l 290 842 l 532 372 l 554 372 l 790 846 l 675 894 l 675 917 l 968 917 l 968 894 l 883 849 l 597 285 q 461 67 525 143 m 546 986 q 367 1048 428 986 q 307 1197 307 1110 l 431 1197 q 457 1087 431 1131 q 546 1043 483 1043 q 635 1087 608 1043 q 661 1197 661 1131 l 785 1197 q 724 1048 785 1110 q 546 986 664 986 z "},"Ӯ":{"ha":994,"x_min":43,"x_max":968,"o":"m 461 67 q 375 -1 415 13 q 300 -14 335 -14 q 261 -6 269 -14 q 253 26 253 3 l 253 110 l 258 115 l 275 115 q 391 140 349 115 q 467 217 433 164 l 143 842 l 43 894 l 43 917 l 411 917 l 411 894 l 290 842 l 532 372 l 554 372 l 790 846 l 675 894 l 675 917 l 968 917 l 968 894 l 883 849 l 597 285 q 461 67 525 143 z "},"Ф":{"ha":1183,"x_min":40,"x_max":1143,"o":"m 408 -28 l 408 -6 l 521 50 l 521 111 q 262 158 369 115 q 97 274 154 200 q 40 444 40 347 q 97 622 40 542 q 262 752 154 703 q 521 806 369 801 l 521 867 l 408 922 l 408 944 l 779 944 l 779 922 l 667 867 l 667 806 q 1023 708 903 800 q 1143 472 1143 617 q 1090 294 1143 375 q 930 165 1036 214 q 667 111 824 115 l 667 50 l 779 -6 l 779 -28 l 408 -28 m 521 738 q 277 667 360 738 q 194 490 194 597 q 281 275 194 356 q 521 182 367 194 l 521 738 m 989 429 q 908 644 989 564 q 667 736 828 725 l 667 181 q 853 213 782 181 q 956 302 924 246 q 989 429 989 358 z "},"Х":{"ha":1040,"x_min":46,"x_max":996,"o":"m 46 0 l 46 22 l 147 74 l 443 451 l 154 844 l 65 894 l 65 917 l 439 917 l 439 894 l 328 842 l 328 835 l 543 549 l 768 836 l 768 842 l 661 894 l 661 917 l 961 917 l 961 894 l 872 844 l 590 486 l 897 76 l 996 22 l 996 0 l 615 0 l 615 22 l 717 72 l 717 78 l 489 389 l 251 79 l 251 74 l 363 22 l 363 0 l 46 0 z "},"Ц":{"ha":1101,"x_min":83,"x_max":1029,"o":"m 893 0 l 83 0 l 83 22 l 196 78 l 196 839 l 83 894 l 83 917 l 450 917 l 450 894 l 340 839 l 340 76 l 753 76 l 753 839 l 643 894 l 643 917 l 1010 917 l 1010 894 l 897 839 l 897 76 l 1029 76 l 1029 -233 l 1007 -233 l 893 0 z "},"Ч":{"ha":1031,"x_min":22,"x_max":947,"o":"m 560 0 l 560 22 l 689 78 l 689 421 q 584 392 642 404 q 453 381 526 381 q 287 407 358 381 q 176 501 215 433 q 138 690 138 568 l 138 836 l 22 894 l 22 917 l 393 917 l 393 894 l 282 836 l 282 682 q 333 508 282 556 q 506 461 383 461 q 599 467 551 461 q 689 493 646 474 l 689 836 l 579 894 l 579 917 l 947 917 l 947 894 l 835 836 l 835 78 l 947 22 l 947 0 l 560 0 z "},"Ш":{"ha":1485,"x_min":83,"x_max":1401,"o":"m 449 917 l 449 894 l 340 839 l 340 76 l 669 76 l 669 839 l 563 894 l 563 917 l 922 917 l 922 894 l 815 839 l 815 76 l 1144 76 l 1144 839 l 1038 894 l 1038 917 l 1401 917 l 1401 894 l 1289 839 l 1289 78 l 1401 22 l 1401 0 l 83 0 l 83 22 l 196 78 l 196 839 l 83 894 l 83 917 l 449 917 z "},"Щ":{"ha":1493,"x_min":83,"x_max":1421,"o":"m 449 917 l 449 894 l 340 839 l 340 76 l 669 76 l 669 839 l 563 894 l 563 917 l 922 917 l 922 894 l 815 839 l 815 76 l 1144 76 l 1144 839 l 1038 894 l 1038 917 l 1401 917 l 1401 894 l 1289 839 l 1289 76 l 1421 76 l 1421 -233 l 1399 -233 l 1285 0 l 83 0 l 83 22 l 196 78 l 196 839 l 83 894 l 83 917 l 449 917 z "},"Ъ":{"ha":1029,"x_min":36,"x_max":986,"o":"m 600 0 l 199 0 l 199 22 l 311 78 l 311 840 l 157 840 l 58 631 l 36 631 l 36 917 l 597 917 l 597 894 l 456 839 l 456 540 l 601 540 q 805 508 718 540 q 939 418 892 476 q 986 281 986 360 q 938 136 986 200 q 803 36 890 72 q 600 0 717 0 m 581 464 l 456 464 l 456 76 l 590 76 q 773 131 713 76 q 833 271 833 186 q 772 418 833 372 q 581 464 711 464 z "},"Ы":{"ha":1463,"x_min":83,"x_max":1374,"o":"m 485 0 l 83 0 l 83 22 l 196 78 l 196 839 l 83 894 l 83 917 l 482 917 l 482 894 l 342 839 l 342 540 l 486 540 q 690 508 603 540 q 824 418 776 476 q 872 281 872 360 q 824 136 872 200 q 690 36 776 72 q 485 0 603 0 m 465 464 l 342 464 l 342 76 l 475 76 q 658 131 597 76 q 718 271 718 186 q 657 418 718 372 q 465 464 596 464 m 1003 0 l 1003 22 l 1117 78 l 1117 839 l 1003 894 l 1003 917 l 1374 917 l 1374 894 l 1261 839 l 1261 78 l 1374 22 l 1374 0 l 1003 0 z "},"Ь":{"ha":914,"x_min":83,"x_max":872,"o":"m 485 0 l 83 0 l 83 22 l 196 78 l 196 839 l 83 894 l 83 917 l 482 917 l 482 894 l 342 839 l 342 540 l 486 540 q 690 508 603 540 q 824 418 776 476 q 872 281 872 360 q 824 136 872 200 q 690 36 776 72 q 485 0 603 0 m 465 464 l 342 464 l 342 76 l 475 76 q 658 131 597 76 q 718 271 718 186 q 657 418 718 372 q 465 464 596 464 z "},"Э":{"ha":1015,"x_min":118,"x_max":925,"o":"m 465 58 q 622 102 553 58 q 730 226 690 146 q 769 415 769 306 q 769 435 769 425 l 438 435 l 367 321 l 344 321 l 344 628 l 367 628 l 438 511 l 763 511 q 701 698 747 619 q 585 819 654 776 q 432 861 515 861 q 343 851 382 861 q 265 811 304 840 l 165 621 l 140 621 l 150 868 q 279 913 207 896 q 457 931 351 931 q 644 895 558 931 q 792 797 729 860 q 890 647 856 733 q 925 458 925 561 q 867 215 925 322 q 703 47 808 108 q 457 -14 597 -14 q 270 6 346 -14 q 135 56 194 25 l 118 279 l 142 279 l 235 124 q 328 78 275 97 q 465 58 382 58 z "},"Ю":{"ha":1490,"x_min":83,"x_max":1400,"o":"m 83 0 l 83 22 l 196 78 l 196 839 l 83 894 l 83 917 l 451 917 l 451 894 l 342 839 l 342 511 l 496 511 q 568 728 507 633 q 727 876 629 822 q 946 931 825 931 q 1126 895 1043 931 q 1270 797 1208 860 q 1366 647 1332 733 q 1400 458 1400 561 q 1366 269 1400 356 q 1270 120 1332 183 q 1126 22 1208 57 q 946 -14 1043 -14 q 719 44 819 -14 q 559 203 619 101 q 493 435 499 304 l 342 435 l 342 78 l 451 22 l 451 0 l 83 0 m 974 56 q 1114 100 1053 56 q 1210 225 1175 144 q 1244 415 1244 306 q 1201 651 1244 550 q 1086 807 1158 751 q 924 863 1014 863 q 781 819 843 863 q 684 694 719 775 q 649 504 649 614 q 692 268 649 369 q 810 111 736 167 q 974 56 883 56 z "},"Я":{"ha":986,"x_min":44,"x_max":903,"o":"m 260 0 l 44 0 l 44 22 l 139 74 l 389 421 q 219 513 276 447 q 161 656 161 578 q 256 849 161 782 q 550 917 351 917 l 903 917 l 903 894 l 790 839 l 790 78 l 903 22 l 903 0 l 535 0 l 535 22 l 646 79 l 646 396 l 528 396 l 260 0 m 553 469 l 646 469 l 646 840 l 561 840 q 375 792 436 840 q 314 658 314 744 q 375 523 314 576 q 553 469 436 469 z "},"Ґ":{"ha":790,"x_min":83,"x_max":767,"o":"m 83 0 l 83 22 l 196 78 l 196 839 l 83 894 l 83 917 l 631 917 l 744 1150 l 767 1150 l 767 840 l 342 840 l 342 78 l 469 22 l 469 0 l 83 0 z "},"Қ":{"ha":1029,"x_min":83,"x_max":1022,"o":"m 83 0 l 83 22 l 196 78 l 196 839 l 83 894 l 83 917 l 454 917 l 454 894 l 342 839 l 342 78 l 454 22 l 454 0 l 83 0 m 342 468 l 725 847 l 626 894 l 626 917 l 926 917 l 926 894 l 839 860 l 483 511 l 894 76 l 1022 76 l 1022 -233 l 1000 -233 l 885 0 l 772 0 l 342 468 z "},"Җ":{"ha":1442,"x_min":18,"x_max":1435,"o":"m 525 0 l 525 22 l 636 78 l 636 839 l 525 894 l 525 917 l 892 917 l 892 894 l 781 839 l 781 78 l 892 22 l 892 0 l 525 0 m 782 468 l 1150 846 l 1050 894 l 1050 917 l 1363 917 l 1363 894 l 1258 856 l 921 513 l 1308 76 l 1435 76 l 1435 -233 l 1413 -233 l 1299 0 l 1185 0 l 782 468 m 635 468 l 232 0 l 18 0 l 18 22 l 108 60 l 496 503 l 150 856 l 46 894 l 46 917 l 367 917 l 367 894 l 267 846 l 635 468 z "},"Ҳ":{"ha":1032,"x_min":46,"x_max":1022,"o":"m 46 0 l 46 22 l 147 74 l 443 451 l 154 844 l 65 894 l 65 917 l 439 917 l 439 894 l 328 842 l 328 835 l 543 549 l 768 836 l 768 842 l 661 894 l 661 917 l 961 917 l 961 894 l 872 844 l 590 486 l 897 76 l 1022 76 l 1022 -233 l 1000 -233 l 886 0 l 615 0 l 615 22 l 717 72 l 717 78 l 489 389 l 251 79 l 251 74 l 363 22 l 363 0 l 46 0 z "},"Ң":{"ha":1142,"x_min":83,"x_max":1069,"o":"m 83 0 l 83 22 l 196 78 l 196 839 l 83 894 l 83 917 l 451 917 l 451 894 l 342 839 l 342 511 l 793 511 l 793 839 l 682 894 l 682 917 l 1050 917 l 1050 894 l 938 839 l 938 76 l 1069 76 l 1069 -233 l 1047 -233 l 933 0 l 682 0 l 682 22 l 793 78 l 793 435 l 342 435 l 342 78 l 451 22 l 451 0 l 83 0 z "},"Ҷ":{"ha":1038,"x_min":22,"x_max":967,"o":"m 138 690 l 138 836 l 22 894 l 22 917 l 393 917 l 393 894 l 282 836 l 282 682 q 333 508 282 556 q 506 461 383 461 q 599 467 551 461 q 689 493 646 474 l 689 836 l 579 894 l 579 917 l 947 917 l 947 894 l 835 836 l 835 76 l 967 76 l 967 -233 l 944 -233 l 831 0 l 560 0 l 560 22 l 689 78 l 689 421 q 584 392 642 404 q 453 381 526 381 q 287 407 358 381 q 176 501 215 433 q 138 690 138 568 z "},"Ү":{"ha":1010,"x_min":43,"x_max":965,"o":"m 313 0 l 313 22 l 438 78 l 438 428 l 131 846 l 43 894 l 43 917 l 401 917 l 401 894 l 300 844 l 300 839 l 546 504 l 768 838 l 768 843 l 665 894 l 665 917 l 965 917 l 965 894 l 875 849 l 582 429 l 582 78 l 707 22 l 707 0 l 313 0 z "},"Ұ":{"ha":1010,"x_min":43,"x_max":965,"o":"m 313 0 l 313 22 l 438 78 l 438 358 l 235 358 l 235 429 l 436 429 l 131 846 l 43 894 l 43 917 l 401 917 l 401 894 l 300 844 l 300 839 l 546 504 l 768 838 l 768 843 l 665 894 l 665 917 l 965 917 l 965 894 l 875 849 l 582 429 l 785 429 l 785 358 l 582 358 l 582 78 l 707 22 l 707 0 l 313 0 z "},"Һ":{"ha":1031,"x_min":83,"x_max":1008,"o":"m 471 917 l 471 894 l 342 839 l 342 496 q 447 524 389 513 q 578 536 504 536 q 744 510 672 536 q 854 416 815 483 q 893 226 893 349 l 893 81 l 1008 22 l 1008 0 l 638 0 l 638 22 l 749 81 l 749 235 q 698 408 749 361 q 525 456 647 456 q 432 449 479 456 q 342 424 385 443 l 342 81 l 451 22 l 451 0 l 83 0 l 83 22 l 196 81 l 196 839 l 83 894 l 83 917 l 471 917 z "},"Ӏ":{"ha":549,"x_min":89,"x_max":460,"o":"m 89 0 l 89 22 l 203 78 l 203 839 l 89 894 l 89 917 l 460 917 l 460 894 l 347 839 l 347 78 l 460 22 l 460 0 l 89 0 z "},"Ә":{"ha":963,"x_min":90,"x_max":872,"o":"m 440 -14 q 186 96 281 -14 q 92 406 92 206 l 103 415 l 722 415 q 722 429 722 421 q 646 701 722 603 q 397 800 569 800 q 240 773 311 800 q 96 699 168 746 l 90 699 l 90 724 q 233 872 139 813 q 451 931 326 931 q 675 877 581 931 q 821 726 769 824 q 872 499 872 629 q 817 233 872 349 q 664 51 761 117 q 440 -14 567 -14 m 461 64 q 640 136 575 64 q 718 346 704 208 l 231 346 q 304 142 244 219 q 461 64 364 64 z "},"Ө":{"ha":1115,"x_min":90,"x_max":1025,"o":"m 557 -14 q 372 22 457 -14 q 223 120 286 57 q 125 269 160 183 q 90 458 90 356 q 125 647 90 561 q 223 797 160 733 q 372 895 286 860 q 557 931 457 931 q 742 895 657 931 q 891 797 828 860 q 990 647 954 733 q 1025 458 1025 561 q 990 269 1025 356 q 891 120 954 183 q 742 22 828 57 q 557 -14 657 -14 m 535 863 q 385 819 450 863 q 283 696 319 775 q 246 510 246 617 l 863 510 q 802 697 849 618 q 686 819 756 776 q 535 863 617 863 m 585 56 q 733 100 669 56 q 833 225 797 144 q 869 415 869 306 q 869 439 869 428 l 249 439 q 307 236 260 322 q 426 103 354 150 q 585 56 499 56 z "},"Ѣ":{"ha":1021,"x_min":33,"x_max":978,"o":"m 593 0 l 192 0 l 192 22 l 304 78 l 304 678 l 154 678 l 56 526 l 33 526 l 33 754 l 304 754 l 304 839 l 192 894 l 192 917 l 567 917 l 567 894 l 450 839 l 450 754 l 763 754 l 763 526 l 740 526 l 642 678 l 450 678 l 450 481 l 594 481 q 797 452 711 481 q 931 372 883 424 q 978 251 978 321 q 931 121 978 178 q 797 32 883 64 q 593 0 710 0 m 575 404 l 450 404 l 450 76 l 585 76 q 765 123 706 76 q 825 242 825 169 q 765 365 825 326 q 575 404 704 404 z "},"Ѳ":{"ha":1115,"x_min":90,"x_max":1025,"o":"m 557 -14 q 372 22 457 -14 q 223 120 286 57 q 125 269 160 183 q 90 458 90 356 q 125 647 90 561 q 223 797 160 733 q 372 895 286 860 q 557 931 457 931 q 742 895 657 931 q 891 797 828 860 q 990 647 954 733 q 1025 458 1025 561 q 990 269 1025 356 q 891 120 954 183 q 742 22 828 57 q 557 -14 657 -14 m 246 504 q 246 479 246 492 q 394 533 321 525 q 534 531 467 542 q 663 503 601 519 q 774 482 724 488 q 865 497 825 476 q 805 691 851 608 q 688 818 758 774 q 535 863 618 863 q 385 819 450 863 q 283 694 319 775 q 246 504 246 614 m 585 56 q 733 100 669 56 q 833 225 797 144 q 869 415 869 306 q 869 442 869 429 q 734 387 801 396 q 602 390 667 378 q 476 419 538 403 q 358 442 415 436 q 250 426 301 449 q 310 230 263 313 q 428 101 357 147 q 585 56 500 56 z "},"Ѵ":{"ha":1032,"x_min":43,"x_max":1032,"o":"m 722 632 q 781 763 751 706 q 840 854 810 819 q 919 918 883 906 q 985 931 956 931 q 1024 922 1017 931 q 1032 890 1032 914 l 1032 807 l 1026 801 l 1010 801 q 922 784 956 801 q 864 731 888 767 q 818 642 840 694 l 550 -7 l 494 -7 l 139 844 l 43 894 l 43 917 l 411 917 l 411 894 l 290 842 l 549 219 l 557 219 l 722 632 z "},"ȷ":{"ha":442,"x_min":69,"x_max":288,"o":"m 288 8 q 242 -181 288 -103 q 69 -319 196 -260 l 69 -296 q 122 -233 103 -267 q 149 -151 140 -199 q 157 -29 157 -103 l 157 482 l 72 553 l 72 564 l 276 640 l 288 640 l 288 8 z "},"ĸ":{"ha":790,"x_min":61,"x_max":758,"o":"m 61 0 l 61 22 l 150 67 l 150 482 l 65 553 l 65 564 l 271 640 l 281 640 l 281 357 l 501 546 l 501 554 l 433 604 l 433 626 l 704 626 l 704 604 l 615 556 l 396 386 l 669 69 l 758 22 l 758 0 l 554 0 l 504 72 l 281 333 l 281 63 l 378 22 l 378 0 l 61 0 z "},"ẗ":{"ha":503,"x_min":22,"x_max":463,"o":"m 293 -14 q 180 22 226 -14 q 133 124 133 58 l 133 563 l 22 563 l 22 574 l 143 626 l 251 779 l 264 779 l 264 626 l 449 626 l 449 563 l 264 563 l 264 150 q 295 97 264 114 q 369 81 326 81 q 418 83 396 81 q 458 90 440 86 l 463 90 l 463 74 q 402 14 446 42 q 293 -14 358 -14 m 100 925 q 49 945 69 925 q 29 996 29 965 q 49 1047 29 1026 q 100 1067 69 1067 q 151 1047 131 1067 q 171 996 171 1026 q 151 945 171 965 q 100 925 131 925 m 361 925 q 310 945 331 925 q 289 996 289 965 q 310 1047 289 1026 q 361 1067 331 1067 q 412 1047 392 1067 q 432 996 432 1026 q 412 945 432 965 q 361 925 392 925 z "},"a":{"ha":922,"x_min":42,"x_max":881,"o":"m 42 0 l 42 22 l 113 60 l 421 785 l 493 785 l 799 63 l 881 22 l 881 0 l 558 0 l 558 22 l 656 63 l 569 268 l 283 268 l 199 61 l 300 22 l 300 0 l 42 0 m 313 338 l 540 338 l 425 614 l 313 338 z "},"b":{"ha":828,"x_min":83,"x_max":763,"o":"m 83 0 l 83 22 l 183 68 l 183 710 l 83 756 l 83 778 l 392 778 q 613 733 536 778 q 690 600 690 689 q 649 485 690 533 q 533 417 607 436 q 701 351 640 401 q 763 224 763 301 q 721 109 763 160 q 604 29 679 58 q 431 0 529 0 l 83 0 m 361 708 l 321 708 l 321 438 l 364 438 q 498 470 446 438 q 550 575 550 503 q 501 674 550 640 q 361 708 453 708 m 406 368 l 321 368 l 321 69 l 415 69 q 562 106 506 69 q 618 219 618 142 q 561 335 618 303 q 406 368 504 368 z "},"c":{"ha":914,"x_min":90,"x_max":793,"o":"m 510 -14 q 294 36 389 -14 q 144 174 199 86 q 90 371 90 261 q 126 541 90 464 q 222 674 161 618 q 363 762 283 731 q 529 793 442 793 q 631 785 589 793 q 708 764 674 778 q 775 735 742 750 l 781 536 l 758 536 l 678 676 q 608 713 643 703 q 529 724 572 724 q 374 681 442 724 q 269 563 307 638 q 231 393 231 488 q 312 143 231 231 q 531 56 393 56 q 607 62 574 56 q 671 85 640 68 l 771 233 l 793 233 l 781 46 q 666 3 731 19 q 510 -14 601 -14 z "},"d":{"ha":964,"x_min":83,"x_max":875,"o":"m 83 0 l 83 22 l 185 68 l 185 710 l 83 756 l 83 778 l 438 778 q 675 733 578 778 q 824 608 772 688 q 875 424 875 528 q 821 201 875 296 q 667 53 767 106 q 429 0 567 0 l 83 0 m 408 708 l 322 708 l 322 69 l 418 69 q 651 158 569 69 q 732 393 732 246 q 649 627 732 546 q 408 708 565 708 z "},"e":{"ha":821,"x_min":83,"x_max":729,"o":"m 83 0 l 83 22 l 183 68 l 183 710 l 83 756 l 83 778 l 694 778 l 694 578 l 672 578 l 600 708 l 321 708 l 321 438 l 524 438 l 571 533 l 593 533 l 593 274 l 571 274 l 524 368 l 321 368 l 321 69 l 631 69 l 707 226 l 729 226 l 729 0 l 83 0 z "},"f":{"ha":783,"x_min":83,"x_max":692,"o":"m 83 0 l 83 22 l 185 68 l 185 710 l 85 756 l 85 778 l 692 778 l 692 578 l 669 578 l 603 707 l 322 707 l 322 438 l 522 438 l 569 533 l 590 533 l 590 274 l 569 274 l 522 368 l 322 368 l 322 68 l 439 22 l 439 0 l 83 0 z "},"g":{"ha":949,"x_min":90,"x_max":885,"o":"m 499 -14 q 290 35 382 -14 q 144 171 197 85 q 90 368 90 257 q 124 537 90 460 q 218 672 158 614 q 356 760 278 729 q 524 792 435 792 q 673 776 617 792 q 781 735 729 760 l 789 535 l 768 535 l 685 674 q 603 718 638 706 q 525 731 569 731 q 366 690 435 731 q 259 579 297 650 q 221 419 221 508 q 261 224 221 306 q 372 99 301 143 q 531 56 442 56 q 602 60 567 56 q 674 79 638 65 l 674 278 l 567 326 l 567 347 l 885 347 l 885 326 l 801 275 l 801 86 q 715 33 767 56 q 607 -1 664 11 q 499 -14 550 -14 z "},"h":{"ha":1031,"x_min":83,"x_max":947,"o":"m 83 0 l 83 22 l 183 68 l 183 710 l 83 756 l 83 778 l 422 778 l 422 756 l 321 710 l 321 438 l 713 438 l 713 710 l 611 756 l 611 778 l 947 778 l 947 756 l 850 710 l 850 68 l 947 22 l 947 0 l 611 0 l 611 22 l 713 68 l 713 368 l 321 368 l 321 68 l 422 22 l 422 0 l 83 0 z "},"i":{"ha":504,"x_min":89,"x_max":415,"o":"m 89 0 l 89 22 l 181 68 l 181 710 l 89 756 l 89 778 l 415 778 l 415 756 l 319 710 l 319 68 l 415 22 l 415 0 l 89 0 z "},"ı":{"ha":504,"x_min":89,"x_max":415,"o":"m 89 0 l 89 22 l 181 68 l 181 710 l 89 756 l 89 778 l 415 778 l 415 756 l 319 710 l 319 68 l 415 22 l 415 0 l 89 0 z "},"j":{"ha":504,"x_min":19,"x_max":414,"o":"m 65 -204 q 33 -197 47 -204 q 19 -165 19 -189 q 23 -146 19 -164 q 32 -96 26 -128 l 40 -96 q 70 -103 58 -100 q 96 -107 82 -107 q 142 -94 124 -107 q 170 -41 161 -81 q 179 76 179 -1 l 179 710 l 82 757 l 82 778 l 414 778 l 414 757 l 317 710 l 317 265 q 283 26 317 122 q 207 -114 249 -69 q 133 -183 164 -162 q 65 -204 103 -204 z "},"k":{"ha":956,"x_min":83,"x_max":914,"o":"m 83 0 l 83 22 l 185 68 l 185 710 l 83 756 l 83 778 l 422 778 l 422 756 l 322 710 l 322 68 l 422 22 l 422 0 l 83 0 m 694 0 l 322 396 l 644 717 l 557 756 l 557 778 l 836 778 l 836 756 l 757 725 l 458 439 l 817 60 l 914 22 l 914 0 l 694 0 z "},"l":{"ha":813,"x_min":83,"x_max":721,"o":"m 83 0 l 83 22 l 183 68 l 183 710 l 83 756 l 83 778 l 433 778 l 433 756 l 321 710 l 321 69 l 611 69 l 699 274 l 721 274 l 721 0 l 83 0 z "},"m":{"ha":1219,"x_min":78,"x_max":1142,"o":"m 78 0 l 78 22 l 176 68 l 203 710 l 96 756 l 96 778 l 364 778 l 618 208 l 881 778 l 1136 778 l 1136 756 l 1033 718 l 1053 68 l 1142 22 l 1142 0 l 819 0 l 819 22 l 913 67 l 900 643 l 601 -6 l 560 -6 l 274 642 l 260 67 l 361 22 l 361 0 l 78 0 z "},"n":{"ha":1008,"x_min":78,"x_max":931,"o":"m 78 0 l 78 22 l 176 68 l 176 711 l 78 756 l 78 778 l 285 778 l 754 221 l 754 711 l 632 756 l 632 778 l 931 778 l 931 756 l 832 711 l 832 -6 l 768 -6 l 256 599 l 256 72 l 379 22 l 379 0 l 78 0 z "},"o":{"ha":985,"x_min":90,"x_max":894,"o":"m 492 -14 q 285 38 375 -14 q 142 181 194 90 q 90 389 90 272 q 142 597 90 506 q 285 741 194 689 q 492 793 375 793 q 699 741 608 793 q 842 597 790 689 q 894 389 894 506 q 842 181 894 272 q 699 38 790 90 q 492 -14 608 -14 m 514 56 q 690 138 626 56 q 754 354 754 219 q 719 547 754 464 q 619 677 683 631 q 474 724 556 724 q 297 642 363 724 q 231 428 231 561 q 267 233 231 317 q 367 103 303 150 q 514 56 431 56 z "},"p":{"ha":801,"x_min":83,"x_max":735,"o":"m 83 0 l 83 22 l 185 68 l 185 710 l 83 756 l 83 778 l 418 778 q 654 724 574 778 q 735 558 735 671 q 692 438 735 489 q 573 359 649 386 q 399 332 497 332 l 322 332 l 322 68 l 439 22 l 439 0 l 83 0 m 322 708 l 322 400 l 390 400 q 538 441 483 400 q 592 556 592 482 q 537 673 592 638 q 382 708 482 708 l 322 708 z "},"q":{"ha":1010,"x_min":90,"x_max":1028,"o":"m 854 -208 q 737 -194 797 -208 q 601 -136 676 -179 q 421 -8 525 -93 q 249 62 324 7 q 132 201 174 117 q 90 389 90 285 q 142 597 90 506 q 285 741 194 689 q 492 793 375 793 q 699 741 608 793 q 842 597 790 689 q 894 389 894 506 q 858 214 894 293 q 758 80 822 135 q 608 1 693 25 q 742 -94 683 -60 q 847 -144 800 -129 q 939 -160 894 -160 q 990 -156 968 -160 q 1028 -147 1013 -153 l 1028 -171 q 952 -198 997 -187 q 854 -208 907 -208 m 514 56 q 690 138 626 56 q 754 354 754 219 q 719 547 754 464 q 619 677 683 631 q 474 724 556 724 q 297 642 363 724 q 231 428 231 561 q 267 233 231 317 q 367 103 303 150 q 514 56 431 56 z "},"r":{"ha":835,"x_min":83,"x_max":843,"o":"m 83 0 l 83 22 l 185 68 l 185 710 l 83 756 l 83 778 l 419 778 q 622 726 547 778 q 696 582 696 674 q 655 467 696 515 q 538 392 614 419 l 751 65 l 843 22 l 843 0 l 625 0 l 406 354 l 321 354 l 321 69 l 413 22 l 413 0 l 83 0 m 386 710 l 321 710 l 321 422 l 392 422 q 510 461 467 422 q 553 567 553 500 q 509 674 553 638 q 386 710 465 710 z "},"s":{"ha":688,"x_min":79,"x_max":614,"o":"m 332 -14 q 202 1 257 -14 q 92 44 147 17 l 79 233 l 101 233 l 174 104 q 253 64 211 75 q 338 53 294 53 q 456 83 414 53 q 497 178 497 114 q 472 251 497 225 q 397 301 447 278 q 274 358 347 324 q 147 445 186 400 q 108 567 108 490 q 144 679 108 628 q 238 762 179 731 q 367 793 297 793 q 476 778 426 793 q 572 740 526 764 l 583 558 l 561 558 l 497 681 q 369 726 440 726 q 265 694 303 726 q 226 606 226 661 q 244 545 226 569 q 301 499 263 521 q 399 449 339 478 q 524 379 476 411 q 592 308 571 347 q 614 208 614 268 q 577 93 614 143 q 476 15 540 43 q 332 -14 413 -14 z "},"t":{"ha":858,"x_min":60,"x_max":799,"o":"m 235 0 l 235 22 l 360 68 l 360 708 l 156 708 l 82 539 l 60 539 l 60 778 l 799 778 l 799 539 l 776 539 l 701 708 l 497 708 l 497 68 l 624 22 l 624 0 l 235 0 z "},"u":{"ha":1028,"x_min":83,"x_max":944,"o":"m 518 -14 q 347 17 422 -14 q 228 119 271 49 q 185 304 185 189 l 185 710 l 83 756 l 83 778 l 424 778 l 424 756 l 322 710 l 322 311 q 383 118 322 172 q 547 64 444 64 q 656 87 607 64 q 735 158 706 110 q 764 281 764 206 l 764 713 l 647 756 l 647 778 l 944 778 l 944 756 l 846 711 l 846 301 q 804 119 846 189 q 689 18 763 50 q 518 -14 615 -14 z "},"v":{"ha":913,"x_min":43,"x_max":868,"o":"m 429 -7 l 125 717 l 43 756 l 43 778 l 371 778 l 371 756 l 274 715 l 490 190 l 499 190 l 713 715 l 611 756 l 611 778 l 868 778 l 868 756 l 799 717 l 489 -7 l 429 -7 z "},"w":{"ha":1244,"x_min":19,"x_max":1225,"o":"m 336 -6 l 113 714 l 19 756 l 19 778 l 361 778 l 361 756 l 257 717 l 404 222 l 414 222 l 635 782 l 697 782 l 908 222 l 915 222 l 1056 714 l 951 756 l 951 778 l 1225 778 l 1225 756 l 1142 714 l 921 -6 l 853 -6 l 633 560 l 628 560 l 404 -6 l 336 -6 z "},"x":{"ha":954,"x_min":43,"x_max":910,"o":"m 43 0 l 43 22 l 146 68 l 403 389 l 154 717 l 64 756 l 64 778 l 415 778 l 415 756 l 319 711 l 319 706 l 500 469 l 681 706 l 681 710 l 590 756 l 590 778 l 872 778 l 872 756 l 785 715 l 542 415 l 806 69 l 910 22 l 910 0 l 554 0 l 554 22 l 643 64 l 643 69 l 446 331 l 246 71 l 246 67 l 342 22 l 342 0 l 43 0 z "},"y":{"ha":904,"x_min":43,"x_max":861,"o":"m 279 0 l 279 22 l 388 68 l 388 368 l 135 711 l 43 756 l 43 778 l 376 778 l 376 756 l 292 714 l 292 708 l 493 440 l 676 707 l 676 711 l 588 756 l 588 778 l 861 778 l 861 756 l 769 713 l 525 365 l 525 68 l 633 22 l 633 0 l 279 0 z "},"z":{"ha":854,"x_min":124,"x_max":732,"o":"m 124 0 l 124 31 l 540 708 l 232 708 l 160 551 l 138 551 l 138 778 l 718 778 l 718 747 l 300 69 l 633 69 l 710 239 l 732 239 l 732 0 l 124 0 z "},"à":{"ha":922,"x_min":42,"x_max":881,"o":"m 42 0 l 42 22 l 113 60 l 421 785 l 493 785 l 799 63 l 881 22 l 881 0 l 558 0 l 558 22 l 656 63 l 569 268 l 283 268 l 199 61 l 300 22 l 300 0 l 42 0 m 313 338 l 540 338 l 425 614 l 313 338 m 447 882 l 272 1039 q 233 1085 243 1064 q 224 1128 224 1106 l 347 1128 l 467 882 l 447 882 z "},"á":{"ha":922,"x_min":42,"x_max":881,"o":"m 42 0 l 42 22 l 113 60 l 421 785 l 493 785 l 799 63 l 881 22 l 881 0 l 558 0 l 558 22 l 656 63 l 569 268 l 283 268 l 199 61 l 300 22 l 300 0 l 42 0 m 313 338 l 540 338 l 425 614 l 313 338 m 454 882 l 574 1128 l 697 1128 q 688 1085 697 1106 q 649 1039 678 1064 l 474 882 l 454 882 z "},"â":{"ha":922,"x_min":42,"x_max":881,"o":"m 42 0 l 42 22 l 113 60 l 421 785 l 493 785 l 799 63 l 881 22 l 881 0 l 558 0 l 558 22 l 656 63 l 569 268 l 283 268 l 199 61 l 300 22 l 300 0 l 42 0 m 313 338 l 540 338 l 425 614 l 313 338 m 249 882 l 433 1128 l 481 1128 l 665 882 l 646 882 l 457 1010 l 268 882 l 249 882 z "},"ã":{"ha":922,"x_min":42,"x_max":881,"o":"m 42 0 l 42 22 l 113 60 l 421 785 l 493 785 l 799 63 l 881 22 l 881 0 l 558 0 l 558 22 l 656 63 l 569 268 l 283 268 l 199 61 l 300 22 l 300 0 l 42 0 m 313 338 l 540 338 l 425 614 l 313 338 m 242 917 q 288 1031 267 993 q 330 1080 308 1068 q 378 1092 351 1092 q 430 1078 406 1092 q 476 1047 454 1065 q 521 1016 499 1029 q 565 1003 543 1003 q 611 1021 593 1003 q 651 1092 629 1039 l 672 1092 q 626 978 647 1015 q 584 928 606 940 q 536 917 563 917 q 484 930 508 917 q 438 961 460 943 q 393 992 415 979 q 349 1006 371 1006 q 303 988 321 1006 q 263 917 285 969 l 242 917 z "},"ä":{"ha":922,"x_min":42,"x_max":881,"o":"m 42 0 l 42 22 l 113 60 l 421 785 l 493 785 l 799 63 l 881 22 l 881 0 l 558 0 l 558 22 l 656 63 l 569 268 l 283 268 l 199 61 l 300 22 l 300 0 l 42 0 m 313 338 l 540 338 l 425 614 l 313 338 m 326 932 q 276 952 296 932 q 256 1003 256 972 q 276 1053 256 1033 q 326 1074 296 1074 q 377 1053 357 1074 q 397 1003 397 1033 q 377 952 397 972 q 326 932 357 932 m 588 932 q 536 952 557 932 q 515 1003 515 972 q 536 1053 515 1033 q 588 1074 557 1074 q 638 1053 618 1074 q 658 1003 658 1033 q 638 952 658 972 q 588 932 618 932 z "},"ā":{"ha":922,"x_min":42,"x_max":881,"o":"m 42 0 l 42 22 l 113 60 l 421 785 l 493 785 l 799 63 l 881 22 l 881 0 l 558 0 l 558 22 l 656 63 l 569 268 l 283 268 l 199 61 l 300 22 l 300 0 l 42 0 m 313 338 l 540 338 l 425 614 l 313 338 m 268 967 l 268 1039 l 646 1039 l 646 967 l 268 967 z "},"ă":{"ha":922,"x_min":42,"x_max":881,"o":"m 42 0 l 42 22 l 113 60 l 421 785 l 493 785 l 799 63 l 881 22 l 881 0 l 558 0 l 558 22 l 656 63 l 569 268 l 283 268 l 199 61 l 300 22 l 300 0 l 42 0 m 313 338 l 540 338 l 425 614 l 313 338 m 457 896 q 321 953 365 896 q 250 1128 276 1011 l 268 1128 q 324 1038 296 1067 q 383 1001 351 1010 q 457 993 415 993 q 530 1001 499 993 q 589 1038 561 1010 q 646 1128 617 1067 l 664 1128 q 592 953 638 1011 q 457 896 546 896 z "},"å":{"ha":922,"x_min":42,"x_max":881,"o":"m 42 0 l 42 22 l 113 60 l 421 785 l 493 785 l 799 63 l 881 22 l 881 0 l 558 0 l 558 22 l 656 63 l 569 268 l 283 268 l 199 61 l 300 22 l 300 0 l 42 0 m 313 338 l 540 338 l 425 614 l 313 338 m 457 1119 q 544 1086 511 1119 q 578 1004 578 1053 q 544 922 578 954 q 457 889 511 889 q 370 922 404 889 q 336 1004 336 954 q 370 1086 336 1053 q 457 1119 404 1119 m 451 1086 q 419 1069 429 1086 q 408 1014 408 1053 q 464 922 408 922 q 508 994 508 922 q 451 1086 508 1086 z "},"ǻ":{"ha":922,"x_min":42,"x_max":881,"o":"m 42 0 l 42 22 l 113 60 l 421 785 l 493 785 l 799 63 l 881 22 l 881 0 l 558 0 l 558 22 l 656 63 l 569 268 l 283 268 l 199 61 l 300 22 l 300 0 l 42 0 m 313 338 l 540 338 l 425 614 l 313 338 m 457 1119 q 544 1086 511 1119 q 578 1004 578 1053 q 544 922 578 954 q 457 889 511 889 q 370 922 404 889 q 336 1004 336 954 q 370 1086 336 1053 q 457 1119 404 1119 m 451 1086 q 419 1069 429 1086 q 408 1014 408 1053 q 464 922 408 922 q 508 994 508 922 q 451 1086 508 1086 m 454 1192 l 574 1438 l 697 1438 q 688 1394 697 1415 q 649 1349 678 1374 l 474 1192 l 454 1192 z "},"ạ":{"ha":922,"x_min":42,"x_max":881,"o":"m 42 0 l 42 22 l 113 60 l 421 785 l 493 785 l 799 63 l 881 22 l 881 0 l 558 0 l 558 22 l 656 63 l 569 268 l 283 268 l 199 61 l 300 22 l 300 0 l 42 0 m 313 338 l 540 338 l 425 614 l 313 338 m 446 -299 q 384 -273 410 -299 q 358 -211 358 -247 q 384 -149 358 -175 q 446 -124 410 -124 q 508 -149 482 -124 q 533 -211 533 -175 q 508 -273 533 -247 q 446 -299 482 -299 z "},"ą":{"ha":922,"x_min":42,"x_max":881,"o":"m 42 0 l 42 22 l 113 60 l 421 785 l 493 785 l 799 63 l 881 22 l 881 0 l 769 0 q 707 -179 707 -100 q 730 -247 707 -226 q 796 -268 753 -268 q 828 -265 811 -268 q 864 -250 846 -261 l 868 -250 l 868 -269 q 749 -333 831 -333 q 650 -300 689 -333 q 611 -210 611 -267 q 644 -110 611 -160 q 731 0 678 -60 l 558 0 l 558 22 l 656 63 l 569 268 l 283 268 l 199 60 l 300 22 l 300 0 l 42 0 m 313 338 l 540 338 l 425 613 l 313 338 z "},"ȁ":{"ha":922,"x_min":42,"x_max":881,"o":"m 42 0 l 42 22 l 113 60 l 421 785 l 493 785 l 799 63 l 881 22 l 881 0 l 558 0 l 558 22 l 656 63 l 569 268 l 283 268 l 199 61 l 300 22 l 300 0 l 42 0 m 313 338 l 540 338 l 425 614 l 313 338 m 364 882 l 218 1040 q 196 1085 197 1063 q 201 1128 194 1107 l 294 1128 l 383 882 l 364 882 m 531 882 l 400 1040 q 378 1086 381 1065 q 383 1128 376 1107 l 476 1128 l 549 882 l 531 882 z "},"ȃ":{"ha":922,"x_min":42,"x_max":881,"o":"m 42 0 l 42 22 l 113 60 l 421 785 l 493 785 l 799 63 l 881 22 l 881 0 l 558 0 l 558 22 l 656 63 l 569 268 l 283 268 l 199 61 l 300 22 l 300 0 l 42 0 m 313 338 l 540 338 l 425 614 l 313 338 m 250 896 q 322 1070 276 1013 q 457 1128 368 1128 q 593 1070 549 1128 q 664 896 638 1013 l 646 896 q 590 985 618 957 q 531 1022 563 1014 q 457 1031 499 1031 q 384 1022 415 1031 q 325 985 353 1014 q 268 896 297 957 l 250 896 z "},"ắ":{"ha":922,"x_min":42,"x_max":881,"o":"m 42 0 l 42 22 l 113 60 l 421 785 l 493 785 l 799 63 l 881 22 l 881 0 l 558 0 l 558 22 l 656 63 l 569 268 l 283 268 l 199 61 l 300 22 l 300 0 l 42 0 m 313 338 l 540 338 l 425 614 l 313 338 z "},"ặ":{"ha":922,"x_min":42,"x_max":881,"o":"m 42 0 l 42 22 l 113 60 l 421 785 l 493 785 l 799 63 l 881 22 l 881 0 l 558 0 l 558 22 l 656 63 l 569 268 l 283 268 l 199 61 l 300 22 l 300 0 l 42 0 m 313 338 l 540 338 l 425 614 l 313 338 m 457 896 q 321 953 365 896 q 250 1128 276 1011 l 268 1128 q 324 1038 296 1067 q 383 1001 351 1010 q 457 993 415 993 q 530 1001 499 993 q 589 1038 561 1010 q 646 1128 617 1067 l 664 1128 q 592 953 638 1011 q 457 896 546 896 m 446 -299 q 384 -273 410 -299 q 358 -211 358 -247 q 384 -149 358 -175 q 446 -124 410 -124 q 508 -149 482 -124 q 533 -211 533 -175 q 508 -273 533 -247 q 446 -299 482 -299 z "},"ằ":{"ha":922,"x_min":42,"x_max":881,"o":"m 42 0 l 42 22 l 113 60 l 421 785 l 493 785 l 799 63 l 881 22 l 881 0 l 558 0 l 558 22 l 656 63 l 569 268 l 283 268 l 199 61 l 300 22 l 300 0 l 42 0 m 313 338 l 540 338 l 425 614 l 313 338 z "},"ẳ":{"ha":922,"x_min":42,"x_max":881,"o":"m 42 0 l 42 22 l 113 60 l 421 785 l 493 785 l 799 63 l 881 22 l 881 0 l 558 0 l 558 22 l 656 63 l 569 268 l 283 268 l 199 61 l 300 22 l 300 0 l 42 0 m 313 338 l 540 338 l 425 614 l 313 338 z "},"ẵ":{"ha":922,"x_min":42,"x_max":881,"o":"m 42 0 l 42 22 l 113 60 l 421 785 l 493 785 l 799 63 l 881 22 l 881 0 l 558 0 l 558 22 l 656 63 l 569 268 l 283 268 l 199 61 l 300 22 l 300 0 l 42 0 m 313 338 l 540 338 l 425 614 l 313 338 z "},"ấ":{"ha":922,"x_min":42,"x_max":881,"o":"m 42 0 l 42 22 l 113 60 l 421 785 l 493 785 l 799 63 l 881 22 l 881 0 l 558 0 l 558 22 l 656 63 l 569 268 l 283 268 l 199 61 l 300 22 l 300 0 l 42 0 m 313 338 l 540 338 l 425 614 l 313 338 m 608 1031 l 667 1229 l 781 1229 q 773 1195 781 1211 q 744 1158 765 1179 l 624 1031 l 608 1031 m 249 882 l 433 1128 l 481 1128 l 665 882 l 646 882 l 457 1010 l 268 882 l 249 882 z "},"ậ":{"ha":922,"x_min":42,"x_max":881,"o":"m 42 0 l 42 22 l 113 60 l 421 785 l 493 785 l 799 63 l 881 22 l 881 0 l 558 0 l 558 22 l 656 63 l 569 268 l 283 268 l 199 61 l 300 22 l 300 0 l 42 0 m 313 338 l 540 338 l 425 614 l 313 338 m 249 882 l 433 1128 l 481 1128 l 665 882 l 646 882 l 457 1010 l 268 882 l 249 882 m 446 -299 q 384 -273 410 -299 q 358 -211 358 -247 q 384 -149 358 -175 q 446 -124 410 -124 q 508 -149 482 -124 q 533 -211 533 -175 q 508 -273 533 -247 q 446 -299 482 -299 z "},"ầ":{"ha":922,"x_min":42,"x_max":881,"o":"m 42 0 l 42 22 l 113 60 l 421 785 l 493 785 l 799 63 l 881 22 l 881 0 l 558 0 l 558 22 l 656 63 l 569 268 l 283 268 l 199 61 l 300 22 l 300 0 l 42 0 m 313 338 l 540 338 l 425 614 l 313 338 m 290 1031 l 169 1158 q 141 1195 149 1179 q 133 1229 133 1211 l 247 1229 l 306 1031 l 290 1031 m 249 882 l 433 1128 l 481 1128 l 665 882 l 646 882 l 457 1010 l 268 882 l 249 882 z "},"ẩ":{"ha":922,"x_min":42,"x_max":881,"o":"m 42 0 l 42 22 l 113 60 l 421 785 l 493 785 l 799 63 l 881 22 l 881 0 l 558 0 l 558 22 l 656 63 l 569 268 l 283 268 l 199 61 l 300 22 l 300 0 l 42 0 m 313 338 l 540 338 l 425 614 l 313 338 z "},"ẫ":{"ha":922,"x_min":42,"x_max":881,"o":"m 42 0 l 42 22 l 113 60 l 421 785 l 493 785 l 799 63 l 881 22 l 881 0 l 558 0 l 558 22 l 656 63 l 569 268 l 283 268 l 199 61 l 300 22 l 300 0 l 42 0 m 313 338 l 540 338 l 425 614 l 313 338 z "},"ả":{"ha":922,"x_min":42,"x_max":881,"o":"m 42 0 l 42 22 l 113 60 l 421 785 l 493 785 l 799 63 l 881 22 l 881 0 l 558 0 l 558 22 l 656 63 l 569 268 l 283 268 l 199 61 l 300 22 l 300 0 l 42 0 m 313 338 l 540 338 l 425 614 l 313 338 m 388 899 l 388 900 q 456 932 432 915 q 481 981 481 949 q 458 1019 481 1004 q 375 1046 435 1035 l 390 1128 q 522 1085 485 1119 q 560 1015 560 1051 q 397 888 560 908 l 388 899 z "},"æ":{"ha":1203,"x_min":42,"x_max":1113,"o":"m 42 0 l 42 22 l 114 58 l 558 778 l 1078 778 l 1078 578 l 1056 578 l 983 708 l 704 708 l 704 438 l 906 438 l 953 533 l 975 533 l 975 274 l 953 274 l 906 368 l 704 368 l 704 69 l 1014 69 l 1090 226 l 1113 226 l 1113 0 l 467 0 l 467 22 l 565 68 l 565 268 l 329 268 l 201 57 l 296 22 l 296 0 l 42 0 m 372 338 l 565 338 l 565 653 l 372 338 z "},"ǽ":{"ha":1203,"x_min":42,"x_max":1113,"o":"m 42 0 l 42 22 l 114 58 l 558 778 l 1078 778 l 1078 578 l 1056 578 l 983 708 l 704 708 l 704 438 l 906 438 l 953 533 l 975 533 l 975 274 l 953 274 l 906 368 l 704 368 l 704 69 l 1014 69 l 1090 226 l 1113 226 l 1113 0 l 467 0 l 467 22 l 565 68 l 565 268 l 329 268 l 201 57 l 296 22 l 296 0 l 42 0 m 372 338 l 565 338 l 565 653 l 372 338 m 654 882 l 774 1128 l 897 1128 q 888 1085 897 1106 q 849 1039 878 1064 l 674 882 l 654 882 z "},"ć":{"ha":914,"x_min":90,"x_max":793,"o":"m 510 -14 q 294 36 389 -14 q 144 174 199 86 q 90 371 90 261 q 126 541 90 464 q 222 674 161 618 q 363 762 283 731 q 529 793 442 793 q 631 785 589 793 q 708 764 674 778 q 775 735 742 750 l 781 536 l 758 536 l 678 676 q 608 713 643 703 q 529 724 572 724 q 374 681 442 724 q 269 563 307 638 q 231 393 231 488 q 312 143 231 231 q 531 56 393 56 q 607 62 574 56 q 671 85 640 68 l 771 233 l 793 233 l 781 46 q 666 3 731 19 q 510 -14 601 -14 m 494 882 l 614 1128 l 738 1128 q 728 1085 738 1106 q 689 1039 718 1064 l 514 882 l 494 882 z "},"ĉ":{"ha":914,"x_min":90,"x_max":793,"o":"m 510 -14 q 294 36 389 -14 q 144 174 199 86 q 90 371 90 261 q 126 541 90 464 q 222 674 161 618 q 363 762 283 731 q 529 793 442 793 q 631 785 589 793 q 708 764 674 778 q 775 735 742 750 l 781 536 l 758 536 l 678 676 q 608 713 643 703 q 529 724 572 724 q 374 681 442 724 q 269 563 307 638 q 231 393 231 488 q 312 143 231 231 q 531 56 393 56 q 607 62 574 56 q 671 85 640 68 l 771 233 l 793 233 l 781 46 q 666 3 731 19 q 510 -14 601 -14 m 289 882 l 474 1128 l 521 1128 l 706 882 l 686 882 l 497 1010 l 308 882 l 289 882 z "},"č":{"ha":914,"x_min":90,"x_max":793,"o":"m 510 -14 q 294 36 389 -14 q 144 174 199 86 q 90 371 90 261 q 126 541 90 464 q 222 674 161 618 q 363 762 283 731 q 529 793 442 793 q 631 785 589 793 q 708 764 674 778 q 775 735 742 750 l 781 536 l 758 536 l 678 676 q 608 713 643 703 q 529 724 572 724 q 374 681 442 724 q 269 563 307 638 q 231 393 231 488 q 312 143 231 231 q 531 56 393 56 q 607 62 574 56 q 671 85 640 68 l 771 233 l 793 233 l 781 46 q 666 3 731 19 q 510 -14 601 -14 m 474 882 l 289 1128 l 308 1128 l 497 1000 l 686 1128 l 706 1128 l 521 882 l 474 882 z "},"ċ":{"ha":914,"x_min":90,"x_max":793,"o":"m 510 -14 q 294 36 389 -14 q 144 174 199 86 q 90 371 90 261 q 126 541 90 464 q 222 674 161 618 q 363 762 283 731 q 529 793 442 793 q 631 785 589 793 q 708 764 674 778 q 775 735 742 750 l 781 536 l 758 536 l 678 676 q 608 713 643 703 q 529 724 572 724 q 374 681 442 724 q 269 563 307 638 q 231 393 231 488 q 312 143 231 231 q 531 56 393 56 q 607 62 574 56 q 671 85 640 68 l 771 233 l 793 233 l 781 46 q 666 3 731 19 q 510 -14 601 -14 m 497 917 q 435 942 461 917 q 410 1004 410 968 q 435 1066 410 1040 q 497 1092 461 1092 q 559 1066 533 1092 q 585 1004 585 1040 q 559 942 585 968 q 497 917 533 917 z "},"ç":{"ha":914,"x_min":90,"x_max":793,"o":"m 506 -333 q 390 -293 429 -333 l 390 -275 l 396 -275 q 481 -292 431 -292 q 538 -276 521 -292 q 556 -237 556 -261 q 527 -187 556 -207 q 417 -143 499 -168 l 476 -12 q 276 46 364 -6 q 140 181 189 97 q 90 371 90 265 q 126 541 90 464 q 222 674 161 618 q 363 762 283 731 q 529 793 442 793 q 631 785 589 793 q 708 764 674 778 q 775 735 742 750 l 781 536 l 758 536 l 678 676 q 608 713 643 703 q 529 724 572 724 q 374 681 442 724 q 269 563 307 638 q 231 393 231 488 q 312 143 231 231 q 531 56 393 56 q 607 62 574 56 q 671 85 640 68 l 771 233 l 793 233 l 781 46 q 672 3 733 19 q 526 -14 611 -12 l 499 -72 q 611 -128 579 -97 q 643 -212 643 -158 q 607 -299 643 -264 q 506 -333 571 -333 z "},"ḉ":{"ha":914,"x_min":90,"x_max":793,"o":"m 494 882 l 614 1128 l 738 1128 q 728 1085 738 1106 q 689 1039 718 1064 l 514 882 l 494 882 m 507 -333 q 393 -293 429 -333 l 393 -275 l 397 -275 q 482 -292 433 -292 q 541 -276 524 -292 q 558 -237 558 -261 q 529 -187 558 -207 q 418 -143 500 -168 l 479 -12 q 278 44 365 -7 q 140 181 190 96 q 90 371 90 265 q 126 541 90 464 q 222 674 161 618 q 363 762 283 731 q 529 793 442 793 q 631 785 589 793 q 708 764 674 778 q 775 735 742 750 l 781 536 l 758 536 l 678 676 q 608 713 643 703 q 529 724 572 724 q 374 681 442 724 q 269 563 307 638 q 231 393 231 488 q 312 143 231 231 q 531 56 393 56 q 607 62 574 56 q 671 85 640 68 l 771 233 l 793 233 l 781 46 q 673 3 733 19 q 528 -14 613 -12 l 500 -72 q 613 -128 581 -97 q 644 -212 644 -158 q 609 -299 644 -264 q 507 -333 574 -333 z "},"ď":{"ha":964,"x_min":83,"x_max":875,"o":"m 83 0 l 83 22 l 185 68 l 185 710 l 83 756 l 83 778 l 438 778 q 675 733 578 778 q 824 608 772 688 q 875 424 875 528 q 821 201 875 296 q 667 53 767 106 q 429 0 567 0 l 83 0 m 408 708 l 322 708 l 322 69 l 418 69 q 651 158 569 69 q 732 393 732 246 q 649 627 732 546 q 408 708 565 708 m 457 882 l 272 1128 l 292 1128 l 481 1000 l 669 1128 l 689 1128 l 504 882 l 457 882 z "},"đ":{"ha":964,"x_min":83,"x_max":875,"o":"m 83 0 l 83 22 l 185 68 l 185 372 l 88 372 l 88 435 l 185 435 l 185 710 l 83 756 l 83 778 l 438 778 q 675 733 578 778 q 824 608 772 688 q 875 424 875 528 q 821 201 875 296 q 667 53 767 106 q 429 0 567 0 l 83 0 m 517 372 l 322 372 l 322 69 l 418 69 q 651 158 569 69 q 732 393 732 246 q 649 627 732 546 q 408 708 565 708 l 322 708 l 322 435 l 517 435 l 517 372 z "},"ḍ":{"ha":964,"x_min":83,"x_max":875,"o":"m 83 0 l 83 22 l 185 68 l 185 710 l 83 756 l 83 778 l 438 778 q 675 733 578 778 q 824 608 772 688 q 875 424 875 528 q 821 201 875 296 q 667 53 767 106 q 429 0 567 0 l 83 0 m 408 708 l 322 708 l 322 69 l 418 69 q 651 158 569 69 q 732 393 732 246 q 649 627 732 546 q 408 708 565 708 m 485 -299 q 423 -273 449 -299 q 397 -211 397 -247 q 423 -149 397 -175 q 485 -124 449 -124 q 547 -149 521 -124 q 572 -211 572 -175 q 547 -273 572 -247 q 485 -299 521 -299 z "},"ḏ":{"ha":964,"x_min":83,"x_max":875,"o":"m 83 0 l 83 22 l 185 68 l 185 710 l 83 756 l 83 778 l 438 778 q 675 733 578 778 q 824 608 772 688 q 875 424 875 528 q 821 201 875 296 q 667 53 767 106 q 429 0 567 0 l 83 0 m 408 708 l 322 708 l 322 69 l 418 69 q 651 158 569 69 q 732 393 732 246 q 649 627 732 546 q 408 708 565 708 m 296 -243 l 296 -171 l 674 -171 l 674 -243 l 296 -243 z "},"è":{"ha":821,"x_min":83,"x_max":729,"o":"m 83 0 l 83 22 l 183 68 l 183 710 l 83 756 l 83 778 l 694 778 l 694 578 l 672 578 l 600 708 l 321 708 l 321 438 l 524 438 l 571 533 l 593 533 l 593 274 l 571 274 l 524 368 l 321 368 l 321 69 l 631 69 l 707 226 l 729 226 l 729 0 l 83 0 m 414 882 l 239 1039 q 200 1085 210 1064 q 190 1128 190 1106 l 314 1128 l 433 882 l 414 882 z "},"é":{"ha":821,"x_min":83,"x_max":729,"o":"m 83 0 l 83 22 l 183 68 l 183 710 l 83 756 l 83 778 l 694 778 l 694 578 l 672 578 l 600 708 l 321 708 l 321 438 l 524 438 l 571 533 l 593 533 l 593 274 l 571 274 l 524 368 l 321 368 l 321 69 l 631 69 l 707 226 l 729 226 l 729 0 l 83 0 m 419 882 l 539 1128 l 663 1128 q 653 1085 663 1106 q 614 1039 643 1064 l 439 882 l 419 882 z "},"ê":{"ha":821,"x_min":83,"x_max":729,"o":"m 83 0 l 83 22 l 183 68 l 183 710 l 83 756 l 83 778 l 694 778 l 694 578 l 672 578 l 600 708 l 321 708 l 321 438 l 524 438 l 571 533 l 593 533 l 593 274 l 571 274 l 524 368 l 321 368 l 321 69 l 631 69 l 707 226 l 729 226 l 729 0 l 83 0 m 215 882 l 400 1128 l 447 1128 l 632 882 l 613 882 l 424 1010 l 235 882 l 215 882 z "},"ě":{"ha":821,"x_min":83,"x_max":729,"o":"m 83 0 l 83 22 l 183 68 l 183 710 l 83 756 l 83 778 l 694 778 l 694 578 l 672 578 l 600 708 l 321 708 l 321 438 l 524 438 l 571 533 l 593 533 l 593 274 l 571 274 l 524 368 l 321 368 l 321 69 l 631 69 l 707 226 l 729 226 l 729 0 l 83 0 m 400 882 l 215 1128 l 235 1128 l 424 1000 l 613 1128 l 632 1128 l 447 882 l 400 882 z "},"ẽ":{"ha":821,"x_min":83,"x_max":729,"o":"m 83 0 l 83 22 l 183 68 l 183 710 l 83 756 l 83 778 l 694 778 l 694 578 l 672 578 l 600 708 l 321 708 l 321 438 l 524 438 l 571 533 l 593 533 l 593 274 l 571 274 l 524 368 l 321 368 l 321 69 l 631 69 l 707 226 l 729 226 l 729 0 l 83 0 m 208 917 q 254 1031 233 993 q 297 1080 275 1068 q 344 1092 318 1092 q 397 1078 372 1092 q 443 1047 421 1065 q 488 1016 465 1029 q 532 1003 510 1003 q 578 1021 560 1003 q 618 1092 596 1039 l 639 1092 q 593 978 614 1015 q 551 928 572 940 q 503 917 529 917 q 451 930 475 917 q 404 961 426 943 q 360 992 382 979 q 315 1006 338 1006 q 269 988 288 1006 q 229 917 251 969 l 208 917 z "},"ë":{"ha":821,"x_min":83,"x_max":729,"o":"m 83 0 l 83 22 l 183 68 l 183 710 l 83 756 l 83 778 l 694 778 l 694 578 l 672 578 l 600 708 l 321 708 l 321 438 l 524 438 l 571 533 l 593 533 l 593 274 l 571 274 l 524 368 l 321 368 l 321 69 l 631 69 l 707 226 l 729 226 l 729 0 l 83 0 m 293 932 q 242 952 263 932 q 222 1003 222 972 q 242 1053 222 1033 q 293 1074 263 1074 q 344 1053 324 1074 q 364 1003 364 1033 q 344 952 364 972 q 293 932 324 932 m 554 932 q 503 952 524 932 q 482 1003 482 972 q 503 1053 482 1033 q 554 1074 524 1074 q 605 1053 585 1074 q 625 1003 625 1033 q 605 952 625 972 q 554 932 585 932 z "},"ē":{"ha":821,"x_min":83,"x_max":729,"o":"m 83 0 l 83 22 l 183 68 l 183 710 l 83 756 l 83 778 l 694 778 l 694 578 l 672 578 l 600 708 l 321 708 l 321 438 l 524 438 l 571 533 l 593 533 l 593 274 l 571 274 l 524 368 l 321 368 l 321 69 l 631 69 l 707 226 l 729 226 l 729 0 l 83 0 m 235 967 l 235 1039 l 613 1039 l 613 967 l 235 967 z "},"ĕ":{"ha":821,"x_min":83,"x_max":729,"o":"m 83 0 l 83 22 l 183 68 l 183 710 l 83 756 l 83 778 l 694 778 l 694 578 l 672 578 l 600 708 l 321 708 l 321 438 l 524 438 l 571 533 l 593 533 l 593 274 l 571 274 l 524 368 l 321 368 l 321 69 l 631 69 l 707 226 l 729 226 l 729 0 l 83 0 m 424 896 q 288 953 332 896 q 217 1128 243 1011 l 235 1128 q 290 1038 263 1067 q 350 1001 318 1010 q 424 993 382 993 q 497 1001 465 993 q 556 1038 528 1010 q 613 1128 583 1067 l 631 1128 q 558 953 604 1011 q 424 896 513 896 z "},"ė":{"ha":821,"x_min":83,"x_max":729,"o":"m 83 0 l 83 22 l 183 68 l 183 710 l 83 756 l 83 778 l 694 778 l 694 578 l 672 578 l 600 708 l 321 708 l 321 438 l 524 438 l 571 533 l 593 533 l 593 274 l 571 274 l 524 368 l 321 368 l 321 69 l 631 69 l 707 226 l 729 226 l 729 0 l 83 0 m 424 917 q 362 942 388 917 q 336 1004 336 968 q 362 1066 336 1040 q 424 1092 388 1092 q 485 1066 460 1092 q 511 1004 511 1040 q 485 942 511 968 q 424 917 460 917 z "},"ę":{"ha":821,"x_min":83,"x_max":729,"o":"m 83 0 l 83 22 l 183 68 l 183 710 l 83 756 l 83 778 l 694 778 l 694 578 l 672 578 l 600 708 l 321 708 l 321 438 l 524 438 l 571 533 l 593 533 l 593 274 l 571 274 l 524 368 l 321 368 l 321 69 l 631 69 l 707 226 l 729 226 l 729 0 l 629 0 q 567 -179 567 -100 q 590 -247 567 -226 q 656 -268 613 -268 q 688 -265 671 -268 q 724 -250 706 -261 l 728 -250 l 728 -269 q 679 -317 708 -300 q 608 -333 650 -333 q 509 -300 547 -333 q 471 -210 471 -267 q 504 -110 471 -160 q 590 0 538 -60 l 83 0 z "},"ẹ":{"ha":821,"x_min":83,"x_max":729,"o":"m 83 0 l 83 22 l 183 68 l 183 710 l 83 756 l 83 778 l 694 778 l 694 578 l 672 578 l 600 708 l 321 708 l 321 438 l 524 438 l 571 533 l 593 533 l 593 274 l 571 274 l 524 368 l 321 368 l 321 69 l 631 69 l 707 226 l 729 226 l 729 0 l 83 0 m 439 -299 q 377 -273 403 -299 q 351 -211 351 -247 q 377 -149 351 -175 q 439 -124 403 -124 q 501 -149 475 -124 q 526 -211 526 -175 q 501 -273 526 -247 q 439 -299 475 -299 z "},"ȅ":{"ha":821,"x_min":83,"x_max":729,"o":"m 83 0 l 83 22 l 183 68 l 183 710 l 83 756 l 83 778 l 694 778 l 694 578 l 672 578 l 600 708 l 321 708 l 321 438 l 524 438 l 571 533 l 593 533 l 593 274 l 571 274 l 524 368 l 321 368 l 321 69 l 631 69 l 707 226 l 729 226 l 729 0 l 83 0 m 331 882 l 185 1040 q 163 1085 164 1063 q 168 1128 161 1107 l 261 1128 l 350 882 l 331 882 m 497 882 l 367 1040 q 345 1086 347 1065 q 350 1128 343 1107 l 443 1128 l 515 882 l 497 882 z "},"ȇ":{"ha":821,"x_min":83,"x_max":729,"o":"m 83 0 l 83 22 l 183 68 l 183 710 l 83 756 l 83 778 l 694 778 l 694 578 l 672 578 l 600 708 l 321 708 l 321 438 l 524 438 l 571 533 l 593 533 l 593 274 l 571 274 l 524 368 l 321 368 l 321 69 l 631 69 l 707 226 l 729 226 l 729 0 l 83 0 m 217 896 q 289 1070 243 1013 q 424 1128 335 1128 q 560 1070 515 1128 q 631 896 604 1013 l 613 896 q 557 985 585 957 q 497 1022 529 1014 q 424 1031 465 1031 q 351 1022 382 1031 q 292 985 319 1014 q 235 896 264 957 l 217 896 z "},"ế":{"ha":821,"x_min":83,"x_max":747,"o":"m 83 0 l 83 22 l 183 68 l 183 710 l 83 756 l 83 778 l 694 778 l 694 578 l 672 578 l 600 708 l 321 708 l 321 438 l 524 438 l 571 533 l 593 533 l 593 274 l 571 274 l 524 368 l 321 368 l 321 69 l 631 69 l 707 226 l 729 226 l 729 0 l 83 0 m 575 1031 l 633 1229 l 747 1229 q 740 1195 747 1211 q 711 1158 732 1179 l 590 1031 l 575 1031 m 215 882 l 400 1128 l 447 1128 l 632 882 l 613 882 l 424 1010 l 235 882 l 215 882 z "},"ệ":{"ha":821,"x_min":83,"x_max":729,"o":"m 83 0 l 83 22 l 183 68 l 183 710 l 83 756 l 83 778 l 694 778 l 694 578 l 672 578 l 600 708 l 321 708 l 321 438 l 524 438 l 571 533 l 593 533 l 593 274 l 571 274 l 524 368 l 321 368 l 321 69 l 631 69 l 707 226 l 729 226 l 729 0 l 83 0 m 215 882 l 400 1128 l 447 1128 l 632 882 l 613 882 l 424 1010 l 235 882 l 215 882 m 439 -299 q 377 -273 403 -299 q 351 -211 351 -247 q 377 -149 351 -175 q 439 -124 403 -124 q 501 -149 475 -124 q 526 -211 526 -175 q 501 -273 526 -247 q 439 -299 475 -299 z "},"ề":{"ha":821,"x_min":83,"x_max":729,"o":"m 83 0 l 83 22 l 183 68 l 183 710 l 83 756 l 83 778 l 694 778 l 694 578 l 672 578 l 600 708 l 321 708 l 321 438 l 524 438 l 571 533 l 593 533 l 593 274 l 571 274 l 524 368 l 321 368 l 321 69 l 631 69 l 707 226 l 729 226 l 729 0 l 83 0 m 257 1031 l 136 1158 q 108 1195 115 1179 q 100 1229 100 1211 l 214 1229 l 272 1031 l 257 1031 m 215 882 l 400 1128 l 447 1128 l 632 882 l 613 882 l 424 1010 l 235 882 l 215 882 z "},"ể":{"ha":821,"x_min":83,"x_max":729,"o":"m 83 0 l 83 22 l 183 68 l 183 710 l 83 756 l 83 778 l 694 778 l 694 578 l 672 578 l 600 708 l 321 708 l 321 438 l 524 438 l 571 533 l 593 533 l 593 274 l 571 274 l 524 368 l 321 368 l 321 69 l 631 69 l 707 226 l 729 226 l 729 0 l 83 0 z "},"ễ":{"ha":821,"x_min":83,"x_max":729,"o":"m 83 0 l 83 22 l 183 68 l 183 710 l 83 756 l 83 778 l 694 778 l 694 578 l 672 578 l 600 708 l 321 708 l 321 438 l 524 438 l 571 533 l 593 533 l 593 274 l 571 274 l 524 368 l 321 368 l 321 69 l 631 69 l 707 226 l 729 226 l 729 0 l 83 0 z "},"ẻ":{"ha":821,"x_min":83,"x_max":729,"o":"m 83 0 l 83 22 l 183 68 l 183 710 l 83 756 l 83 778 l 694 778 l 694 578 l 672 578 l 600 708 l 321 708 l 321 438 l 524 438 l 571 533 l 593 533 l 593 274 l 571 274 l 524 368 l 321 368 l 321 69 l 631 69 l 707 226 l 729 226 l 729 0 l 83 0 m 354 899 l 354 900 q 423 932 399 915 q 447 981 447 949 q 424 1019 447 1004 q 342 1046 401 1035 l 357 1128 q 489 1085 451 1119 q 526 1015 526 1051 q 364 888 526 908 l 354 899 z "},"ḕ":{"ha":821,"x_min":83,"x_max":729,"o":"m 83 0 l 83 22 l 183 68 l 183 710 l 83 756 l 83 778 l 694 778 l 694 578 l 672 578 l 600 708 l 321 708 l 321 438 l 524 438 l 571 533 l 593 533 l 593 274 l 571 274 l 524 368 l 321 368 l 321 69 l 631 69 l 707 226 l 729 226 l 729 0 l 83 0 z "},"ḗ":{"ha":821,"x_min":83,"x_max":729,"o":"m 83 0 l 83 22 l 183 68 l 183 710 l 83 756 l 83 778 l 694 778 l 694 578 l 672 578 l 600 708 l 321 708 l 321 438 l 524 438 l 571 533 l 593 533 l 593 274 l 571 274 l 524 368 l 321 368 l 321 69 l 631 69 l 707 226 l 729 226 l 729 0 l 83 0 z "},"ḝ":{"ha":821,"x_min":83,"x_max":729,"o":"m 424 896 q 287 953 331 896 q 217 1128 243 1011 l 235 1128 q 292 1038 264 1067 q 351 1001 319 1010 q 424 993 383 993 q 496 1001 464 993 q 556 1038 528 1010 q 613 1128 583 1067 l 631 1128 q 558 953 603 1011 q 424 896 514 896 m 83 0 l 83 22 l 183 68 l 183 710 l 83 756 l 83 778 l 694 778 l 694 578 l 672 578 l 600 708 l 321 708 l 321 438 l 524 438 l 571 533 l 593 533 l 593 274 l 571 274 l 524 368 l 321 368 l 321 69 l 631 69 l 707 226 l 729 226 l 729 0 l 465 0 l 432 -72 q 543 -128 511 -97 q 575 -212 575 -158 q 540 -299 575 -264 q 439 -333 504 -333 q 324 -293 360 -333 l 324 -275 l 328 -275 q 367 -287 347 -283 q 414 -292 386 -292 q 472 -276 454 -292 q 489 -237 489 -261 q 460 -187 489 -207 q 350 -143 432 -168 l 415 0 l 83 0 z "},"ĝ":{"ha":949,"x_min":90,"x_max":885,"o":"m 499 -14 q 290 35 382 -14 q 144 171 197 85 q 90 368 90 257 q 124 537 90 460 q 218 672 158 614 q 356 760 278 729 q 524 792 435 792 q 673 776 617 792 q 781 735 729 760 l 789 535 l 768 535 l 685 674 q 603 718 638 706 q 525 731 569 731 q 366 690 435 731 q 259 579 297 650 q 221 419 221 508 q 261 224 221 306 q 372 99 301 143 q 531 56 442 56 q 602 60 567 56 q 674 79 638 65 l 674 278 l 567 326 l 567 347 l 885 347 l 885 326 l 801 275 l 801 86 q 715 33 767 56 q 607 -1 664 11 q 499 -14 550 -14 m 286 882 l 471 1128 l 518 1128 l 703 882 l 683 882 l 494 1010 l 306 882 l 286 882 z "},"ğ":{"ha":949,"x_min":90,"x_max":885,"o":"m 499 -14 q 290 35 382 -14 q 144 171 197 85 q 90 368 90 257 q 124 537 90 460 q 218 672 158 614 q 356 760 278 729 q 524 792 435 792 q 673 776 617 792 q 781 735 729 760 l 789 535 l 768 535 l 685 674 q 603 718 638 706 q 525 731 569 731 q 366 690 435 731 q 259 579 297 650 q 221 419 221 508 q 261 224 221 306 q 372 99 301 143 q 531 56 442 56 q 602 60 567 56 q 674 79 638 65 l 674 278 l 567 326 l 567 347 l 885 347 l 885 326 l 801 275 l 801 86 q 715 33 767 56 q 607 -1 664 11 q 499 -14 550 -14 m 494 896 q 358 953 403 896 q 288 1128 314 1011 l 306 1128 q 361 1038 333 1067 q 421 1001 389 1010 q 494 993 453 993 q 567 1001 536 993 q 626 1038 599 1010 q 683 1128 654 1067 l 701 1128 q 629 953 675 1011 q 494 896 583 896 z "},"ġ":{"ha":949,"x_min":90,"x_max":885,"o":"m 499 -14 q 290 35 382 -14 q 144 171 197 85 q 90 368 90 257 q 124 537 90 460 q 218 672 158 614 q 356 760 278 729 q 524 792 435 792 q 673 776 617 792 q 781 735 729 760 l 789 535 l 768 535 l 685 674 q 603 718 638 706 q 525 731 569 731 q 366 690 435 731 q 259 579 297 650 q 221 419 221 508 q 261 224 221 306 q 372 99 301 143 q 531 56 442 56 q 602 60 567 56 q 674 79 638 65 l 674 278 l 567 326 l 567 347 l 885 347 l 885 326 l 801 275 l 801 86 q 715 33 767 56 q 607 -1 664 11 q 499 -14 550 -14 m 493 917 q 431 942 457 917 q 406 1004 406 968 q 431 1066 406 1040 q 493 1092 457 1092 q 555 1066 529 1092 q 581 1004 581 1040 q 555 942 581 968 q 493 917 529 917 z "},"ģ":{"ha":949,"x_min":90,"x_max":885,"o":"m 499 -14 q 290 35 382 -14 q 144 171 197 85 q 90 368 90 257 q 124 537 90 460 q 218 672 158 614 q 356 760 278 729 q 524 792 435 792 q 673 776 617 792 q 781 735 729 760 l 789 535 l 768 535 l 685 674 q 603 718 638 706 q 525 731 569 731 q 366 690 435 731 q 259 579 297 650 q 221 419 221 508 q 261 224 221 306 q 372 99 301 143 q 531 56 442 56 q 602 60 567 56 q 674 79 638 65 l 674 278 l 567 326 l 567 347 l 885 347 l 885 326 l 801 275 l 801 86 q 715 33 767 56 q 607 -1 664 11 q 499 -14 550 -14 m 524 893 q 381 1001 381 893 q 424 1087 381 1057 q 533 1117 467 1117 q 557 1116 544 1117 q 578 1113 569 1115 l 578 1090 q 560 1094 569 1093 q 543 1094 550 1094 q 486 1082 507 1094 q 465 1043 465 1069 q 493 997 465 1008 q 579 986 521 986 l 579 922 q 567 901 579 910 q 524 893 556 893 z "},"ǧ":{"ha":949,"x_min":90,"x_max":885,"o":"m 499 -14 q 290 35 382 -14 q 144 171 197 85 q 90 368 90 257 q 124 537 90 460 q 218 672 158 614 q 356 760 278 729 q 524 792 435 792 q 673 776 617 792 q 781 735 729 760 l 789 535 l 768 535 l 685 674 q 603 718 638 706 q 525 731 569 731 q 366 690 435 731 q 259 579 297 650 q 221 419 221 508 q 261 224 221 306 q 372 99 301 143 q 531 56 442 56 q 602 60 567 56 q 674 79 638 65 l 674 278 l 567 326 l 567 347 l 885 347 l 885 326 l 801 275 l 801 86 q 715 33 767 56 q 607 -1 664 11 q 499 -14 550 -14 m 471 882 l 286 1128 l 306 1128 l 494 1000 l 683 1128 l 703 1128 l 518 882 l 471 882 z "},"ḡ":{"ha":949,"x_min":90,"x_max":885,"o":"m 499 -14 q 290 35 382 -14 q 144 171 197 85 q 90 368 90 257 q 124 537 90 460 q 218 672 158 614 q 356 760 278 729 q 524 792 435 792 q 673 776 617 792 q 781 735 729 760 l 789 535 l 768 535 l 685 674 q 603 718 638 706 q 525 731 569 731 q 366 690 435 731 q 259 579 297 650 q 221 419 221 508 q 261 224 221 306 q 372 99 301 143 q 531 56 442 56 q 602 60 567 56 q 674 79 638 65 l 674 278 l 567 326 l 567 347 l 885 347 l 885 326 l 801 275 l 801 86 q 715 33 767 56 q 607 -1 664 11 q 499 -14 550 -14 m 306 967 l 306 1039 l 683 1039 l 683 967 l 306 967 z "},"ĥ":{"ha":1031,"x_min":83,"x_max":947,"o":"m 83 0 l 83 22 l 183 68 l 183 710 l 83 756 l 83 778 l 422 778 l 422 756 l 321 710 l 321 438 l 713 438 l 713 710 l 611 756 l 611 778 l 947 778 l 947 756 l 850 710 l 850 68 l 947 22 l 947 0 l 611 0 l 611 22 l 713 68 l 713 368 l 321 368 l 321 68 l 422 22 l 422 0 l 83 0 m 308 882 l 493 1128 l 540 1128 l 725 882 l 706 882 l 517 1010 l 328 882 l 308 882 z "},"ħ":{"ha":1031,"x_min":83,"x_max":947,"o":"m 83 0 l 83 22 l 183 68 l 183 554 l 83 554 l 83 615 l 183 615 l 183 710 l 83 756 l 83 778 l 422 778 l 422 756 l 321 710 l 321 615 l 713 615 l 713 710 l 611 756 l 611 778 l 947 778 l 947 756 l 850 710 l 850 615 l 947 615 l 947 554 l 850 554 l 850 68 l 947 22 l 947 0 l 611 0 l 611 22 l 713 68 l 713 368 l 321 368 l 321 68 l 422 22 l 422 0 l 83 0 m 321 438 l 713 438 l 713 554 l 321 554 l 321 438 z "},"ḥ":{"ha":1031,"x_min":83,"x_max":947,"o":"m 83 0 l 83 22 l 183 68 l 183 710 l 83 756 l 83 778 l 422 778 l 422 756 l 321 710 l 321 438 l 713 438 l 713 710 l 611 756 l 611 778 l 947 778 l 947 756 l 850 710 l 850 68 l 947 22 l 947 0 l 611 0 l 611 22 l 713 68 l 713 368 l 321 368 l 321 68 l 422 22 l 422 0 l 83 0 m 517 -299 q 455 -273 481 -299 q 429 -211 429 -247 q 455 -149 429 -175 q 517 -124 481 -124 q 578 -149 553 -124 q 604 -211 604 -175 q 578 -273 604 -247 q 517 -299 553 -299 z "},"ḫ":{"ha":1031,"x_min":83,"x_max":947,"o":"m 83 0 l 83 22 l 183 68 l 183 710 l 83 756 l 83 778 l 422 778 l 422 756 l 321 710 l 321 438 l 713 438 l 713 710 l 611 756 l 611 778 l 947 778 l 947 756 l 850 710 l 850 68 l 947 22 l 947 0 l 611 0 l 611 22 l 713 68 l 713 368 l 321 368 l 321 68 l 422 22 l 422 0 l 83 0 m 517 -333 q 381 -276 425 -333 q 310 -101 336 -218 l 328 -101 q 383 -191 356 -162 q 443 -228 411 -219 q 517 -236 475 -236 q 590 -228 558 -236 q 649 -191 621 -219 q 706 -101 676 -162 l 724 -101 q 651 -276 697 -218 q 517 -333 606 -333 z "},"ì":{"ha":504,"x_min":19,"x_max":415,"o":"m 89 0 l 89 22 l 181 68 l 181 710 l 89 756 l 89 778 l 415 778 l 415 756 l 319 710 l 319 68 l 415 22 l 415 0 l 89 0 m 243 882 l 68 1039 q 29 1085 39 1064 q 19 1128 19 1106 l 143 1128 l 263 882 l 243 882 z "},"í":{"ha":504,"x_min":89,"x_max":492,"o":"m 89 0 l 89 22 l 181 68 l 181 710 l 89 756 l 89 778 l 415 778 l 415 756 l 319 710 l 319 68 l 415 22 l 415 0 l 89 0 m 249 882 l 368 1128 l 492 1128 q 482 1085 492 1106 q 443 1039 472 1064 l 268 882 l 249 882 z "},"î":{"ha":504,"x_min":43,"x_max":460,"o":"m 89 0 l 89 22 l 181 68 l 181 710 l 89 756 l 89 778 l 415 778 l 415 756 l 319 710 l 319 68 l 415 22 l 415 0 l 89 0 m 43 882 l 228 1128 l 275 1128 l 460 882 l 440 882 l 251 1010 l 63 882 l 43 882 z "},"ĩ":{"ha":504,"x_min":36,"x_max":467,"o":"m 89 0 l 89 22 l 181 68 l 181 710 l 89 756 l 89 778 l 415 778 l 415 756 l 319 710 l 319 68 l 415 22 l 415 0 l 89 0 m 36 917 q 82 1031 61 993 q 124 1080 103 1068 q 172 1092 146 1092 q 224 1078 200 1092 q 271 1047 249 1065 q 315 1016 293 1029 q 360 1003 338 1003 q 406 1021 388 1003 q 446 1092 424 1039 l 467 1092 q 421 978 442 1015 q 378 928 400 940 q 331 917 357 917 q 278 930 303 917 q 232 961 254 943 q 188 992 210 979 q 143 1006 165 1006 q 97 988 115 1006 q 57 917 79 969 l 36 917 z "},"ï":{"ha":504,"x_min":50,"x_max":453,"o":"m 89 0 l 89 22 l 181 68 l 181 710 l 89 756 l 89 778 l 415 778 l 415 756 l 319 710 l 319 68 l 415 22 l 415 0 l 89 0 m 121 932 q 70 952 90 932 q 50 1003 50 972 q 70 1053 50 1033 q 121 1074 90 1074 q 172 1053 151 1074 q 192 1003 192 1033 q 172 952 192 972 q 121 932 151 932 m 382 932 q 331 952 351 932 q 310 1003 310 972 q 331 1053 310 1033 q 382 1074 351 1074 q 433 1053 413 1074 q 453 1003 453 1033 q 433 952 453 972 q 382 932 413 932 z "},"ī":{"ha":504,"x_min":63,"x_max":440,"o":"m 89 0 l 89 22 l 181 68 l 181 710 l 89 756 l 89 778 l 415 778 l 415 756 l 319 710 l 319 68 l 415 22 l 415 0 l 89 0 m 63 967 l 63 1039 l 440 1039 l 440 967 l 63 967 z "},"ĭ":{"ha":504,"x_min":44,"x_max":458,"o":"m 89 0 l 89 22 l 181 68 l 181 710 l 89 756 l 89 778 l 415 778 l 415 756 l 319 710 l 319 68 l 415 22 l 415 0 l 89 0 m 251 896 q 115 953 160 896 q 44 1128 71 1011 l 63 1128 q 118 1038 90 1067 q 178 1001 146 1010 q 251 993 210 993 q 324 1001 293 993 q 383 1038 356 1010 q 440 1128 411 1067 l 458 1128 q 386 953 432 1011 q 251 896 340 896 z "},"į":{"ha":504,"x_min":89,"x_max":415,"o":"m 89 0 l 89 22 l 181 68 l 181 710 l 89 756 l 89 778 l 415 778 l 415 756 l 319 710 l 319 68 l 415 22 l 415 0 l 282 0 q 219 -179 219 -100 q 242 -247 219 -226 q 308 -268 265 -268 q 341 -265 324 -268 q 376 -250 358 -261 l 381 -250 l 381 -269 q 332 -317 361 -300 q 261 -333 303 -333 q 162 -300 200 -333 q 124 -210 124 -267 q 157 -110 124 -160 q 243 0 190 -60 l 89 0 z "},"ị":{"ha":504,"x_min":89,"x_max":415,"o":"m 89 0 l 89 22 l 181 68 l 181 710 l 89 756 l 89 778 l 415 778 l 415 756 l 319 710 l 319 68 l 415 22 l 415 0 l 89 0 m 251 -299 q 190 -273 215 -299 q 164 -211 164 -247 q 190 -149 164 -175 q 251 -124 215 -124 q 313 -149 288 -124 q 339 -211 339 -175 q 313 -273 339 -247 q 251 -299 288 -299 z "},"ȉ":{"ha":504,"x_min":-11,"x_max":415,"o":"m 89 0 l 89 22 l 181 68 l 181 710 l 89 756 l 89 778 l 415 778 l 415 756 l 319 710 l 319 68 l 415 22 l 415 0 l 89 0 m 158 882 l 13 1040 q -10 1085 -8 1063 q -4 1128 -11 1107 l 89 1128 l 178 882 l 158 882 m 325 882 l 194 1040 q 173 1086 175 1065 q 178 1128 171 1107 l 271 1128 l 343 882 l 325 882 z "},"ȋ":{"ha":504,"x_min":44,"x_max":458,"o":"m 89 0 l 89 22 l 181 68 l 181 710 l 89 756 l 89 778 l 415 778 l 415 756 l 319 710 l 319 68 l 415 22 l 415 0 l 89 0 m 44 896 q 117 1070 71 1013 q 251 1128 163 1128 q 388 1070 343 1128 q 458 896 432 1013 l 440 896 q 385 985 413 957 q 325 1022 357 1014 q 251 1031 293 1031 q 178 1022 210 1031 q 119 985 147 1014 q 63 896 92 957 l 44 896 z "},"ỉ":{"ha":504,"x_min":89,"x_max":415,"o":"m 89 0 l 89 22 l 181 68 l 181 710 l 89 756 l 89 778 l 415 778 l 415 756 l 319 710 l 319 68 l 415 22 l 415 0 l 89 0 m 183 899 l 183 900 q 252 932 228 915 q 276 981 276 949 q 253 1019 276 1004 q 171 1046 231 1035 l 186 1128 q 318 1085 281 1119 q 356 1015 356 1051 q 193 888 356 908 l 183 899 z "},"ḯ":{"ha":504,"x_min":50,"x_max":483,"o":"m 89 0 l 89 22 l 181 68 l 181 710 l 89 756 l 89 778 l 415 778 l 415 756 l 319 710 l 319 68 l 415 22 l 415 0 l 89 0 z "},"ĳ":{"ha":1007,"x_min":89,"x_max":918,"o":"m 89 0 l 89 22 l 181 68 l 181 710 l 89 756 l 89 778 l 415 778 l 415 756 l 319 710 l 319 68 l 415 22 l 415 0 l 89 0 m 569 -204 q 538 -197 551 -204 q 524 -165 524 -189 q 527 -146 524 -164 q 536 -96 531 -128 l 544 -96 q 574 -103 563 -100 q 600 -107 586 -107 q 647 -94 628 -107 q 674 -41 665 -81 q 683 76 683 -1 l 683 710 l 586 757 l 586 778 l 918 778 l 918 757 l 821 710 l 821 265 q 787 26 821 122 q 711 -114 753 -69 q 638 -183 668 -162 q 569 -204 607 -204 z "},"ĵ":{"ha":504,"x_min":19,"x_max":444,"o":"m 65 -204 q 33 -197 47 -204 q 19 -165 19 -189 q 23 -146 19 -164 q 32 -96 26 -128 l 40 -96 q 70 -103 58 -100 q 96 -107 82 -107 q 142 -94 124 -107 q 170 -41 161 -81 q 179 76 179 -1 l 179 710 l 82 757 l 82 778 l 414 778 l 414 757 l 317 710 l 317 265 q 283 26 317 122 q 207 -114 249 -69 q 133 -183 164 -162 q 65 -204 103 -204 m 28 882 l 213 1128 l 260 1128 l 444 882 l 425 882 l 236 1010 l 47 882 l 28 882 z "},"ķ":{"ha":956,"x_min":83,"x_max":914,"o":"m 83 0 l 83 22 l 185 68 l 185 710 l 83 756 l 83 778 l 422 778 l 422 756 l 322 710 l 322 68 l 422 22 l 422 0 l 83 0 m 694 0 l 322 396 l 644 717 l 557 756 l 557 778 l 836 778 l 836 756 l 757 725 l 458 439 l 817 60 l 914 22 l 914 0 l 694 0 m 446 -332 q 422 -331 435 -332 q 400 -328 410 -331 l 400 -306 q 419 -309 408 -308 q 436 -310 429 -310 q 493 -297 472 -310 q 514 -257 514 -283 q 486 -212 514 -224 q 399 -200 458 -200 l 399 -136 q 411 -115 399 -124 q 456 -107 424 -107 q 564 -135 529 -107 q 599 -217 599 -164 q 556 -302 599 -272 q 446 -332 513 -332 z "},"ĺ":{"ha":813,"x_min":83,"x_max":721,"o":"m 83 0 l 83 22 l 183 68 l 183 710 l 83 756 l 83 778 l 433 778 l 433 756 l 321 710 l 321 69 l 611 69 l 699 274 l 721 274 l 721 0 l 83 0 m 247 882 l 367 1128 l 490 1128 q 481 1085 490 1106 q 442 1039 471 1064 l 267 882 l 247 882 z "},"ľ":{"ha":813,"x_min":83,"x_max":721,"o":"m 83 0 l 83 22 l 183 68 l 183 710 l 83 756 l 83 778 l 433 778 l 433 756 l 321 710 l 321 69 l 611 69 l 699 274 l 721 274 l 721 0 l 83 0 m 532 518 l 560 778 l 671 778 q 674 738 675 758 q 656 688 674 717 l 550 518 l 532 518 z "},"ļ":{"ha":813,"x_min":83,"x_max":721,"o":"m 83 0 l 83 22 l 183 68 l 183 710 l 83 756 l 83 778 l 433 778 l 433 756 l 321 710 l 321 69 l 611 69 l 699 274 l 721 274 l 721 0 l 83 0 m 400 -332 q 376 -331 389 -332 q 354 -328 364 -331 l 354 -306 q 373 -309 363 -308 q 390 -310 383 -310 q 447 -297 426 -310 q 468 -257 468 -283 q 440 -212 468 -224 q 353 -200 413 -200 l 353 -136 q 365 -115 353 -124 q 410 -107 378 -107 q 518 -135 483 -107 q 553 -217 553 -164 q 510 -302 553 -272 q 400 -332 467 -332 z "},"ł":{"ha":813,"x_min":83,"x_max":721,"o":"m 83 0 l 83 22 l 183 68 l 183 282 l 83 215 l 83 289 l 183 356 l 183 710 l 83 756 l 83 778 l 433 778 l 433 756 l 321 710 l 321 429 l 493 542 l 493 468 l 321 356 l 321 69 l 611 69 l 699 274 l 721 274 l 721 0 l 83 0 z "},"ŀ":{"ha":813,"x_min":83,"x_max":738,"o":"m 83 0 l 83 22 l 183 68 l 183 710 l 83 756 l 83 778 l 433 778 l 433 756 l 321 710 l 321 69 l 611 69 l 699 274 l 721 274 l 721 0 l 83 0 m 650 321 q 588 347 614 321 q 563 408 563 372 q 588 470 563 444 q 650 496 614 496 q 712 470 686 496 q 738 408 738 444 q 712 347 738 372 q 650 321 686 321 z "},"ḷ":{"ha":813,"x_min":83,"x_max":721,"o":"m 83 0 l 83 22 l 183 68 l 183 710 l 83 756 l 83 778 l 433 778 l 433 756 l 321 710 l 321 69 l 611 69 l 699 274 l 721 274 l 721 0 l 83 0 m 451 -299 q 390 -273 415 -299 q 364 -211 364 -247 q 390 -149 364 -175 q 451 -124 415 -124 q 513 -149 488 -124 q 539 -211 539 -175 q 513 -273 539 -247 q 451 -299 488 -299 z "},"ḻ":{"ha":813,"x_min":83,"x_max":721,"o":"m 83 0 l 83 22 l 183 68 l 183 710 l 83 756 l 83 778 l 433 778 l 433 756 l 321 710 l 321 69 l 611 69 l 699 274 l 721 274 l 721 0 l 83 0 m 263 -243 l 263 -171 l 640 -171 l 640 -243 l 263 -243 z "},"ṃ":{"ha":1219,"x_min":78,"x_max":1142,"o":"m 78 0 l 78 22 l 176 68 l 203 710 l 96 756 l 96 778 l 364 778 l 618 208 l 881 778 l 1136 778 l 1136 756 l 1033 718 l 1053 68 l 1142 22 l 1142 0 l 819 0 l 819 22 l 913 67 l 900 643 l 601 -6 l 560 -6 l 274 642 l 260 67 l 361 22 l 361 0 l 78 0 m 581 -299 q 519 -273 544 -299 q 493 -211 493 -247 q 519 -149 493 -175 q 581 -124 544 -124 q 642 -149 617 -124 q 668 -211 668 -175 q 642 -273 668 -247 q 581 -299 617 -299 z "},"ń":{"ha":1008,"x_min":78,"x_max":931,"o":"m 78 0 l 78 22 l 176 68 l 176 711 l 78 756 l 78 778 l 285 778 l 754 221 l 754 711 l 632 756 l 632 778 l 931 778 l 931 756 l 832 711 l 832 -6 l 768 -6 l 256 599 l 256 72 l 379 22 l 379 0 l 78 0 m 513 882 l 632 1128 l 756 1128 q 746 1085 756 1106 q 707 1039 736 1064 l 532 882 l 513 882 z "},"ň":{"ha":1008,"x_min":78,"x_max":931,"o":"m 78 0 l 78 22 l 176 68 l 176 711 l 78 756 l 78 778 l 285 778 l 754 221 l 754 711 l 632 756 l 632 778 l 931 778 l 931 756 l 832 711 l 832 -6 l 768 -6 l 256 599 l 256 72 l 379 22 l 379 0 l 78 0 m 493 882 l 308 1128 l 328 1128 l 517 1000 l 706 1128 l 725 1128 l 540 882 l 493 882 z "},"ñ":{"ha":1008,"x_min":78,"x_max":931,"o":"m 78 0 l 78 22 l 176 68 l 176 711 l 78 756 l 78 778 l 285 778 l 754 221 l 754 711 l 632 756 l 632 778 l 931 778 l 931 756 l 832 711 l 832 -6 l 768 -6 l 256 599 l 256 72 l 379 22 l 379 0 l 78 0 m 301 917 q 347 1031 326 993 q 390 1080 368 1068 q 438 1092 411 1092 q 490 1078 465 1092 q 536 1047 514 1065 q 581 1016 558 1029 q 625 1003 603 1003 q 671 1021 653 1003 q 711 1092 689 1039 l 732 1092 q 686 978 707 1015 q 644 928 665 940 q 596 917 622 917 q 544 930 568 917 q 497 961 519 943 q 453 992 475 979 q 408 1006 431 1006 q 363 988 381 1006 q 322 917 344 969 l 301 917 z "},"ņ":{"ha":1008,"x_min":78,"x_max":931,"o":"m 78 0 l 78 22 l 176 68 l 176 711 l 78 756 l 78 778 l 285 778 l 754 221 l 754 711 l 632 756 l 632 778 l 931 778 l 931 756 l 832 711 l 832 -6 l 768 -6 l 256 599 l 256 72 l 379 22 l 379 0 l 78 0 m 476 -332 q 453 -331 465 -332 q 431 -328 440 -331 l 431 -306 q 449 -309 439 -308 q 467 -310 460 -310 q 524 -297 503 -310 q 544 -257 544 -283 q 517 -212 544 -224 q 429 -200 489 -200 l 429 -136 q 442 -115 429 -124 q 486 -107 454 -107 q 594 -135 560 -107 q 629 -217 629 -164 q 586 -302 629 -272 q 476 -332 543 -332 z "},"ṅ":{"ha":1008,"x_min":78,"x_max":931,"o":"m 78 0 l 78 22 l 176 68 l 176 711 l 78 756 l 78 778 l 285 778 l 754 221 l 754 711 l 632 756 l 632 778 l 931 778 l 931 756 l 832 711 l 832 -6 l 768 -6 l 256 599 l 256 72 l 379 22 l 379 0 l 78 0 m 515 917 q 453 942 479 917 q 428 1004 428 968 q 453 1066 428 1040 q 515 1092 479 1092 q 577 1066 551 1092 q 603 1004 603 1040 q 577 942 603 968 q 515 917 551 917 z "},"ṇ":{"ha":1008,"x_min":78,"x_max":931,"o":"m 78 0 l 78 22 l 176 68 l 176 711 l 78 756 l 78 778 l 285 778 l 754 221 l 754 711 l 632 756 l 632 778 l 931 778 l 931 756 l 832 711 l 832 -6 l 768 -6 l 256 599 l 256 72 l 379 22 l 379 0 l 78 0 m 526 -299 q 465 -273 490 -299 q 439 -211 439 -247 q 465 -149 439 -175 q 526 -124 490 -124 q 588 -149 563 -124 q 614 -211 614 -175 q 588 -273 614 -247 q 526 -299 563 -299 z "},"ṉ":{"ha":1008,"x_min":78,"x_max":931,"o":"m 78 0 l 78 22 l 176 68 l 176 711 l 78 756 l 78 778 l 285 778 l 754 221 l 754 711 l 632 756 l 632 778 l 931 778 l 931 756 l 832 711 l 832 -6 l 768 -6 l 256 599 l 256 72 l 379 22 l 379 0 l 78 0 m 338 -243 l 338 -171 l 715 -171 l 715 -243 l 338 -243 z "},"ò":{"ha":985,"x_min":90,"x_max":894,"o":"m 492 -14 q 285 38 375 -14 q 142 181 194 90 q 90 389 90 272 q 142 597 90 506 q 285 741 194 689 q 492 793 375 793 q 699 741 608 793 q 842 597 790 689 q 894 389 894 506 q 842 181 894 272 q 699 38 790 90 q 492 -14 608 -14 m 514 56 q 690 138 626 56 q 754 354 754 219 q 719 547 754 464 q 619 677 683 631 q 474 724 556 724 q 297 642 363 724 q 231 428 231 561 q 267 233 231 317 q 367 103 303 150 q 514 56 431 56 m 471 882 l 296 1039 q 257 1085 267 1064 q 247 1128 247 1106 l 371 1128 l 490 882 l 471 882 z "},"ó":{"ha":985,"x_min":90,"x_max":894,"o":"m 492 -14 q 285 38 375 -14 q 142 181 194 90 q 90 389 90 272 q 142 597 90 506 q 285 741 194 689 q 492 793 375 793 q 699 741 608 793 q 842 597 790 689 q 894 389 894 506 q 842 181 894 272 q 699 38 790 90 q 492 -14 608 -14 m 514 56 q 690 138 626 56 q 754 354 754 219 q 719 547 754 464 q 619 677 683 631 q 474 724 556 724 q 297 642 363 724 q 231 428 231 561 q 267 233 231 317 q 367 103 303 150 q 514 56 431 56 m 478 882 l 597 1128 l 721 1128 q 711 1085 721 1106 q 672 1039 701 1064 l 497 882 l 478 882 z "},"ô":{"ha":985,"x_min":90,"x_max":894,"o":"m 492 -14 q 285 38 375 -14 q 142 181 194 90 q 90 389 90 272 q 142 597 90 506 q 285 741 194 689 q 492 793 375 793 q 699 741 608 793 q 842 597 790 689 q 894 389 894 506 q 842 181 894 272 q 699 38 790 90 q 492 -14 608 -14 m 514 56 q 690 138 626 56 q 754 354 754 219 q 719 547 754 464 q 619 677 683 631 q 474 724 556 724 q 297 642 363 724 q 231 428 231 561 q 267 233 231 317 q 367 103 303 150 q 514 56 431 56 m 272 882 l 457 1128 l 504 1128 l 689 882 l 669 882 l 481 1010 l 292 882 l 272 882 z "},"õ":{"ha":985,"x_min":90,"x_max":894,"o":"m 492 -14 q 285 38 375 -14 q 142 181 194 90 q 90 389 90 272 q 142 597 90 506 q 285 741 194 689 q 492 793 375 793 q 699 741 608 793 q 842 597 790 689 q 894 389 894 506 q 842 181 894 272 q 699 38 790 90 q 492 -14 608 -14 m 514 56 q 690 138 626 56 q 754 354 754 219 q 719 547 754 464 q 619 677 683 631 q 474 724 556 724 q 297 642 363 724 q 231 428 231 561 q 267 233 231 317 q 367 103 303 150 q 514 56 431 56 m 265 917 q 311 1031 290 993 q 353 1080 332 1068 q 401 1092 375 1092 q 453 1078 429 1092 q 500 1047 478 1065 q 544 1016 522 1029 q 589 1003 567 1003 q 635 1021 617 1003 q 675 1092 653 1039 l 696 1092 q 650 978 671 1015 q 608 928 629 940 q 560 917 586 917 q 508 930 532 917 q 461 961 483 943 q 417 992 439 979 q 372 1006 394 1006 q 326 988 344 1006 q 286 917 308 969 l 265 917 z "},"ö":{"ha":985,"x_min":90,"x_max":894,"o":"m 492 -14 q 285 38 375 -14 q 142 181 194 90 q 90 389 90 272 q 142 597 90 506 q 285 741 194 689 q 492 793 375 793 q 699 741 608 793 q 842 597 790 689 q 894 389 894 506 q 842 181 894 272 q 699 38 790 90 q 492 -14 608 -14 m 514 56 q 690 138 626 56 q 754 354 754 219 q 719 547 754 464 q 619 677 683 631 q 474 724 556 724 q 297 642 363 724 q 231 428 231 561 q 267 233 231 317 q 367 103 303 150 q 514 56 431 56 m 350 932 q 299 952 319 932 q 279 1003 279 972 q 299 1053 279 1033 q 350 1074 319 1074 q 401 1053 381 1074 q 421 1003 421 1033 q 401 952 421 972 q 350 932 381 932 m 611 932 q 560 952 581 932 q 539 1003 539 972 q 560 1053 539 1033 q 611 1074 581 1074 q 662 1053 642 1074 q 682 1003 682 1033 q 662 952 682 972 q 611 932 642 932 z "}}}
